%TF.GenerationSoftware,KiCad,Pcbnew,(5.1.9)-1*%
%TF.CreationDate,2021-06-07T11:13:51+02:00*%
%TF.ProjectId,esp32PicoD4,65737033-3250-4696-936f-44342e6b6963,rev?*%
%TF.SameCoordinates,Original*%
%TF.FileFunction,Other,User*%
%FSLAX46Y46*%
G04 Gerber Fmt 4.6, Leading zero omitted, Abs format (unit mm)*
G04 Created by KiCad (PCBNEW (5.1.9)-1) date 2021-06-07 11:13:51*
%MOMM*%
%LPD*%
G01*
G04 APERTURE LIST*
%ADD10C,0.050000*%
G04 APERTURE END LIST*
D10*
%TO.C,R3*%
X206628000Y-87902000D02*
X203328000Y-87902000D01*
X206628000Y-86442000D02*
X206628000Y-87902000D01*
X203328000Y-86442000D02*
X206628000Y-86442000D01*
X203328000Y-87902000D02*
X203328000Y-86442000D01*
%TO.C,AE1*%
X204928000Y-89524000D02*
X204228000Y-89524000D01*
X204928000Y-92324000D02*
X204928000Y-91524000D01*
X204928000Y-88724000D02*
X205128000Y-88724000D01*
X205128000Y-88724000D02*
X205128000Y-88024000D01*
X208328000Y-88024000D02*
X205128000Y-88024000D01*
X204928000Y-89524000D02*
X204928000Y-88724000D01*
X208328000Y-88724000D02*
X208328000Y-88024000D01*
X208328000Y-88724000D02*
X208528000Y-88724000D01*
X208328000Y-93024000D02*
X205128000Y-93024000D01*
X205128000Y-93024000D02*
X205128000Y-92324000D01*
X204928000Y-92324000D02*
X205128000Y-92324000D01*
X208528000Y-92324000D02*
X208528000Y-88724000D01*
X208328000Y-93024000D02*
X208328000Y-92324000D01*
X208328000Y-92324000D02*
X208528000Y-92324000D01*
X204928000Y-91524000D02*
X204228000Y-91524000D01*
X204228000Y-91524000D02*
X204228000Y-89524000D01*
%TO.C,B1*%
X206376000Y-100858000D02*
X209676000Y-100858000D01*
X206376000Y-100858000D02*
X206376000Y-103358000D01*
X209676000Y-103358000D02*
X209676000Y-100858000D01*
X209676000Y-103358000D02*
X206376000Y-103358000D01*
%TO.C,C1*%
X189774000Y-94132000D02*
X191734000Y-94132000D01*
X191734000Y-94132000D02*
X191734000Y-97892000D01*
X191734000Y-97892000D02*
X189774000Y-97892000D01*
X189774000Y-97892000D02*
X189774000Y-94132000D01*
%TO.C,L6*%
X207550000Y-84650000D02*
X209010000Y-84650000D01*
X209010000Y-84650000D02*
X209010000Y-87950000D01*
X209010000Y-87950000D02*
X207550000Y-87950000D01*
X207550000Y-87950000D02*
X207550000Y-84650000D01*
%TO.C,C8*%
X203740000Y-89636000D02*
X205200000Y-89636000D01*
X205200000Y-89636000D02*
X205200000Y-92936000D01*
X205200000Y-92936000D02*
X203740000Y-92936000D01*
X203740000Y-92936000D02*
X203740000Y-89636000D01*
%TO.C,C7*%
X203836000Y-83788000D02*
X203836000Y-82328000D01*
X203836000Y-82328000D02*
X207136000Y-82328000D01*
X207136000Y-82328000D02*
X207136000Y-83788000D01*
X207136000Y-83788000D02*
X203836000Y-83788000D01*
%TO.C,D8*%
X210014000Y-100224000D02*
X210014000Y-93324000D01*
X204514000Y-100224000D02*
X210014000Y-100224000D01*
X204514000Y-93324000D02*
X204514000Y-100224000D01*
X210014000Y-93324000D02*
X204514000Y-93324000D01*
%TO.C,R1*%
X198248000Y-83580000D02*
X198248000Y-82120000D01*
X198248000Y-82120000D02*
X201548000Y-82120000D01*
X201548000Y-82120000D02*
X201548000Y-83580000D01*
X201548000Y-83580000D02*
X198248000Y-83580000D01*
%TO.C,R8*%
X197794000Y-98364000D02*
X201494000Y-98364000D01*
X197794000Y-100264000D02*
X197794000Y-98364000D01*
X201494000Y-100264000D02*
X197794000Y-100264000D01*
X201494000Y-98364000D02*
X201494000Y-100264000D01*
%TO.C,R7*%
X197794000Y-96078000D02*
X201494000Y-96078000D01*
X197794000Y-97978000D02*
X197794000Y-96078000D01*
X201494000Y-97978000D02*
X197794000Y-97978000D01*
X201494000Y-96078000D02*
X201494000Y-97978000D01*
%TO.C,RX1*%
X203168000Y-95886000D02*
X203168000Y-99186000D01*
X201708000Y-95886000D02*
X203168000Y-95886000D01*
X201708000Y-99186000D02*
X201708000Y-95886000D01*
X203168000Y-99186000D02*
X201708000Y-99186000D01*
%TO.C,TX1*%
X196978000Y-94520000D02*
X200278000Y-94520000D01*
X196978000Y-95980000D02*
X196978000Y-94520000D01*
X200278000Y-95980000D02*
X196978000Y-95980000D01*
X200278000Y-94520000D02*
X200278000Y-95980000D01*
%TO.C,J1*%
X189970000Y-104008000D02*
X206270000Y-104008000D01*
X206270000Y-104008000D02*
X206270000Y-100408000D01*
X206270000Y-100408000D02*
X189970000Y-100408000D01*
X189970000Y-100408000D02*
X189970000Y-104008000D01*
%TO.C,R5*%
X193730000Y-100350000D02*
X193730000Y-98450000D01*
X193730000Y-98450000D02*
X197430000Y-98450000D01*
X197430000Y-98450000D02*
X197430000Y-100350000D01*
X197430000Y-100350000D02*
X193730000Y-100350000D01*
%TO.C,R2*%
X192858000Y-98450000D02*
X192858000Y-100350000D01*
X192858000Y-100350000D02*
X189158000Y-100350000D01*
X189158000Y-100350000D02*
X189158000Y-98450000D01*
X189158000Y-98450000D02*
X192858000Y-98450000D01*
%TO.C,R6*%
X189048000Y-98364000D02*
X189048000Y-100264000D01*
X189048000Y-100264000D02*
X185348000Y-100264000D01*
X185348000Y-100264000D02*
X185348000Y-98364000D01*
X185348000Y-98364000D02*
X189048000Y-98364000D01*
%TO.C,C11*%
X200304000Y-94960000D02*
X200304000Y-93000000D01*
X200304000Y-93000000D02*
X204064000Y-93000000D01*
X204064000Y-93000000D02*
X204064000Y-94960000D01*
X204064000Y-94960000D02*
X200304000Y-94960000D01*
%TO.C,C4*%
X203606000Y-86324000D02*
X203606000Y-84364000D01*
X203606000Y-84364000D02*
X207366000Y-84364000D01*
X207366000Y-84364000D02*
X207366000Y-86324000D01*
X207366000Y-86324000D02*
X203606000Y-86324000D01*
%TO.C,U2*%
X201966000Y-92492000D02*
X201966000Y-84292000D01*
X201966000Y-84292000D02*
X193766000Y-84292000D01*
X193766000Y-84292000D02*
X193766000Y-92492000D01*
X193766000Y-92492000D02*
X201966000Y-92492000D01*
%TO.C,U1*%
X192002000Y-98380000D02*
X192002000Y-93620000D01*
X192002000Y-98380000D02*
X195602000Y-98380000D01*
X195602000Y-93620000D02*
X192002000Y-93620000D01*
X195602000Y-93620000D02*
X195602000Y-98380000D01*
%TO.C,J3*%
X185368000Y-75814000D02*
X191568000Y-75814000D01*
X191568000Y-75814000D02*
X191568000Y-97364000D01*
X191568000Y-97364000D02*
X185368000Y-97364000D01*
X185368000Y-97364000D02*
X185368000Y-75814000D01*
%TO.C,D9*%
X197992000Y-82074000D02*
X197992000Y-83534000D01*
X197992000Y-83534000D02*
X194692000Y-83534000D01*
X194692000Y-83534000D02*
X194692000Y-82074000D01*
X194692000Y-82074000D02*
X197992000Y-82074000D01*
%TO.C,A1*%
X207162000Y-76084000D02*
X191662000Y-76084000D01*
X191662000Y-76084000D02*
X191662000Y-82034000D01*
X191662000Y-82034000D02*
X207162000Y-82034000D01*
X207162000Y-82034000D02*
X207162000Y-76084000D01*
%TD*%
M02*
