%TF.GenerationSoftware,KiCad,Pcbnew,(5.1.9)-1*%
%TF.CreationDate,2021-06-07T11:13:51+02:00*%
%TF.ProjectId,esp32PicoD4,65737033-3250-4696-936f-44342e6b6963,rev?*%
%TF.SameCoordinates,Original*%
%TF.FileFunction,Soldermask,Bot*%
%TF.FilePolarity,Negative*%
%FSLAX46Y46*%
G04 Gerber Fmt 4.6, Leading zero omitted, Abs format (unit mm)*
G04 Created by KiCad (PCBNEW (5.1.9)-1) date 2021-06-07 11:13:51*
%MOMM*%
%LPD*%
G01*
G04 APERTURE LIST*
%ADD10R,1.900000X1.000000*%
%ADD11C,0.100000*%
%ADD12R,1.000000X1.500000*%
%ADD13O,1.700000X1.700000*%
%ADD14R,1.700000X1.700000*%
%ADD15R,2.000000X1.000000*%
G04 APERTURE END LIST*
%TO.C,R9*%
G36*
G01*
X207093000Y-102087000D02*
X207093000Y-102637000D01*
G75*
G02*
X206893000Y-102837000I-200000J0D01*
G01*
X206493000Y-102837000D01*
G75*
G02*
X206293000Y-102637000I0J200000D01*
G01*
X206293000Y-102087000D01*
G75*
G02*
X206493000Y-101887000I200000J0D01*
G01*
X206893000Y-101887000D01*
G75*
G02*
X207093000Y-102087000I0J-200000D01*
G01*
G37*
G36*
G01*
X208743000Y-102087000D02*
X208743000Y-102637000D01*
G75*
G02*
X208543000Y-102837000I-200000J0D01*
G01*
X208143000Y-102837000D01*
G75*
G02*
X207943000Y-102637000I0J200000D01*
G01*
X207943000Y-102087000D01*
G75*
G02*
X208143000Y-101887000I200000J0D01*
G01*
X208543000Y-101887000D01*
G75*
G02*
X208743000Y-102087000I0J-200000D01*
G01*
G37*
%TD*%
D10*
%TO.C,J2*%
X189864000Y-76962000D03*
X189864000Y-82042000D03*
X186564000Y-79502000D03*
%TD*%
D11*
%TO.C,D7*%
G36*
X206736462Y-91333934D02*
G01*
X205887934Y-92182462D01*
X205251538Y-91546066D01*
X206100066Y-90697538D01*
X206736462Y-91333934D01*
G37*
G36*
X209069914Y-93667386D02*
G01*
X208221386Y-94515914D01*
X207584990Y-93879518D01*
X208433518Y-93030990D01*
X209069914Y-93667386D01*
G37*
%TD*%
%TO.C,D6*%
G36*
X206839736Y-94739208D02*
G01*
X205991208Y-95587736D01*
X205354812Y-94951340D01*
X206203340Y-94102812D01*
X206839736Y-94739208D01*
G37*
G36*
X209173188Y-97072660D02*
G01*
X208324660Y-97921188D01*
X207688264Y-97284792D01*
X208536792Y-96436264D01*
X209173188Y-97072660D01*
G37*
%TD*%
%TO.C,D5*%
G36*
X206585736Y-98041208D02*
G01*
X205737208Y-98889736D01*
X205100812Y-98253340D01*
X205949340Y-97404812D01*
X206585736Y-98041208D01*
G37*
G36*
X208919188Y-100374660D02*
G01*
X208070660Y-101223188D01*
X207434264Y-100586792D01*
X208282792Y-99738264D01*
X208919188Y-100374660D01*
G37*
%TD*%
%TO.C,D2*%
G36*
X207942264Y-90680792D02*
G01*
X208790792Y-89832264D01*
X209427188Y-90468660D01*
X208578660Y-91317188D01*
X207942264Y-90680792D01*
G37*
G36*
X205608812Y-88347340D02*
G01*
X206457340Y-87498812D01*
X207093736Y-88135208D01*
X206245208Y-88983736D01*
X205608812Y-88347340D01*
G37*
%TD*%
D12*
%TO.C,D3*%
X209118000Y-85762000D03*
X205918000Y-85762000D03*
X209118000Y-80862000D03*
X205918000Y-80862000D03*
%TD*%
D13*
%TO.C,J1*%
X204470000Y-102208000D03*
X201930000Y-102208000D03*
X199390000Y-102208000D03*
X196850000Y-102208000D03*
X194310000Y-102208000D03*
D14*
X191770000Y-102208000D03*
%TD*%
%TO.C,R4*%
G36*
G01*
X188360000Y-99850001D02*
X188360000Y-98949999D01*
G75*
G02*
X188609999Y-98700000I249999J0D01*
G01*
X189310001Y-98700000D01*
G75*
G02*
X189560000Y-98949999I0J-249999D01*
G01*
X189560000Y-99850001D01*
G75*
G02*
X189310001Y-100100000I-249999J0D01*
G01*
X188609999Y-100100000D01*
G75*
G02*
X188360000Y-99850001I0J249999D01*
G01*
G37*
G36*
G01*
X186360000Y-99850001D02*
X186360000Y-98949999D01*
G75*
G02*
X186609999Y-98700000I249999J0D01*
G01*
X187310001Y-98700000D01*
G75*
G02*
X187560000Y-98949999I0J-249999D01*
G01*
X187560000Y-99850001D01*
G75*
G02*
X187310001Y-100100000I-249999J0D01*
G01*
X186609999Y-100100000D01*
G75*
G02*
X186360000Y-99850001I0J249999D01*
G01*
G37*
%TD*%
D15*
%TO.C,RFM95*%
X203326000Y-97170000D03*
X203326000Y-95170000D03*
X203326000Y-93170000D03*
X203326000Y-91170000D03*
X203326000Y-89170000D03*
X203326000Y-87170000D03*
X203326000Y-85170000D03*
X203326000Y-83170000D03*
X187326000Y-83170000D03*
X187326000Y-85170000D03*
X187326000Y-87170000D03*
X187326000Y-89170000D03*
X187326000Y-91170000D03*
X187326000Y-93170000D03*
X187326000Y-95170000D03*
X187326000Y-97170000D03*
%TD*%
M02*
