%TF.GenerationSoftware,KiCad,Pcbnew,(5.1.9)-1*%
%TF.CreationDate,2021-06-07T11:13:51+02:00*%
%TF.ProjectId,esp32PicoD4,65737033-3250-4696-936f-44342e6b6963,rev?*%
%TF.SameCoordinates,Original*%
%TF.FileFunction,Other,Fab,Bot*%
%FSLAX46Y46*%
G04 Gerber Fmt 4.6, Leading zero omitted, Abs format (unit mm)*
G04 Created by KiCad (PCBNEW (5.1.9)-1) date 2021-06-07 11:13:51*
%MOMM*%
%LPD*%
G01*
G04 APERTURE LIST*
%ADD10C,0.100000*%
%ADD11C,0.150000*%
%ADD12C,0.060000*%
%ADD13C,0.080000*%
G04 APERTURE END LIST*
D10*
%TO.C,R9*%
X208318000Y-102774500D02*
X208318000Y-101949500D01*
X208318000Y-101949500D02*
X206718000Y-101949500D01*
X206718000Y-101949500D02*
X206718000Y-102774500D01*
X206718000Y-102774500D02*
X208318000Y-102774500D01*
%TO.C,J2*%
X186944000Y-83412000D02*
X188849000Y-83412000D01*
X188849000Y-83412000D02*
X189484000Y-82777000D01*
X189484000Y-82777000D02*
X189484000Y-75592000D01*
X189484000Y-75592000D02*
X186944000Y-75592000D01*
X186944000Y-75592000D02*
X186944000Y-83412000D01*
X189484000Y-82342000D02*
X190484000Y-82342000D01*
X190484000Y-82342000D02*
X190484000Y-81742000D01*
X190484000Y-81742000D02*
X189484000Y-81742000D01*
X185944000Y-79802000D02*
X186944000Y-79802000D01*
X186944000Y-79202000D02*
X185944000Y-79202000D01*
X185944000Y-79202000D02*
X185944000Y-79802000D01*
X189484000Y-77262000D02*
X190484000Y-77262000D01*
X190484000Y-77262000D02*
X190484000Y-76662000D01*
X190484000Y-76662000D02*
X189484000Y-76662000D01*
%TO.C,D7*%
X206983949Y-92429949D02*
X206630396Y-92076396D01*
X206701107Y-92712792D02*
X207408213Y-92854213D01*
X207266792Y-92147107D02*
X206701107Y-92712792D01*
X207408213Y-92854213D02*
X207266792Y-92147107D01*
X207408213Y-92854213D02*
X207019305Y-93243122D01*
X207408213Y-92854213D02*
X207797122Y-92465305D01*
X207691056Y-93137056D02*
X207408213Y-92854213D01*
X207514279Y-94233072D02*
X208787072Y-92960279D01*
X205534380Y-92253173D02*
X207514279Y-94233072D01*
X206807173Y-90980380D02*
X205534380Y-92253173D01*
X208787072Y-92960279D02*
X206807173Y-90980380D01*
%TO.C,D6*%
X207087223Y-95835223D02*
X206733670Y-95481670D01*
X206804381Y-96118066D02*
X207511487Y-96259487D01*
X207370066Y-95552381D02*
X206804381Y-96118066D01*
X207511487Y-96259487D02*
X207370066Y-95552381D01*
X207511487Y-96259487D02*
X207122579Y-96648396D01*
X207511487Y-96259487D02*
X207900396Y-95870579D01*
X207794330Y-96542330D02*
X207511487Y-96259487D01*
X207617553Y-97638346D02*
X208890346Y-96365553D01*
X205637654Y-95658447D02*
X207617553Y-97638346D01*
X206910447Y-94385654D02*
X205637654Y-95658447D01*
X208890346Y-96365553D02*
X206910447Y-94385654D01*
%TO.C,D5*%
X206833223Y-99137223D02*
X206479670Y-98783670D01*
X206550381Y-99420066D02*
X207257487Y-99561487D01*
X207116066Y-98854381D02*
X206550381Y-99420066D01*
X207257487Y-99561487D02*
X207116066Y-98854381D01*
X207257487Y-99561487D02*
X206868579Y-99950396D01*
X207257487Y-99561487D02*
X207646396Y-99172579D01*
X207540330Y-99844330D02*
X207257487Y-99561487D01*
X207363553Y-100940346D02*
X208636346Y-99667553D01*
X205383654Y-98960447D02*
X207363553Y-100940346D01*
X206656447Y-97687654D02*
X205383654Y-98960447D01*
X208636346Y-99667553D02*
X206656447Y-97687654D01*
%TO.C,D2*%
X207694777Y-89584777D02*
X208048330Y-89938330D01*
X207977619Y-89301934D02*
X207270513Y-89160513D01*
X207411934Y-89867619D02*
X207977619Y-89301934D01*
X207270513Y-89160513D02*
X207411934Y-89867619D01*
X207270513Y-89160513D02*
X207659421Y-88771604D01*
X207270513Y-89160513D02*
X206881604Y-89549421D01*
X206987670Y-88877670D02*
X207270513Y-89160513D01*
X207164447Y-87781654D02*
X205891654Y-89054447D01*
X209144346Y-89761553D02*
X207164447Y-87781654D01*
X207871553Y-91034346D02*
X209144346Y-89761553D01*
X205891654Y-89054447D02*
X207871553Y-91034346D01*
%TO.C,D3*%
X206018000Y-80812000D02*
X205018000Y-81812000D01*
X210018000Y-85812000D02*
X205018000Y-85812000D01*
X205018000Y-85812000D02*
X205018000Y-80812000D01*
X205018000Y-80812000D02*
X210018000Y-80812000D01*
X210018000Y-80812000D02*
X210018000Y-85812000D01*
X209518000Y-83312000D02*
G75*
G03*
X209518000Y-83312000I-2000000J0D01*
G01*
%TO.C,R4*%
X186960000Y-98775000D02*
X186960000Y-100025000D01*
X186960000Y-100025000D02*
X188960000Y-100025000D01*
X188960000Y-100025000D02*
X188960000Y-98775000D01*
X188960000Y-98775000D02*
X186960000Y-98775000D01*
%TO.C,RFM95*%
X188326000Y-98170000D02*
X203326000Y-98170000D01*
X203326000Y-82170000D02*
X203326000Y-98170000D01*
X187326000Y-82170000D02*
X203326000Y-82170000D01*
X187326000Y-82170000D02*
X187326000Y-97170000D01*
X188326000Y-98170000D02*
X187326000Y-97170000D01*
%TD*%
%TO.C,R9*%
D11*
X208208476Y-104244380D02*
X208779904Y-104244380D01*
X208494190Y-104244380D02*
X208494190Y-103244380D01*
X208589428Y-103387238D01*
X208684666Y-103482476D01*
X208779904Y-103530095D01*
X207589428Y-103244380D02*
X207494190Y-103244380D01*
X207398952Y-103292000D01*
X207351333Y-103339619D01*
X207303714Y-103434857D01*
X207256095Y-103625333D01*
X207256095Y-103863428D01*
X207303714Y-104053904D01*
X207351333Y-104149142D01*
X207398952Y-104196761D01*
X207494190Y-104244380D01*
X207589428Y-104244380D01*
X207684666Y-104196761D01*
X207732285Y-104149142D01*
X207779904Y-104053904D01*
X207827523Y-103863428D01*
X207827523Y-103625333D01*
X207779904Y-103434857D01*
X207732285Y-103339619D01*
X207684666Y-103292000D01*
X207589428Y-103244380D01*
X206827523Y-104244380D02*
X206827523Y-103244380D01*
X206256095Y-104244380D02*
X206684666Y-103672952D01*
X206256095Y-103244380D02*
X206827523Y-103815809D01*
D12*
X207584666Y-102542952D02*
X207718000Y-102352476D01*
X207813238Y-102542952D02*
X207813238Y-102142952D01*
X207660857Y-102142952D01*
X207622761Y-102162000D01*
X207603714Y-102181047D01*
X207584666Y-102219142D01*
X207584666Y-102276285D01*
X207603714Y-102314380D01*
X207622761Y-102333428D01*
X207660857Y-102352476D01*
X207813238Y-102352476D01*
X207394190Y-102542952D02*
X207318000Y-102542952D01*
X207279904Y-102523904D01*
X207260857Y-102504857D01*
X207222761Y-102447714D01*
X207203714Y-102371523D01*
X207203714Y-102219142D01*
X207222761Y-102181047D01*
X207241809Y-102162000D01*
X207279904Y-102142952D01*
X207356095Y-102142952D01*
X207394190Y-102162000D01*
X207413238Y-102181047D01*
X207432285Y-102219142D01*
X207432285Y-102314380D01*
X207413238Y-102352476D01*
X207394190Y-102371523D01*
X207356095Y-102390571D01*
X207279904Y-102390571D01*
X207241809Y-102371523D01*
X207222761Y-102352476D01*
X207203714Y-102314380D01*
%TO.C,J2*%
D11*
X194142571Y-74449142D02*
X194190190Y-74496761D01*
X194333047Y-74544380D01*
X194428285Y-74544380D01*
X194571142Y-74496761D01*
X194666380Y-74401523D01*
X194714000Y-74306285D01*
X194761619Y-74115809D01*
X194761619Y-73972952D01*
X194714000Y-73782476D01*
X194666380Y-73687238D01*
X194571142Y-73592000D01*
X194428285Y-73544380D01*
X194333047Y-73544380D01*
X194190190Y-73592000D01*
X194142571Y-73639619D01*
X193571142Y-74544380D02*
X193666380Y-74496761D01*
X193714000Y-74449142D01*
X193761619Y-74353904D01*
X193761619Y-74068190D01*
X193714000Y-73972952D01*
X193666380Y-73925333D01*
X193571142Y-73877714D01*
X193428285Y-73877714D01*
X193333047Y-73925333D01*
X193285428Y-73972952D01*
X193237809Y-74068190D01*
X193237809Y-74353904D01*
X193285428Y-74449142D01*
X193333047Y-74496761D01*
X193428285Y-74544380D01*
X193571142Y-74544380D01*
X192809238Y-73877714D02*
X192809238Y-74544380D01*
X192809238Y-73972952D02*
X192761619Y-73925333D01*
X192666380Y-73877714D01*
X192523523Y-73877714D01*
X192428285Y-73925333D01*
X192380666Y-74020571D01*
X192380666Y-74544380D01*
X191904476Y-73877714D02*
X191904476Y-74544380D01*
X191904476Y-73972952D02*
X191856857Y-73925333D01*
X191761619Y-73877714D01*
X191618761Y-73877714D01*
X191523523Y-73925333D01*
X191475904Y-74020571D01*
X191475904Y-74544380D01*
X191237809Y-74639619D02*
X190475904Y-74639619D01*
X190047333Y-73544380D02*
X189952095Y-73544380D01*
X189856857Y-73592000D01*
X189809238Y-73639619D01*
X189761619Y-73734857D01*
X189714000Y-73925333D01*
X189714000Y-74163428D01*
X189761619Y-74353904D01*
X189809238Y-74449142D01*
X189856857Y-74496761D01*
X189952095Y-74544380D01*
X190047333Y-74544380D01*
X190142571Y-74496761D01*
X190190190Y-74449142D01*
X190237809Y-74353904D01*
X190285428Y-74163428D01*
X190285428Y-73925333D01*
X190237809Y-73734857D01*
X190190190Y-73639619D01*
X190142571Y-73592000D01*
X190047333Y-73544380D01*
X188761619Y-74544380D02*
X189333047Y-74544380D01*
X189047333Y-74544380D02*
X189047333Y-73544380D01*
X189142571Y-73687238D01*
X189237809Y-73782476D01*
X189333047Y-73830095D01*
X188428285Y-74544380D02*
X187904476Y-73877714D01*
X188428285Y-73877714D02*
X187904476Y-74544380D01*
X187333047Y-73544380D02*
X187237809Y-73544380D01*
X187142571Y-73592000D01*
X187094952Y-73639619D01*
X187047333Y-73734857D01*
X186999714Y-73925333D01*
X186999714Y-74163428D01*
X187047333Y-74353904D01*
X187094952Y-74449142D01*
X187142571Y-74496761D01*
X187237809Y-74544380D01*
X187333047Y-74544380D01*
X187428285Y-74496761D01*
X187475904Y-74449142D01*
X187523523Y-74353904D01*
X187571142Y-74163428D01*
X187571142Y-73925333D01*
X187523523Y-73734857D01*
X187475904Y-73639619D01*
X187428285Y-73592000D01*
X187333047Y-73544380D01*
X186666380Y-73544380D02*
X186047333Y-73544380D01*
X186380666Y-73925333D01*
X186237809Y-73925333D01*
X186142571Y-73972952D01*
X186094952Y-74020571D01*
X186047333Y-74115809D01*
X186047333Y-74353904D01*
X186094952Y-74449142D01*
X186142571Y-74496761D01*
X186237809Y-74544380D01*
X186523523Y-74544380D01*
X186618761Y-74496761D01*
X186666380Y-74449142D01*
X185856857Y-74639619D02*
X185094952Y-74639619D01*
X184856857Y-74544380D02*
X184856857Y-73877714D01*
X184856857Y-73972952D02*
X184809238Y-73925333D01*
X184714000Y-73877714D01*
X184571142Y-73877714D01*
X184475904Y-73925333D01*
X184428285Y-74020571D01*
X184428285Y-74544380D01*
X184428285Y-74020571D02*
X184380666Y-73925333D01*
X184285428Y-73877714D01*
X184142571Y-73877714D01*
X184047333Y-73925333D01*
X183999714Y-74020571D01*
X183999714Y-74544380D01*
X183094952Y-74544380D02*
X183094952Y-74020571D01*
X183142571Y-73925333D01*
X183237809Y-73877714D01*
X183428285Y-73877714D01*
X183523523Y-73925333D01*
X183094952Y-74496761D02*
X183190190Y-74544380D01*
X183428285Y-74544380D01*
X183523523Y-74496761D01*
X183571142Y-74401523D01*
X183571142Y-74306285D01*
X183523523Y-74211047D01*
X183428285Y-74163428D01*
X183190190Y-74163428D01*
X183094952Y-74115809D01*
X182475904Y-74544380D02*
X182571142Y-74496761D01*
X182618761Y-74401523D01*
X182618761Y-73544380D01*
X181714000Y-74496761D02*
X181809238Y-74544380D01*
X181999714Y-74544380D01*
X182094952Y-74496761D01*
X182142571Y-74401523D01*
X182142571Y-74020571D01*
X182094952Y-73925333D01*
X181999714Y-73877714D01*
X181809238Y-73877714D01*
X181714000Y-73925333D01*
X181666380Y-74020571D01*
X181666380Y-74115809D01*
X182142571Y-74211047D01*
X187666380Y-79168666D02*
X188380666Y-79168666D01*
X188523523Y-79121047D01*
X188618761Y-79025809D01*
X188666380Y-78882952D01*
X188666380Y-78787714D01*
X187761619Y-79597238D02*
X187714000Y-79644857D01*
X187666380Y-79740095D01*
X187666380Y-79978190D01*
X187714000Y-80073428D01*
X187761619Y-80121047D01*
X187856857Y-80168666D01*
X187952095Y-80168666D01*
X188094952Y-80121047D01*
X188666380Y-79549619D01*
X188666380Y-80168666D01*
%TO.C,D7*%
X206753298Y-95808909D02*
X207460404Y-95101802D01*
X207292046Y-94933443D01*
X207157359Y-94866100D01*
X207022672Y-94866100D01*
X206921656Y-94899772D01*
X206753298Y-95000787D01*
X206652282Y-95101802D01*
X206551267Y-95270161D01*
X206517595Y-95371176D01*
X206517595Y-95505863D01*
X206584939Y-95640550D01*
X206753298Y-95808909D01*
X206046191Y-95101802D02*
X206753298Y-94394695D01*
X206281893Y-93923291D02*
X206147206Y-93788604D01*
X206046191Y-93754932D01*
X205911504Y-93754932D01*
X205743145Y-93855947D01*
X205507443Y-94091650D01*
X205406427Y-94260008D01*
X205406427Y-94394695D01*
X205440099Y-94495711D01*
X205574786Y-94630398D01*
X205675802Y-94664069D01*
X205810489Y-94664069D01*
X205978847Y-94563054D01*
X206214550Y-94327352D01*
X206315565Y-94158993D01*
X206315565Y-94024306D01*
X206281893Y-93923291D01*
X204968695Y-94024306D02*
X205675802Y-93317199D01*
X205507443Y-93148840D01*
X205372756Y-93081497D01*
X205238069Y-93081497D01*
X205137053Y-93115169D01*
X204968695Y-93216184D01*
X204867679Y-93317199D01*
X204766664Y-93485558D01*
X204732992Y-93586573D01*
X204732992Y-93721260D01*
X204800336Y-93855947D01*
X204968695Y-94024306D01*
X204631977Y-92946810D02*
X204396275Y-92711108D01*
X203924870Y-92980482D02*
X204261588Y-93317199D01*
X204968695Y-92610092D01*
X204631977Y-92273375D01*
X208776970Y-92034305D02*
X209484077Y-91327199D01*
X209315718Y-91158840D01*
X209181031Y-91091496D01*
X209046344Y-91091496D01*
X208945329Y-91125168D01*
X208776970Y-91226183D01*
X208675955Y-91327199D01*
X208574940Y-91495557D01*
X208541268Y-91596573D01*
X208541268Y-91731260D01*
X208608611Y-91865947D01*
X208776970Y-92034305D01*
X208844314Y-90687435D02*
X208372909Y-90216031D01*
X207968848Y-91226183D01*
%TO.C,D6*%
X206856572Y-99214183D02*
X207563678Y-98507076D01*
X207395320Y-98338717D01*
X207260633Y-98271374D01*
X207125946Y-98271374D01*
X207024930Y-98305046D01*
X206856572Y-98406061D01*
X206755556Y-98507076D01*
X206654541Y-98675435D01*
X206620869Y-98776450D01*
X206620869Y-98911137D01*
X206688213Y-99045824D01*
X206856572Y-99214183D01*
X206149465Y-98507076D02*
X206856572Y-97799969D01*
X206385167Y-97328565D02*
X206250480Y-97193878D01*
X206149465Y-97160206D01*
X206014778Y-97160206D01*
X205846419Y-97261221D01*
X205610717Y-97496924D01*
X205509701Y-97665282D01*
X205509701Y-97799969D01*
X205543373Y-97900985D01*
X205678060Y-98035672D01*
X205779076Y-98069343D01*
X205913763Y-98069343D01*
X206082121Y-97968328D01*
X206317824Y-97732626D01*
X206418839Y-97564267D01*
X206418839Y-97429580D01*
X206385167Y-97328565D01*
X205071969Y-97429580D02*
X205779076Y-96722473D01*
X205610717Y-96554114D01*
X205476030Y-96486771D01*
X205341343Y-96486771D01*
X205240327Y-96520443D01*
X205071969Y-96621458D01*
X204970953Y-96722473D01*
X204869938Y-96890832D01*
X204836266Y-96991847D01*
X204836266Y-97126534D01*
X204903610Y-97261221D01*
X205071969Y-97429580D01*
X204735251Y-96352084D02*
X204499549Y-96116382D01*
X204028144Y-96385756D02*
X204364862Y-96722473D01*
X205071969Y-96015366D01*
X204735251Y-95678649D01*
X208880244Y-95439579D02*
X209587351Y-94732473D01*
X209418992Y-94564114D01*
X209284305Y-94496770D01*
X209149618Y-94496770D01*
X209048603Y-94530442D01*
X208880244Y-94631457D01*
X208779229Y-94732473D01*
X208678214Y-94900831D01*
X208644542Y-95001847D01*
X208644542Y-95136534D01*
X208711885Y-95271221D01*
X208880244Y-95439579D01*
X208577198Y-93722320D02*
X208711885Y-93857007D01*
X208745557Y-93958022D01*
X208745557Y-94025366D01*
X208711885Y-94193724D01*
X208610870Y-94362083D01*
X208341496Y-94631457D01*
X208240481Y-94665129D01*
X208173137Y-94665129D01*
X208072122Y-94631457D01*
X207937435Y-94496770D01*
X207903763Y-94395755D01*
X207903763Y-94328411D01*
X207937435Y-94227396D01*
X208105794Y-94059037D01*
X208206809Y-94025366D01*
X208274152Y-94025366D01*
X208375168Y-94059037D01*
X208509855Y-94193724D01*
X208543526Y-94294740D01*
X208543526Y-94362083D01*
X208509855Y-94463098D01*
%TO.C,D5*%
X206602572Y-102516183D02*
X207309678Y-101809076D01*
X207141320Y-101640717D01*
X207006633Y-101573374D01*
X206871946Y-101573374D01*
X206770930Y-101607046D01*
X206602572Y-101708061D01*
X206501556Y-101809076D01*
X206400541Y-101977435D01*
X206366869Y-102078450D01*
X206366869Y-102213137D01*
X206434213Y-102347824D01*
X206602572Y-102516183D01*
X205895465Y-101809076D02*
X206602572Y-101101969D01*
X206131167Y-100630565D02*
X205996480Y-100495878D01*
X205895465Y-100462206D01*
X205760778Y-100462206D01*
X205592419Y-100563221D01*
X205356717Y-100798924D01*
X205255701Y-100967282D01*
X205255701Y-101101969D01*
X205289373Y-101202985D01*
X205424060Y-101337672D01*
X205525076Y-101371343D01*
X205659763Y-101371343D01*
X205828121Y-101270328D01*
X206063824Y-101034626D01*
X206164839Y-100866267D01*
X206164839Y-100731580D01*
X206131167Y-100630565D01*
X204817969Y-100731580D02*
X205525076Y-100024473D01*
X205356717Y-99856114D01*
X205222030Y-99788771D01*
X205087343Y-99788771D01*
X204986327Y-99822443D01*
X204817969Y-99923458D01*
X204716953Y-100024473D01*
X204615938Y-100192832D01*
X204582266Y-100293847D01*
X204582266Y-100428534D01*
X204649610Y-100563221D01*
X204817969Y-100731580D01*
X204481251Y-99654084D02*
X204245549Y-99418382D01*
X203774144Y-99687756D02*
X204110862Y-100024473D01*
X204817969Y-99317366D01*
X204481251Y-98980649D01*
X208626244Y-98741579D02*
X209333351Y-98034473D01*
X209164992Y-97866114D01*
X209030305Y-97798770D01*
X208895618Y-97798770D01*
X208794603Y-97832442D01*
X208626244Y-97933457D01*
X208525229Y-98034473D01*
X208424214Y-98202831D01*
X208390542Y-98303847D01*
X208390542Y-98438534D01*
X208457885Y-98573221D01*
X208626244Y-98741579D01*
X208289526Y-96990648D02*
X208626244Y-97327366D01*
X208323198Y-97697755D01*
X208323198Y-97630411D01*
X208289526Y-97529396D01*
X208121168Y-97361037D01*
X208020152Y-97327366D01*
X207952809Y-97327366D01*
X207851794Y-97361037D01*
X207683435Y-97529396D01*
X207649763Y-97630411D01*
X207649763Y-97697755D01*
X207683435Y-97798770D01*
X207851794Y-97967129D01*
X207952809Y-98000801D01*
X208020152Y-98000801D01*
%TO.C,D2*%
X210080420Y-89640335D02*
X210787526Y-88933228D01*
X210619168Y-88764869D01*
X210484481Y-88697526D01*
X210349794Y-88697526D01*
X210248778Y-88731198D01*
X210080420Y-88832213D01*
X209979404Y-88933228D01*
X209878389Y-89101587D01*
X209844717Y-89202602D01*
X209844717Y-89337289D01*
X209912061Y-89471976D01*
X210080420Y-89640335D01*
X209373313Y-88933228D02*
X210080420Y-88226121D01*
X209609015Y-87754717D02*
X209474328Y-87620030D01*
X209373313Y-87586358D01*
X209238626Y-87586358D01*
X209070267Y-87687373D01*
X208834565Y-87923076D01*
X208733549Y-88091434D01*
X208733549Y-88226121D01*
X208767221Y-88327137D01*
X208901908Y-88461824D01*
X209002924Y-88495495D01*
X209137611Y-88495495D01*
X209305969Y-88394480D01*
X209541672Y-88158778D01*
X209642687Y-87990419D01*
X209642687Y-87855732D01*
X209609015Y-87754717D01*
X208295817Y-87855732D02*
X209002924Y-87148625D01*
X208834565Y-86980266D01*
X208699878Y-86912923D01*
X208565191Y-86912923D01*
X208464175Y-86946595D01*
X208295817Y-87047610D01*
X208194801Y-87148625D01*
X208093786Y-87316984D01*
X208060114Y-87417999D01*
X208060114Y-87552686D01*
X208127458Y-87687373D01*
X208295817Y-87855732D01*
X207959099Y-86778236D02*
X207723397Y-86542534D01*
X207251992Y-86811908D02*
X207588710Y-87148625D01*
X208295817Y-86441518D01*
X207959099Y-86104801D01*
X206305816Y-91664007D02*
X207012923Y-90956901D01*
X206844564Y-90788542D01*
X206709877Y-90721198D01*
X206575190Y-90721198D01*
X206474175Y-90754870D01*
X206305816Y-90855885D01*
X206204801Y-90956901D01*
X206103786Y-91125259D01*
X206070114Y-91226275D01*
X206070114Y-91360962D01*
X206137457Y-91495649D01*
X206305816Y-91664007D01*
X206272144Y-90350809D02*
X206272144Y-90283465D01*
X206238473Y-90182450D01*
X206070114Y-90014091D01*
X205969098Y-89980420D01*
X205901755Y-89980420D01*
X205800740Y-90014091D01*
X205733396Y-90081435D01*
X205666053Y-90216122D01*
X205666053Y-91024244D01*
X205228320Y-90586511D01*
%TO.C,D3*%
X202970380Y-80002476D02*
X203970380Y-80240571D01*
X203256095Y-80431047D01*
X203970380Y-80621523D01*
X202970380Y-80859619D01*
X203922761Y-81192952D02*
X203970380Y-81335809D01*
X203970380Y-81573904D01*
X203922761Y-81669142D01*
X203875142Y-81716761D01*
X203779904Y-81764380D01*
X203684666Y-81764380D01*
X203589428Y-81716761D01*
X203541809Y-81669142D01*
X203494190Y-81573904D01*
X203446571Y-81383428D01*
X203398952Y-81288190D01*
X203351333Y-81240571D01*
X203256095Y-81192952D01*
X203160857Y-81192952D01*
X203065619Y-81240571D01*
X203018000Y-81288190D01*
X202970380Y-81383428D01*
X202970380Y-81621523D01*
X203018000Y-81764380D01*
X203065619Y-82145333D02*
X203018000Y-82192952D01*
X202970380Y-82288190D01*
X202970380Y-82526285D01*
X203018000Y-82621523D01*
X203065619Y-82669142D01*
X203160857Y-82716761D01*
X203256095Y-82716761D01*
X203398952Y-82669142D01*
X203970380Y-82097714D01*
X203970380Y-82716761D01*
X203398952Y-83288190D02*
X203351333Y-83192952D01*
X203303714Y-83145333D01*
X203208476Y-83097714D01*
X203160857Y-83097714D01*
X203065619Y-83145333D01*
X203018000Y-83192952D01*
X202970380Y-83288190D01*
X202970380Y-83478666D01*
X203018000Y-83573904D01*
X203065619Y-83621523D01*
X203160857Y-83669142D01*
X203208476Y-83669142D01*
X203303714Y-83621523D01*
X203351333Y-83573904D01*
X203398952Y-83478666D01*
X203398952Y-83288190D01*
X203446571Y-83192952D01*
X203494190Y-83145333D01*
X203589428Y-83097714D01*
X203779904Y-83097714D01*
X203875142Y-83145333D01*
X203922761Y-83192952D01*
X203970380Y-83288190D01*
X203970380Y-83478666D01*
X203922761Y-83573904D01*
X203875142Y-83621523D01*
X203779904Y-83669142D01*
X203589428Y-83669142D01*
X203494190Y-83621523D01*
X203446571Y-83573904D01*
X203398952Y-83478666D01*
X203970380Y-84621523D02*
X203970380Y-84050095D01*
X203970380Y-84335809D02*
X202970380Y-84335809D01*
X203113238Y-84240571D01*
X203208476Y-84145333D01*
X203256095Y-84050095D01*
X203065619Y-85002476D02*
X203018000Y-85050095D01*
X202970380Y-85145333D01*
X202970380Y-85383428D01*
X203018000Y-85478666D01*
X203065619Y-85526285D01*
X203160857Y-85573904D01*
X203256095Y-85573904D01*
X203398952Y-85526285D01*
X203970380Y-84954857D01*
X203970380Y-85573904D01*
X203446571Y-86335809D02*
X203494190Y-86478666D01*
X203541809Y-86526285D01*
X203637047Y-86573904D01*
X203779904Y-86573904D01*
X203875142Y-86526285D01*
X203922761Y-86478666D01*
X203970380Y-86383428D01*
X203970380Y-86002476D01*
X202970380Y-86002476D01*
X202970380Y-86335809D01*
X203018000Y-86431047D01*
X203065619Y-86478666D01*
X203160857Y-86526285D01*
X203256095Y-86526285D01*
X203351333Y-86478666D01*
X203398952Y-86431047D01*
X203446571Y-86335809D01*
X203446571Y-86002476D01*
X207879904Y-82721523D02*
X207079904Y-82721523D01*
X207079904Y-82912000D01*
X207118000Y-83026285D01*
X207194190Y-83102476D01*
X207270380Y-83140571D01*
X207422761Y-83178666D01*
X207537047Y-83178666D01*
X207689428Y-83140571D01*
X207765619Y-83102476D01*
X207841809Y-83026285D01*
X207879904Y-82912000D01*
X207879904Y-82721523D01*
X207079904Y-83445333D02*
X207079904Y-83940571D01*
X207384666Y-83673904D01*
X207384666Y-83788190D01*
X207422761Y-83864380D01*
X207460857Y-83902476D01*
X207537047Y-83940571D01*
X207727523Y-83940571D01*
X207803714Y-83902476D01*
X207841809Y-83864380D01*
X207879904Y-83788190D01*
X207879904Y-83559619D01*
X207841809Y-83483428D01*
X207803714Y-83445333D01*
%TO.C,R4*%
X188507619Y-97202380D02*
X188412380Y-97202380D01*
X188317142Y-97250000D01*
X188269523Y-97297619D01*
X188221904Y-97392857D01*
X188174285Y-97583333D01*
X188174285Y-97821428D01*
X188221904Y-98011904D01*
X188269523Y-98107142D01*
X188317142Y-98154761D01*
X188412380Y-98202380D01*
X188507619Y-98202380D01*
X188602857Y-98154761D01*
X188650476Y-98107142D01*
X188698095Y-98011904D01*
X188745714Y-97821428D01*
X188745714Y-97583333D01*
X188698095Y-97392857D01*
X188650476Y-97297619D01*
X188602857Y-97250000D01*
X188507619Y-97202380D01*
X187174285Y-98202380D02*
X187507619Y-97726190D01*
X187745714Y-98202380D02*
X187745714Y-97202380D01*
X187364761Y-97202380D01*
X187269523Y-97250000D01*
X187221904Y-97297619D01*
X187174285Y-97392857D01*
X187174285Y-97535714D01*
X187221904Y-97630952D01*
X187269523Y-97678571D01*
X187364761Y-97726190D01*
X187745714Y-97726190D01*
D13*
X188043333Y-99626190D02*
X188210000Y-99388095D01*
X188329047Y-99626190D02*
X188329047Y-99126190D01*
X188138571Y-99126190D01*
X188090952Y-99150000D01*
X188067142Y-99173809D01*
X188043333Y-99221428D01*
X188043333Y-99292857D01*
X188067142Y-99340476D01*
X188090952Y-99364285D01*
X188138571Y-99388095D01*
X188329047Y-99388095D01*
X187614761Y-99292857D02*
X187614761Y-99626190D01*
X187733809Y-99102380D02*
X187852857Y-99459523D01*
X187543333Y-99459523D01*
%TO.C,RFM95*%
D11*
X200540285Y-81122380D02*
X200873619Y-80646190D01*
X201111714Y-81122380D02*
X201111714Y-80122380D01*
X200730761Y-80122380D01*
X200635523Y-80170000D01*
X200587904Y-80217619D01*
X200540285Y-80312857D01*
X200540285Y-80455714D01*
X200587904Y-80550952D01*
X200635523Y-80598571D01*
X200730761Y-80646190D01*
X201111714Y-80646190D01*
X199778380Y-80598571D02*
X200111714Y-80598571D01*
X200111714Y-81122380D02*
X200111714Y-80122380D01*
X199635523Y-80122380D01*
X199254571Y-81122380D02*
X199254571Y-80122380D01*
X198921238Y-80836666D01*
X198587904Y-80122380D01*
X198587904Y-81122380D01*
X198064095Y-81122380D02*
X197873619Y-81122380D01*
X197778380Y-81074761D01*
X197730761Y-81027142D01*
X197635523Y-80884285D01*
X197587904Y-80693809D01*
X197587904Y-80312857D01*
X197635523Y-80217619D01*
X197683142Y-80170000D01*
X197778380Y-80122380D01*
X197968857Y-80122380D01*
X198064095Y-80170000D01*
X198111714Y-80217619D01*
X198159333Y-80312857D01*
X198159333Y-80550952D01*
X198111714Y-80646190D01*
X198064095Y-80693809D01*
X197968857Y-80741428D01*
X197778380Y-80741428D01*
X197683142Y-80693809D01*
X197635523Y-80646190D01*
X197587904Y-80550952D01*
X196683142Y-80122380D02*
X197159333Y-80122380D01*
X197206952Y-80598571D01*
X197159333Y-80550952D01*
X197064095Y-80503333D01*
X196826000Y-80503333D01*
X196730761Y-80550952D01*
X196683142Y-80598571D01*
X196635523Y-80693809D01*
X196635523Y-80931904D01*
X196683142Y-81027142D01*
X196730761Y-81074761D01*
X196826000Y-81122380D01*
X197064095Y-81122380D01*
X197159333Y-81074761D01*
X197206952Y-81027142D01*
X196302190Y-80122380D02*
X196064095Y-81122380D01*
X195873619Y-80408095D01*
X195683142Y-81122380D01*
X195445047Y-80122380D01*
X195064095Y-80741428D02*
X194302190Y-80741428D01*
X193683142Y-80550952D02*
X193778380Y-80503333D01*
X193826000Y-80455714D01*
X193873619Y-80360476D01*
X193873619Y-80312857D01*
X193826000Y-80217619D01*
X193778380Y-80170000D01*
X193683142Y-80122380D01*
X193492666Y-80122380D01*
X193397428Y-80170000D01*
X193349809Y-80217619D01*
X193302190Y-80312857D01*
X193302190Y-80360476D01*
X193349809Y-80455714D01*
X193397428Y-80503333D01*
X193492666Y-80550952D01*
X193683142Y-80550952D01*
X193778380Y-80598571D01*
X193826000Y-80646190D01*
X193873619Y-80741428D01*
X193873619Y-80931904D01*
X193826000Y-81027142D01*
X193778380Y-81074761D01*
X193683142Y-81122380D01*
X193492666Y-81122380D01*
X193397428Y-81074761D01*
X193349809Y-81027142D01*
X193302190Y-80931904D01*
X193302190Y-80741428D01*
X193349809Y-80646190D01*
X193397428Y-80598571D01*
X193492666Y-80550952D01*
X192445047Y-80122380D02*
X192635523Y-80122380D01*
X192730761Y-80170000D01*
X192778380Y-80217619D01*
X192873619Y-80360476D01*
X192921238Y-80550952D01*
X192921238Y-80931904D01*
X192873619Y-81027142D01*
X192826000Y-81074761D01*
X192730761Y-81122380D01*
X192540285Y-81122380D01*
X192445047Y-81074761D01*
X192397428Y-81027142D01*
X192349809Y-80931904D01*
X192349809Y-80693809D01*
X192397428Y-80598571D01*
X192445047Y-80550952D01*
X192540285Y-80503333D01*
X192730761Y-80503333D01*
X192826000Y-80550952D01*
X192873619Y-80598571D01*
X192921238Y-80693809D01*
X191778380Y-80550952D02*
X191873619Y-80503333D01*
X191921238Y-80455714D01*
X191968857Y-80360476D01*
X191968857Y-80312857D01*
X191921238Y-80217619D01*
X191873619Y-80170000D01*
X191778380Y-80122380D01*
X191587904Y-80122380D01*
X191492666Y-80170000D01*
X191445047Y-80217619D01*
X191397428Y-80312857D01*
X191397428Y-80360476D01*
X191445047Y-80455714D01*
X191492666Y-80503333D01*
X191587904Y-80550952D01*
X191778380Y-80550952D01*
X191873619Y-80598571D01*
X191921238Y-80646190D01*
X191968857Y-80741428D01*
X191968857Y-80931904D01*
X191921238Y-81027142D01*
X191873619Y-81074761D01*
X191778380Y-81122380D01*
X191587904Y-81122380D01*
X191492666Y-81074761D01*
X191445047Y-81027142D01*
X191397428Y-80931904D01*
X191397428Y-80741428D01*
X191445047Y-80646190D01*
X191492666Y-80598571D01*
X191587904Y-80550952D01*
X191016476Y-81074761D02*
X190873619Y-81122380D01*
X190635523Y-81122380D01*
X190540285Y-81074761D01*
X190492666Y-81027142D01*
X190445047Y-80931904D01*
X190445047Y-80836666D01*
X190492666Y-80741428D01*
X190540285Y-80693809D01*
X190635523Y-80646190D01*
X190826000Y-80598571D01*
X190921238Y-80550952D01*
X190968857Y-80503333D01*
X191016476Y-80408095D01*
X191016476Y-80312857D01*
X190968857Y-80217619D01*
X190921238Y-80170000D01*
X190826000Y-80122380D01*
X190587904Y-80122380D01*
X190445047Y-80170000D01*
X190064095Y-80217619D02*
X190016476Y-80170000D01*
X189921238Y-80122380D01*
X189683142Y-80122380D01*
X189587904Y-80170000D01*
X189540285Y-80217619D01*
X189492666Y-80312857D01*
X189492666Y-80408095D01*
X189540285Y-80550952D01*
X190111714Y-81122380D01*
X189492666Y-81122380D01*
X196968857Y-90622380D02*
X197302190Y-90146190D01*
X197540285Y-90622380D02*
X197540285Y-89622380D01*
X197159333Y-89622380D01*
X197064095Y-89670000D01*
X197016476Y-89717619D01*
X196968857Y-89812857D01*
X196968857Y-89955714D01*
X197016476Y-90050952D01*
X197064095Y-90098571D01*
X197159333Y-90146190D01*
X197540285Y-90146190D01*
X196206952Y-90098571D02*
X196540285Y-90098571D01*
X196540285Y-90622380D02*
X196540285Y-89622380D01*
X196064095Y-89622380D01*
X195683142Y-90622380D02*
X195683142Y-89622380D01*
X195349809Y-90336666D01*
X195016476Y-89622380D01*
X195016476Y-90622380D01*
X194492666Y-90622380D02*
X194302190Y-90622380D01*
X194206952Y-90574761D01*
X194159333Y-90527142D01*
X194064095Y-90384285D01*
X194016476Y-90193809D01*
X194016476Y-89812857D01*
X194064095Y-89717619D01*
X194111714Y-89670000D01*
X194206952Y-89622380D01*
X194397428Y-89622380D01*
X194492666Y-89670000D01*
X194540285Y-89717619D01*
X194587904Y-89812857D01*
X194587904Y-90050952D01*
X194540285Y-90146190D01*
X194492666Y-90193809D01*
X194397428Y-90241428D01*
X194206952Y-90241428D01*
X194111714Y-90193809D01*
X194064095Y-90146190D01*
X194016476Y-90050952D01*
X193111714Y-89622380D02*
X193587904Y-89622380D01*
X193635523Y-90098571D01*
X193587904Y-90050952D01*
X193492666Y-90003333D01*
X193254571Y-90003333D01*
X193159333Y-90050952D01*
X193111714Y-90098571D01*
X193064095Y-90193809D01*
X193064095Y-90431904D01*
X193111714Y-90527142D01*
X193159333Y-90574761D01*
X193254571Y-90622380D01*
X193492666Y-90622380D01*
X193587904Y-90574761D01*
X193635523Y-90527142D01*
%TD*%
M02*
