%TF.GenerationSoftware,KiCad,Pcbnew,(5.1.9)-1*%
%TF.CreationDate,2021-06-07T11:13:51+02:00*%
%TF.ProjectId,esp32PicoD4,65737033-3250-4696-936f-44342e6b6963,rev?*%
%TF.SameCoordinates,Original*%
%TF.FileFunction,Legend,Top*%
%TF.FilePolarity,Positive*%
%FSLAX46Y46*%
G04 Gerber Fmt 4.6, Leading zero omitted, Abs format (unit mm)*
G04 Created by KiCad (PCBNEW (5.1.9)-1) date 2021-06-07 11:13:51*
%MOMM*%
%LPD*%
G01*
G04 APERTURE LIST*
%ADD10C,0.300000*%
%ADD11C,0.150000*%
%ADD12C,0.120000*%
G04 APERTURE END LIST*
D10*
X185356571Y-102977142D02*
X186499428Y-102977142D01*
X206438571Y-78085142D02*
X207581428Y-78085142D01*
X207010000Y-78656571D02*
X207010000Y-77513714D01*
X206946571Y-94341142D02*
X208089428Y-94341142D01*
X207518000Y-94912571D02*
X207518000Y-93769714D01*
D11*
X202731714Y-100084000D02*
X202636476Y-100036380D01*
X202493619Y-100036380D01*
X202350761Y-100084000D01*
X202255523Y-100179238D01*
X202207904Y-100274476D01*
X202160285Y-100464952D01*
X202160285Y-100607809D01*
X202207904Y-100798285D01*
X202255523Y-100893523D01*
X202350761Y-100988761D01*
X202493619Y-101036380D01*
X202588857Y-101036380D01*
X202731714Y-100988761D01*
X202779333Y-100941142D01*
X202779333Y-100607809D01*
X202588857Y-100607809D01*
X203398380Y-100036380D02*
X203493619Y-100036380D01*
X203588857Y-100084000D01*
X203636476Y-100131619D01*
X203684095Y-100226857D01*
X203731714Y-100417333D01*
X203731714Y-100655428D01*
X203684095Y-100845904D01*
X203636476Y-100941142D01*
X203588857Y-100988761D01*
X203493619Y-101036380D01*
X203398380Y-101036380D01*
X203303142Y-100988761D01*
X203255523Y-100941142D01*
X203207904Y-100845904D01*
X203160285Y-100655428D01*
X203160285Y-100417333D01*
X203207904Y-100226857D01*
X203255523Y-100131619D01*
X203303142Y-100084000D01*
X203398380Y-100036380D01*
X200025047Y-101036380D02*
X199691714Y-100560190D01*
X199453619Y-101036380D02*
X199453619Y-100036380D01*
X199834571Y-100036380D01*
X199929809Y-100084000D01*
X199977428Y-100131619D01*
X200025047Y-100226857D01*
X200025047Y-100369714D01*
X199977428Y-100464952D01*
X199929809Y-100512571D01*
X199834571Y-100560190D01*
X199453619Y-100560190D01*
X200406000Y-100988761D02*
X200501238Y-101036380D01*
X200691714Y-101036380D01*
X200786952Y-100988761D01*
X200834571Y-100893523D01*
X200834571Y-100845904D01*
X200786952Y-100750666D01*
X200691714Y-100703047D01*
X200548857Y-100703047D01*
X200453619Y-100655428D01*
X200406000Y-100560190D01*
X200406000Y-100512571D01*
X200453619Y-100417333D01*
X200548857Y-100369714D01*
X200691714Y-100369714D01*
X200786952Y-100417333D01*
X201120285Y-100369714D02*
X201501238Y-100369714D01*
X201263142Y-100036380D02*
X201263142Y-100893523D01*
X201310761Y-100988761D01*
X201406000Y-101036380D01*
X201501238Y-101036380D01*
X197516761Y-101036380D02*
X197183428Y-100560190D01*
X196945333Y-101036380D02*
X196945333Y-100036380D01*
X197326285Y-100036380D01*
X197421523Y-100084000D01*
X197469142Y-100131619D01*
X197516761Y-100226857D01*
X197516761Y-100369714D01*
X197469142Y-100464952D01*
X197421523Y-100512571D01*
X197326285Y-100560190D01*
X196945333Y-100560190D01*
X197850095Y-101036380D02*
X198373904Y-100369714D01*
X197850095Y-100369714D02*
X198373904Y-101036380D01*
X193619523Y-100036380D02*
X194190952Y-100036380D01*
X193905238Y-101036380D02*
X193905238Y-100036380D01*
X194429047Y-101036380D02*
X194952857Y-100369714D01*
X194429047Y-100369714D02*
X194952857Y-101036380D01*
X206263904Y-100084000D02*
X206168666Y-100036380D01*
X206025809Y-100036380D01*
X205882952Y-100084000D01*
X205787714Y-100179238D01*
X205740095Y-100274476D01*
X205692476Y-100464952D01*
X205692476Y-100607809D01*
X205740095Y-100798285D01*
X205787714Y-100893523D01*
X205882952Y-100988761D01*
X206025809Y-101036380D01*
X206121047Y-101036380D01*
X206263904Y-100988761D01*
X206311523Y-100941142D01*
X206311523Y-100607809D01*
X206121047Y-100607809D01*
X206740095Y-101036380D02*
X206740095Y-100036380D01*
X206978190Y-100036380D01*
X207121047Y-100084000D01*
X207216285Y-100179238D01*
X207263904Y-100274476D01*
X207311523Y-100464952D01*
X207311523Y-100607809D01*
X207263904Y-100798285D01*
X207216285Y-100893523D01*
X207121047Y-100988761D01*
X206978190Y-101036380D01*
X206740095Y-101036380D01*
X189039619Y-100290380D02*
X189372952Y-101290380D01*
X189706285Y-100290380D01*
X190039619Y-100909428D02*
X190801523Y-100909428D01*
X190420571Y-101290380D02*
X190420571Y-100528476D01*
X187960095Y-94956380D02*
X188579142Y-94956380D01*
X188245809Y-95337333D01*
X188388666Y-95337333D01*
X188483904Y-95384952D01*
X188531523Y-95432571D01*
X188579142Y-95527809D01*
X188579142Y-95765904D01*
X188531523Y-95861142D01*
X188483904Y-95908761D01*
X188388666Y-95956380D01*
X188102952Y-95956380D01*
X188007714Y-95908761D01*
X187960095Y-95861142D01*
X188864857Y-94956380D02*
X189198190Y-95956380D01*
X189531523Y-94956380D01*
X187975904Y-92464000D02*
X187880666Y-92416380D01*
X187737809Y-92416380D01*
X187594952Y-92464000D01*
X187499714Y-92559238D01*
X187452095Y-92654476D01*
X187404476Y-92844952D01*
X187404476Y-92987809D01*
X187452095Y-93178285D01*
X187499714Y-93273523D01*
X187594952Y-93368761D01*
X187737809Y-93416380D01*
X187833047Y-93416380D01*
X187975904Y-93368761D01*
X188023523Y-93321142D01*
X188023523Y-92987809D01*
X187833047Y-92987809D01*
X188452095Y-93416380D02*
X188452095Y-92416380D01*
X188690190Y-92416380D01*
X188833047Y-92464000D01*
X188928285Y-92559238D01*
X188975904Y-92654476D01*
X189023523Y-92844952D01*
X189023523Y-92987809D01*
X188975904Y-93178285D01*
X188928285Y-93273523D01*
X188833047Y-93368761D01*
X188690190Y-93416380D01*
X188452095Y-93416380D01*
X188182285Y-78287619D02*
X188229904Y-78240000D01*
X188325142Y-78192380D01*
X188563238Y-78192380D01*
X188658476Y-78240000D01*
X188706095Y-78287619D01*
X188753714Y-78382857D01*
X188753714Y-78478095D01*
X188706095Y-78620952D01*
X188134666Y-79192380D01*
X188753714Y-79192380D01*
X188912476Y-80049714D02*
X188912476Y-80716380D01*
X188674380Y-79668761D02*
X188436285Y-80383047D01*
X189055333Y-80383047D01*
X188023523Y-83256380D02*
X188214000Y-83256380D01*
X188309238Y-83208761D01*
X188356857Y-83161142D01*
X188452095Y-83018285D01*
X188499714Y-82827809D01*
X188499714Y-82446857D01*
X188452095Y-82351619D01*
X188404476Y-82304000D01*
X188309238Y-82256380D01*
X188118761Y-82256380D01*
X188023523Y-82304000D01*
X187975904Y-82351619D01*
X187928285Y-82446857D01*
X187928285Y-82684952D01*
X187975904Y-82780190D01*
X188023523Y-82827809D01*
X188118761Y-82875428D01*
X188309238Y-82875428D01*
X188404476Y-82827809D01*
X188452095Y-82780190D01*
X188499714Y-82684952D01*
X188785523Y-85796380D02*
X188214095Y-85796380D01*
X188499809Y-85796380D02*
X188499809Y-84796380D01*
X188404571Y-84939238D01*
X188309333Y-85034476D01*
X188214095Y-85082095D01*
X189404571Y-84796380D02*
X189499809Y-84796380D01*
X189595047Y-84844000D01*
X189642666Y-84891619D01*
X189690285Y-84986857D01*
X189737904Y-85177333D01*
X189737904Y-85415428D01*
X189690285Y-85605904D01*
X189642666Y-85701142D01*
X189595047Y-85748761D01*
X189499809Y-85796380D01*
X189404571Y-85796380D01*
X189309333Y-85748761D01*
X189261714Y-85701142D01*
X189214095Y-85605904D01*
X189166476Y-85415428D01*
X189166476Y-85177333D01*
X189214095Y-84986857D01*
X189261714Y-84891619D01*
X189309333Y-84844000D01*
X189404571Y-84796380D01*
X187198095Y-87431619D02*
X187245714Y-87384000D01*
X187340952Y-87336380D01*
X187579047Y-87336380D01*
X187674285Y-87384000D01*
X187721904Y-87431619D01*
X187769523Y-87526857D01*
X187769523Y-87622095D01*
X187721904Y-87764952D01*
X187150476Y-88336380D01*
X187769523Y-88336380D01*
X188150476Y-87431619D02*
X188198095Y-87384000D01*
X188293333Y-87336380D01*
X188531428Y-87336380D01*
X188626666Y-87384000D01*
X188674285Y-87431619D01*
X188721904Y-87526857D01*
X188721904Y-87622095D01*
X188674285Y-87764952D01*
X188102857Y-88336380D01*
X188721904Y-88336380D01*
X188214095Y-89971619D02*
X188261714Y-89924000D01*
X188356952Y-89876380D01*
X188595047Y-89876380D01*
X188690285Y-89924000D01*
X188737904Y-89971619D01*
X188785523Y-90066857D01*
X188785523Y-90162095D01*
X188737904Y-90304952D01*
X188166476Y-90876380D01*
X188785523Y-90876380D01*
X189737904Y-90876380D02*
X189166476Y-90876380D01*
X189452190Y-90876380D02*
X189452190Y-89876380D01*
X189356952Y-90019238D01*
X189261714Y-90114476D01*
X189166476Y-90162095D01*
D12*
%TO.C,R3*%
X204806733Y-87682000D02*
X205149267Y-87682000D01*
X204806733Y-86662000D02*
X205149267Y-86662000D01*
%TO.C,AE1*%
X205363000Y-89124000D02*
X205363000Y-89764000D01*
X205363000Y-91924000D02*
X205363000Y-91284000D01*
X205363000Y-89764000D02*
X204733000Y-89764000D01*
X208083000Y-89174000D02*
X208083000Y-91874000D01*
%TO.C,B1*%
X206626000Y-102408000D02*
X206626000Y-101808000D01*
X208726000Y-103108000D02*
X207326000Y-103108000D01*
X209426000Y-101808000D02*
X209426000Y-102408000D01*
X207326000Y-101108000D02*
X208726000Y-101108000D01*
X206626000Y-101808000D02*
G75*
G02*
X207326000Y-101108000I700000J0D01*
G01*
X207326000Y-103108000D02*
G75*
G02*
X206626000Y-102408000I0J700000D01*
G01*
X209426000Y-102408000D02*
G75*
G02*
X208726000Y-103108000I-700000J0D01*
G01*
X208726000Y-101108000D02*
G75*
G02*
X209426000Y-101808000I0J-700000D01*
G01*
%TO.C,C1*%
X191489000Y-95750748D02*
X191489000Y-96273252D01*
X190019000Y-95750748D02*
X190019000Y-96273252D01*
%TO.C,L6*%
X208790000Y-86128733D02*
X208790000Y-86471267D01*
X207770000Y-86128733D02*
X207770000Y-86471267D01*
%TO.C,C8*%
X204980000Y-91139733D02*
X204980000Y-91432267D01*
X203960000Y-91139733D02*
X203960000Y-91432267D01*
%TO.C,C7*%
X205339733Y-82548000D02*
X205632267Y-82548000D01*
X205339733Y-83568000D02*
X205632267Y-83568000D01*
%TO.C,D8*%
X210014000Y-93124000D02*
X210014000Y-100424000D01*
X204514000Y-93124000D02*
X204514000Y-100424000D01*
X204514000Y-100424000D02*
X205664000Y-100424000D01*
%TO.C,R1*%
X199726733Y-82340000D02*
X200069267Y-82340000D01*
X199726733Y-83360000D02*
X200069267Y-83360000D01*
%TO.C,R8*%
X199871064Y-98579000D02*
X199416936Y-98579000D01*
X199871064Y-100049000D02*
X199416936Y-100049000D01*
%TO.C,R7*%
X199871064Y-96293000D02*
X199416936Y-96293000D01*
X199871064Y-97763000D02*
X199416936Y-97763000D01*
%TO.C,RX1*%
X203173000Y-99196000D02*
X203173000Y-96736000D01*
X201703000Y-99196000D02*
X203173000Y-99196000D01*
X201703000Y-96736000D02*
X201703000Y-99196000D01*
%TO.C,TX1*%
X200288000Y-94515000D02*
X197828000Y-94515000D01*
X200288000Y-95985000D02*
X200288000Y-94515000D01*
X197828000Y-95985000D02*
X200288000Y-95985000D01*
%TO.C,J1*%
X205800000Y-103538000D02*
X205800000Y-100878000D01*
X193040000Y-103538000D02*
X205800000Y-103538000D01*
X193040000Y-100878000D02*
X205800000Y-100878000D01*
X193040000Y-103538000D02*
X193040000Y-100878000D01*
X191770000Y-103538000D02*
X190440000Y-103538000D01*
X190440000Y-103538000D02*
X190440000Y-102208000D01*
%TO.C,R5*%
X195352936Y-98665000D02*
X195807064Y-98665000D01*
X195352936Y-100135000D02*
X195807064Y-100135000D01*
%TO.C,R2*%
X191235064Y-100135000D02*
X190780936Y-100135000D01*
X191235064Y-98665000D02*
X190780936Y-98665000D01*
%TO.C,R6*%
X187425064Y-100049000D02*
X186970936Y-100049000D01*
X187425064Y-98579000D02*
X186970936Y-98579000D01*
%TO.C,C11*%
X201922748Y-93245000D02*
X202445252Y-93245000D01*
X201922748Y-94715000D02*
X202445252Y-94715000D01*
%TO.C,C4*%
X205224748Y-84609000D02*
X205747252Y-84609000D01*
X205224748Y-86079000D02*
X205747252Y-86079000D01*
%TO.C,U2*%
X194731000Y-92002000D02*
X194256000Y-92002000D01*
X194256000Y-92002000D02*
X194256000Y-91527000D01*
X201001000Y-84782000D02*
X201476000Y-84782000D01*
X201476000Y-84782000D02*
X201476000Y-85257000D01*
X194731000Y-84782000D02*
X194256000Y-84782000D01*
X194256000Y-84782000D02*
X194256000Y-85257000D01*
X201001000Y-92002000D02*
X201476000Y-92002000D01*
%TO.C,U1*%
X195412000Y-96900000D02*
X195412000Y-95100000D01*
X192192000Y-95100000D02*
X192192000Y-97550000D01*
%TO.C,J3*%
X187138000Y-76294000D02*
X189798000Y-76294000D01*
X189798000Y-76294000D02*
X189798000Y-76964000D01*
X189798000Y-78484000D02*
X189798000Y-82044000D01*
X189798000Y-83564000D02*
X189798000Y-87124000D01*
X189798000Y-88644000D02*
X189798000Y-92204000D01*
X189798000Y-93724000D02*
X189798000Y-96934000D01*
X187138000Y-96934000D02*
X189798000Y-96934000D01*
X187138000Y-76294000D02*
X187138000Y-79504000D01*
X187138000Y-81024000D02*
X187138000Y-84584000D01*
X187138000Y-86104000D02*
X187138000Y-89664000D01*
X187138000Y-91184000D02*
X187138000Y-94744000D01*
X187138000Y-96264000D02*
X187138000Y-96934000D01*
X189798000Y-76964000D02*
X191008000Y-76964000D01*
%TO.C,D9*%
X195542000Y-83539000D02*
X198002000Y-83539000D01*
X198002000Y-83539000D02*
X198002000Y-82069000D01*
X198002000Y-82069000D02*
X195542000Y-82069000D01*
%TO.C,R3*%
D11*
X207462380Y-87288666D02*
X206986190Y-87622000D01*
X207462380Y-87860095D02*
X206462380Y-87860095D01*
X206462380Y-87479142D01*
X206510000Y-87383904D01*
X206557619Y-87336285D01*
X206652857Y-87288666D01*
X206795714Y-87288666D01*
X206890952Y-87336285D01*
X206938571Y-87383904D01*
X206986190Y-87479142D01*
X206986190Y-87860095D01*
X206462380Y-86955333D02*
X206462380Y-86336285D01*
X206843333Y-86669619D01*
X206843333Y-86526761D01*
X206890952Y-86431523D01*
X206938571Y-86383904D01*
X207033809Y-86336285D01*
X207271904Y-86336285D01*
X207367142Y-86383904D01*
X207414761Y-86431523D01*
X207462380Y-86526761D01*
X207462380Y-86812476D01*
X207414761Y-86907714D01*
X207367142Y-86955333D01*
%TO.C,AE1*%
X209208666Y-92860666D02*
X209208666Y-92384476D01*
X209494380Y-92955904D02*
X208494380Y-92622571D01*
X209494380Y-92289238D01*
X208970571Y-91955904D02*
X208970571Y-91622571D01*
X209494380Y-91479714D02*
X209494380Y-91955904D01*
X208494380Y-91955904D01*
X208494380Y-91479714D01*
X209494380Y-90527333D02*
X209494380Y-91098761D01*
X209494380Y-90813047D02*
X208494380Y-90813047D01*
X208637238Y-90908285D01*
X208732476Y-91003523D01*
X208780095Y-91098761D01*
%TO.C,B1*%
X208383238Y-100258571D02*
X208526095Y-100306190D01*
X208573714Y-100353809D01*
X208621333Y-100449047D01*
X208621333Y-100591904D01*
X208573714Y-100687142D01*
X208526095Y-100734761D01*
X208430857Y-100782380D01*
X208049904Y-100782380D01*
X208049904Y-99782380D01*
X208383238Y-99782380D01*
X208478476Y-99830000D01*
X208526095Y-99877619D01*
X208573714Y-99972857D01*
X208573714Y-100068095D01*
X208526095Y-100163333D01*
X208478476Y-100210952D01*
X208383238Y-100258571D01*
X208049904Y-100258571D01*
X209573714Y-100782380D02*
X209002285Y-100782380D01*
X209288000Y-100782380D02*
X209288000Y-99782380D01*
X209192761Y-99925238D01*
X209097523Y-100020476D01*
X209002285Y-100068095D01*
%TO.C,C1*%
X192127142Y-93130666D02*
X192174761Y-93178285D01*
X192222380Y-93321142D01*
X192222380Y-93416380D01*
X192174761Y-93559238D01*
X192079523Y-93654476D01*
X191984285Y-93702095D01*
X191793809Y-93749714D01*
X191650952Y-93749714D01*
X191460476Y-93702095D01*
X191365238Y-93654476D01*
X191270000Y-93559238D01*
X191222380Y-93416380D01*
X191222380Y-93321142D01*
X191270000Y-93178285D01*
X191317619Y-93130666D01*
X192222380Y-92178285D02*
X192222380Y-92749714D01*
X192222380Y-92464000D02*
X191222380Y-92464000D01*
X191365238Y-92559238D01*
X191460476Y-92654476D01*
X191508095Y-92749714D01*
%TO.C,L6*%
X209494380Y-88812666D02*
X209494380Y-89288857D01*
X208494380Y-89288857D01*
X208494380Y-88050761D02*
X208494380Y-88241238D01*
X208542000Y-88336476D01*
X208589619Y-88384095D01*
X208732476Y-88479333D01*
X208922952Y-88526952D01*
X209303904Y-88526952D01*
X209399142Y-88479333D01*
X209446761Y-88431714D01*
X209494380Y-88336476D01*
X209494380Y-88146000D01*
X209446761Y-88050761D01*
X209399142Y-88003142D01*
X209303904Y-87955523D01*
X209065809Y-87955523D01*
X208970571Y-88003142D01*
X208922952Y-88050761D01*
X208875333Y-88146000D01*
X208875333Y-88336476D01*
X208922952Y-88431714D01*
X208970571Y-88479333D01*
X209065809Y-88526952D01*
%TO.C,C8*%
X204303333Y-89511142D02*
X204255714Y-89558761D01*
X204112857Y-89606380D01*
X204017619Y-89606380D01*
X203874761Y-89558761D01*
X203779523Y-89463523D01*
X203731904Y-89368285D01*
X203684285Y-89177809D01*
X203684285Y-89034952D01*
X203731904Y-88844476D01*
X203779523Y-88749238D01*
X203874761Y-88654000D01*
X204017619Y-88606380D01*
X204112857Y-88606380D01*
X204255714Y-88654000D01*
X204303333Y-88701619D01*
X204874761Y-89034952D02*
X204779523Y-88987333D01*
X204731904Y-88939714D01*
X204684285Y-88844476D01*
X204684285Y-88796857D01*
X204731904Y-88701619D01*
X204779523Y-88654000D01*
X204874761Y-88606380D01*
X205065238Y-88606380D01*
X205160476Y-88654000D01*
X205208095Y-88701619D01*
X205255714Y-88796857D01*
X205255714Y-88844476D01*
X205208095Y-88939714D01*
X205160476Y-88987333D01*
X205065238Y-89034952D01*
X204874761Y-89034952D01*
X204779523Y-89082571D01*
X204731904Y-89130190D01*
X204684285Y-89225428D01*
X204684285Y-89415904D01*
X204731904Y-89511142D01*
X204779523Y-89558761D01*
X204874761Y-89606380D01*
X205065238Y-89606380D01*
X205160476Y-89558761D01*
X205208095Y-89511142D01*
X205255714Y-89415904D01*
X205255714Y-89225428D01*
X205208095Y-89130190D01*
X205160476Y-89082571D01*
X205065238Y-89034952D01*
%TO.C,C7*%
X208621333Y-82399142D02*
X208573714Y-82446761D01*
X208430857Y-82494380D01*
X208335619Y-82494380D01*
X208192761Y-82446761D01*
X208097523Y-82351523D01*
X208049904Y-82256285D01*
X208002285Y-82065809D01*
X208002285Y-81922952D01*
X208049904Y-81732476D01*
X208097523Y-81637238D01*
X208192761Y-81542000D01*
X208335619Y-81494380D01*
X208430857Y-81494380D01*
X208573714Y-81542000D01*
X208621333Y-81589619D01*
X208954666Y-81494380D02*
X209621333Y-81494380D01*
X209192761Y-82494380D01*
%TO.C,D8*%
X207716380Y-97512095D02*
X206716380Y-97512095D01*
X206716380Y-97274000D01*
X206764000Y-97131142D01*
X206859238Y-97035904D01*
X206954476Y-96988285D01*
X207144952Y-96940666D01*
X207287809Y-96940666D01*
X207478285Y-96988285D01*
X207573523Y-97035904D01*
X207668761Y-97131142D01*
X207716380Y-97274000D01*
X207716380Y-97512095D01*
X207144952Y-96369238D02*
X207097333Y-96464476D01*
X207049714Y-96512095D01*
X206954476Y-96559714D01*
X206906857Y-96559714D01*
X206811619Y-96512095D01*
X206764000Y-96464476D01*
X206716380Y-96369238D01*
X206716380Y-96178761D01*
X206764000Y-96083523D01*
X206811619Y-96035904D01*
X206906857Y-95988285D01*
X206954476Y-95988285D01*
X207049714Y-96035904D01*
X207097333Y-96083523D01*
X207144952Y-96178761D01*
X207144952Y-96369238D01*
X207192571Y-96464476D01*
X207240190Y-96512095D01*
X207335428Y-96559714D01*
X207525904Y-96559714D01*
X207621142Y-96512095D01*
X207668761Y-96464476D01*
X207716380Y-96369238D01*
X207716380Y-96178761D01*
X207668761Y-96083523D01*
X207621142Y-96035904D01*
X207525904Y-95988285D01*
X207335428Y-95988285D01*
X207240190Y-96035904D01*
X207192571Y-96083523D01*
X207144952Y-96178761D01*
X209240380Y-95472285D02*
X209240380Y-96043714D01*
X209240380Y-95758000D02*
X208240380Y-95758000D01*
X208383238Y-95853238D01*
X208478476Y-95948476D01*
X208526095Y-96043714D01*
%TO.C,R1*%
X199223333Y-81952380D02*
X198890000Y-81476190D01*
X198651904Y-81952380D02*
X198651904Y-80952380D01*
X199032857Y-80952380D01*
X199128095Y-81000000D01*
X199175714Y-81047619D01*
X199223333Y-81142857D01*
X199223333Y-81285714D01*
X199175714Y-81380952D01*
X199128095Y-81428571D01*
X199032857Y-81476190D01*
X198651904Y-81476190D01*
X200175714Y-81952380D02*
X199604285Y-81952380D01*
X199890000Y-81952380D02*
X199890000Y-80952380D01*
X199794761Y-81095238D01*
X199699523Y-81190476D01*
X199604285Y-81238095D01*
%TO.C,R8*%
X197048380Y-97956666D02*
X196572190Y-98290000D01*
X197048380Y-98528095D02*
X196048380Y-98528095D01*
X196048380Y-98147142D01*
X196096000Y-98051904D01*
X196143619Y-98004285D01*
X196238857Y-97956666D01*
X196381714Y-97956666D01*
X196476952Y-98004285D01*
X196524571Y-98051904D01*
X196572190Y-98147142D01*
X196572190Y-98528095D01*
X196476952Y-97385238D02*
X196429333Y-97480476D01*
X196381714Y-97528095D01*
X196286476Y-97575714D01*
X196238857Y-97575714D01*
X196143619Y-97528095D01*
X196096000Y-97480476D01*
X196048380Y-97385238D01*
X196048380Y-97194761D01*
X196096000Y-97099523D01*
X196143619Y-97051904D01*
X196238857Y-97004285D01*
X196286476Y-97004285D01*
X196381714Y-97051904D01*
X196429333Y-97099523D01*
X196476952Y-97194761D01*
X196476952Y-97385238D01*
X196524571Y-97480476D01*
X196572190Y-97528095D01*
X196667428Y-97575714D01*
X196857904Y-97575714D01*
X196953142Y-97528095D01*
X197000761Y-97480476D01*
X197048380Y-97385238D01*
X197048380Y-97194761D01*
X197000761Y-97099523D01*
X196953142Y-97051904D01*
X196857904Y-97004285D01*
X196667428Y-97004285D01*
X196572190Y-97051904D01*
X196524571Y-97099523D01*
X196476952Y-97194761D01*
%TO.C,R7*%
X197048380Y-96178666D02*
X196572190Y-96512000D01*
X197048380Y-96750095D02*
X196048380Y-96750095D01*
X196048380Y-96369142D01*
X196096000Y-96273904D01*
X196143619Y-96226285D01*
X196238857Y-96178666D01*
X196381714Y-96178666D01*
X196476952Y-96226285D01*
X196524571Y-96273904D01*
X196572190Y-96369142D01*
X196572190Y-96750095D01*
X196048380Y-95845333D02*
X196048380Y-95178666D01*
X197048380Y-95607238D01*
%TO.C,RX1*%
X204414380Y-98178857D02*
X203938190Y-98512190D01*
X204414380Y-98750285D02*
X203414380Y-98750285D01*
X203414380Y-98369333D01*
X203462000Y-98274095D01*
X203509619Y-98226476D01*
X203604857Y-98178857D01*
X203747714Y-98178857D01*
X203842952Y-98226476D01*
X203890571Y-98274095D01*
X203938190Y-98369333D01*
X203938190Y-98750285D01*
X203414380Y-97845523D02*
X204414380Y-97178857D01*
X203414380Y-97178857D02*
X204414380Y-97845523D01*
X204414380Y-96274095D02*
X204414380Y-96845523D01*
X204414380Y-96559809D02*
X203414380Y-96559809D01*
X203557238Y-96655047D01*
X203652476Y-96750285D01*
X203700095Y-96845523D01*
%TO.C,TX1*%
X197643904Y-93178380D02*
X198215333Y-93178380D01*
X197929619Y-94178380D02*
X197929619Y-93178380D01*
X198453428Y-93178380D02*
X199120095Y-94178380D01*
X199120095Y-93178380D02*
X198453428Y-94178380D01*
X200024857Y-94178380D02*
X199453428Y-94178380D01*
X199739142Y-94178380D02*
X199739142Y-93178380D01*
X199643904Y-93321238D01*
X199548666Y-93416476D01*
X199453428Y-93464095D01*
%TO.C,J1*%
X188896666Y-102068380D02*
X188896666Y-102782666D01*
X188849047Y-102925523D01*
X188753809Y-103020761D01*
X188610952Y-103068380D01*
X188515714Y-103068380D01*
X189896666Y-103068380D02*
X189325238Y-103068380D01*
X189610952Y-103068380D02*
X189610952Y-102068380D01*
X189515714Y-102211238D01*
X189420476Y-102306476D01*
X189325238Y-102354095D01*
%TO.C,R5*%
X193746380Y-99734666D02*
X193270190Y-100068000D01*
X193746380Y-100306095D02*
X192746380Y-100306095D01*
X192746380Y-99925142D01*
X192794000Y-99829904D01*
X192841619Y-99782285D01*
X192936857Y-99734666D01*
X193079714Y-99734666D01*
X193174952Y-99782285D01*
X193222571Y-99829904D01*
X193270190Y-99925142D01*
X193270190Y-100306095D01*
X192746380Y-98829904D02*
X192746380Y-99306095D01*
X193222571Y-99353714D01*
X193174952Y-99306095D01*
X193127333Y-99210857D01*
X193127333Y-98972761D01*
X193174952Y-98877523D01*
X193222571Y-98829904D01*
X193317809Y-98782285D01*
X193555904Y-98782285D01*
X193651142Y-98829904D01*
X193698761Y-98877523D01*
X193746380Y-98972761D01*
X193746380Y-99210857D01*
X193698761Y-99306095D01*
X193651142Y-99353714D01*
%TO.C,R2*%
X189317333Y-98496380D02*
X188984000Y-98020190D01*
X188745904Y-98496380D02*
X188745904Y-97496380D01*
X189126857Y-97496380D01*
X189222095Y-97544000D01*
X189269714Y-97591619D01*
X189317333Y-97686857D01*
X189317333Y-97829714D01*
X189269714Y-97924952D01*
X189222095Y-97972571D01*
X189126857Y-98020190D01*
X188745904Y-98020190D01*
X189698285Y-97591619D02*
X189745904Y-97544000D01*
X189841142Y-97496380D01*
X190079238Y-97496380D01*
X190174476Y-97544000D01*
X190222095Y-97591619D01*
X190269714Y-97686857D01*
X190269714Y-97782095D01*
X190222095Y-97924952D01*
X189650666Y-98496380D01*
X190269714Y-98496380D01*
%TO.C,R6*%
X186015333Y-98496380D02*
X185682000Y-98020190D01*
X185443904Y-98496380D02*
X185443904Y-97496380D01*
X185824857Y-97496380D01*
X185920095Y-97544000D01*
X185967714Y-97591619D01*
X186015333Y-97686857D01*
X186015333Y-97829714D01*
X185967714Y-97924952D01*
X185920095Y-97972571D01*
X185824857Y-98020190D01*
X185443904Y-98020190D01*
X186872476Y-97496380D02*
X186682000Y-97496380D01*
X186586761Y-97544000D01*
X186539142Y-97591619D01*
X186443904Y-97734476D01*
X186396285Y-97924952D01*
X186396285Y-98305904D01*
X186443904Y-98401142D01*
X186491523Y-98448761D01*
X186586761Y-98496380D01*
X186777238Y-98496380D01*
X186872476Y-98448761D01*
X186920095Y-98401142D01*
X186967714Y-98305904D01*
X186967714Y-98067809D01*
X186920095Y-97972571D01*
X186872476Y-97924952D01*
X186777238Y-97877333D01*
X186586761Y-97877333D01*
X186491523Y-97924952D01*
X186443904Y-97972571D01*
X186396285Y-98067809D01*
%TO.C,C11*%
X202049142Y-95861142D02*
X202001523Y-95908761D01*
X201858666Y-95956380D01*
X201763428Y-95956380D01*
X201620571Y-95908761D01*
X201525333Y-95813523D01*
X201477714Y-95718285D01*
X201430095Y-95527809D01*
X201430095Y-95384952D01*
X201477714Y-95194476D01*
X201525333Y-95099238D01*
X201620571Y-95004000D01*
X201763428Y-94956380D01*
X201858666Y-94956380D01*
X202001523Y-95004000D01*
X202049142Y-95051619D01*
X203001523Y-95956380D02*
X202430095Y-95956380D01*
X202715809Y-95956380D02*
X202715809Y-94956380D01*
X202620571Y-95099238D01*
X202525333Y-95194476D01*
X202430095Y-95242095D01*
X203953904Y-95956380D02*
X203382476Y-95956380D01*
X203668190Y-95956380D02*
X203668190Y-94956380D01*
X203572952Y-95099238D01*
X203477714Y-95194476D01*
X203382476Y-95242095D01*
%TO.C,C4*%
X208621333Y-84177142D02*
X208573714Y-84224761D01*
X208430857Y-84272380D01*
X208335619Y-84272380D01*
X208192761Y-84224761D01*
X208097523Y-84129523D01*
X208049904Y-84034285D01*
X208002285Y-83843809D01*
X208002285Y-83700952D01*
X208049904Y-83510476D01*
X208097523Y-83415238D01*
X208192761Y-83320000D01*
X208335619Y-83272380D01*
X208430857Y-83272380D01*
X208573714Y-83320000D01*
X208621333Y-83367619D01*
X209478476Y-83605714D02*
X209478476Y-84272380D01*
X209240380Y-83224761D02*
X209002285Y-83939047D01*
X209621333Y-83939047D01*
%TO.C,U2*%
X192024095Y-83272380D02*
X192024095Y-84081904D01*
X192071714Y-84177142D01*
X192119333Y-84224761D01*
X192214571Y-84272380D01*
X192405047Y-84272380D01*
X192500285Y-84224761D01*
X192547904Y-84177142D01*
X192595523Y-84081904D01*
X192595523Y-83272380D01*
X193024095Y-83367619D02*
X193071714Y-83320000D01*
X193166952Y-83272380D01*
X193405047Y-83272380D01*
X193500285Y-83320000D01*
X193547904Y-83367619D01*
X193595523Y-83462857D01*
X193595523Y-83558095D01*
X193547904Y-83700952D01*
X192976476Y-84272380D01*
X193595523Y-84272380D01*
%TO.C,U1*%
X193040095Y-95464380D02*
X193040095Y-96273904D01*
X193087714Y-96369142D01*
X193135333Y-96416761D01*
X193230571Y-96464380D01*
X193421047Y-96464380D01*
X193516285Y-96416761D01*
X193563904Y-96369142D01*
X193611523Y-96273904D01*
X193611523Y-95464380D01*
X194611523Y-96464380D02*
X194040095Y-96464380D01*
X194325809Y-96464380D02*
X194325809Y-95464380D01*
X194230571Y-95607238D01*
X194135333Y-95702476D01*
X194040095Y-95750095D01*
%TO.C,J3*%
X185634380Y-93297333D02*
X186348666Y-93297333D01*
X186491523Y-93344952D01*
X186586761Y-93440190D01*
X186634380Y-93583047D01*
X186634380Y-93678285D01*
X185634380Y-92916380D02*
X185634380Y-92297333D01*
X186015333Y-92630666D01*
X186015333Y-92487809D01*
X186062952Y-92392571D01*
X186110571Y-92344952D01*
X186205809Y-92297333D01*
X186443904Y-92297333D01*
X186539142Y-92344952D01*
X186586761Y-92392571D01*
X186634380Y-92487809D01*
X186634380Y-92773523D01*
X186586761Y-92868761D01*
X186539142Y-92916380D01*
%TO.C,D9*%
X195857904Y-81952380D02*
X195857904Y-80952380D01*
X196096000Y-80952380D01*
X196238857Y-81000000D01*
X196334095Y-81095238D01*
X196381714Y-81190476D01*
X196429333Y-81380952D01*
X196429333Y-81523809D01*
X196381714Y-81714285D01*
X196334095Y-81809523D01*
X196238857Y-81904761D01*
X196096000Y-81952380D01*
X195857904Y-81952380D01*
X196905523Y-81952380D02*
X197096000Y-81952380D01*
X197191238Y-81904761D01*
X197238857Y-81857142D01*
X197334095Y-81714285D01*
X197381714Y-81523809D01*
X197381714Y-81142857D01*
X197334095Y-81047619D01*
X197286476Y-81000000D01*
X197191238Y-80952380D01*
X197000761Y-80952380D01*
X196905523Y-81000000D01*
X196857904Y-81047619D01*
X196810285Y-81142857D01*
X196810285Y-81380952D01*
X196857904Y-81476190D01*
X196905523Y-81523809D01*
X197000761Y-81571428D01*
X197191238Y-81571428D01*
X197286476Y-81523809D01*
X197334095Y-81476190D01*
X197381714Y-81380952D01*
%TO.C,A1*%
X198286666Y-78588285D02*
X198286666Y-78112095D01*
X198572380Y-78683523D02*
X197572380Y-78350190D01*
X198572380Y-78016857D01*
X198572380Y-77159714D02*
X198572380Y-77731142D01*
X198572380Y-77445428D02*
X197572380Y-77445428D01*
X197715238Y-77540666D01*
X197810476Y-77635904D01*
X197858095Y-77731142D01*
%TD*%
M02*
