M48
; DRILL file {KiCad (5.1.9)-1} date 06/07/21 11:13:55
; FORMAT={-:-/ absolute / inch / decimal}
; #@! TF.CreationDate,2021-06-07T11:13:55+02:00
; #@! TF.GenerationSoftware,Kicad,Pcbnew,(5.1.9)-1
FMAT,2
INCH
T1C0.0118
T2C0.0157
T3C0.0394
T4C0.0454
%
G90
G05
T1
X8.1127Y-3.2159
T2
X7.31Y-3.85
X7.3714Y-3.8292
X7.38Y-3.27
X7.45Y-4.04
X7.49Y-3.66
X7.5265Y-3.86
X7.55Y-3.44
X7.55Y-3.48
X7.55Y-3.52
X7.55Y-3.56
X7.55Y-3.6
X7.56Y-3.72
X7.61Y-3.29
X7.63Y-3.8
X7.6563Y-3.2537
X7.7139Y-3.6857
X7.723Y-3.2083
X7.7528Y-3.6796
X7.79Y-3.48
X7.83Y-3.6992
X7.8546Y-3.203
X7.9Y-3.2
X7.9402Y-3.1998
X7.942Y-3.34
X8.005Y-3.5971
X8.03Y-3.91
X8.0637Y-3.4774
X8.12Y-3.26
X8.1503Y-3.36
X8.2Y-3.3
X8.2394Y-3.7214
T3
X7.55Y-4.0239
X7.65Y-4.0239
X7.75Y-4.0239
X7.85Y-4.0239
X7.95Y-4.0239
X8.05Y-4.0239
T4
X8.18Y-3.13
T0
M30
