%TF.GenerationSoftware,KiCad,Pcbnew,(5.1.9)-1*%
%TF.CreationDate,2021-06-07T11:13:51+02:00*%
%TF.ProjectId,esp32PicoD4,65737033-3250-4696-936f-44342e6b6963,rev?*%
%TF.SameCoordinates,Original*%
%TF.FileFunction,Soldermask,Top*%
%TF.FilePolarity,Negative*%
%FSLAX46Y46*%
G04 Gerber Fmt 4.6, Leading zero omitted, Abs format (unit mm)*
G04 Created by KiCad (PCBNEW (5.1.9)-1) date 2021-06-07 11:13:51*
%MOMM*%
%LPD*%
G01*
G04 APERTURE LIST*
%ADD10R,2.200000X1.050000*%
%ADD11R,1.050000X1.000000*%
%ADD12C,0.100000*%
%ADD13R,1.000000X1.500000*%
%ADD14O,1.700000X1.700000*%
%ADD15R,1.700000X1.700000*%
%ADD16R,5.300000X5.300000*%
%ADD17R,0.650000X1.560000*%
%ADD18R,1.900000X1.000000*%
G04 APERTURE END LIST*
%TO.C,R3*%
G36*
G01*
X205328000Y-87409500D02*
X205328000Y-86934500D01*
G75*
G02*
X205565500Y-86697000I237500J0D01*
G01*
X206140500Y-86697000D01*
G75*
G02*
X206378000Y-86934500I0J-237500D01*
G01*
X206378000Y-87409500D01*
G75*
G02*
X206140500Y-87647000I-237500J0D01*
G01*
X205565500Y-87647000D01*
G75*
G02*
X205328000Y-87409500I0J237500D01*
G01*
G37*
G36*
G01*
X203578000Y-87409500D02*
X203578000Y-86934500D01*
G75*
G02*
X203815500Y-86697000I237500J0D01*
G01*
X204390500Y-86697000D01*
G75*
G02*
X204628000Y-86934500I0J-237500D01*
G01*
X204628000Y-87409500D01*
G75*
G02*
X204390500Y-87647000I-237500J0D01*
G01*
X203815500Y-87647000D01*
G75*
G02*
X203578000Y-87409500I0J237500D01*
G01*
G37*
%TD*%
D10*
%TO.C,AE1*%
X206723000Y-89049000D03*
D11*
X205198000Y-90524000D03*
D10*
X206723000Y-91999000D03*
%TD*%
D12*
%TO.C,B1*%
G36*
X208676000Y-101358602D02*
G01*
X208700534Y-101358602D01*
X208749365Y-101363412D01*
X208797490Y-101372984D01*
X208844445Y-101387228D01*
X208889778Y-101406005D01*
X208933051Y-101429136D01*
X208973850Y-101456396D01*
X209011779Y-101487524D01*
X209046476Y-101522221D01*
X209077604Y-101560150D01*
X209104864Y-101600949D01*
X209127995Y-101644222D01*
X209146772Y-101689555D01*
X209161016Y-101736510D01*
X209170588Y-101784635D01*
X209175398Y-101833466D01*
X209175398Y-101858000D01*
X209176000Y-101858000D01*
X209176000Y-102358000D01*
X209175398Y-102358000D01*
X209175398Y-102382534D01*
X209170588Y-102431365D01*
X209161016Y-102479490D01*
X209146772Y-102526445D01*
X209127995Y-102571778D01*
X209104864Y-102615051D01*
X209077604Y-102655850D01*
X209046476Y-102693779D01*
X209011779Y-102728476D01*
X208973850Y-102759604D01*
X208933051Y-102786864D01*
X208889778Y-102809995D01*
X208844445Y-102828772D01*
X208797490Y-102843016D01*
X208749365Y-102852588D01*
X208700534Y-102857398D01*
X208676000Y-102857398D01*
X208676000Y-102858000D01*
X208176000Y-102858000D01*
X208176000Y-101358000D01*
X208676000Y-101358000D01*
X208676000Y-101358602D01*
G37*
G36*
X207876000Y-102858000D02*
G01*
X207376000Y-102858000D01*
X207376000Y-102857398D01*
X207351466Y-102857398D01*
X207302635Y-102852588D01*
X207254510Y-102843016D01*
X207207555Y-102828772D01*
X207162222Y-102809995D01*
X207118949Y-102786864D01*
X207078150Y-102759604D01*
X207040221Y-102728476D01*
X207005524Y-102693779D01*
X206974396Y-102655850D01*
X206947136Y-102615051D01*
X206924005Y-102571778D01*
X206905228Y-102526445D01*
X206890984Y-102479490D01*
X206881412Y-102431365D01*
X206876602Y-102382534D01*
X206876602Y-102358000D01*
X206876000Y-102358000D01*
X206876000Y-101858000D01*
X206876602Y-101858000D01*
X206876602Y-101833466D01*
X206881412Y-101784635D01*
X206890984Y-101736510D01*
X206905228Y-101689555D01*
X206924005Y-101644222D01*
X206947136Y-101600949D01*
X206974396Y-101560150D01*
X207005524Y-101522221D01*
X207040221Y-101487524D01*
X207078150Y-101456396D01*
X207118949Y-101429136D01*
X207162222Y-101406005D01*
X207207555Y-101387228D01*
X207254510Y-101372984D01*
X207302635Y-101363412D01*
X207351466Y-101358602D01*
X207376000Y-101358602D01*
X207376000Y-101358000D01*
X207876000Y-101358000D01*
X207876000Y-102858000D01*
G37*
%TD*%
%TO.C,C1*%
G36*
G01*
X190279000Y-96462000D02*
X191229000Y-96462000D01*
G75*
G02*
X191479000Y-96712000I0J-250000D01*
G01*
X191479000Y-97387000D01*
G75*
G02*
X191229000Y-97637000I-250000J0D01*
G01*
X190279000Y-97637000D01*
G75*
G02*
X190029000Y-97387000I0J250000D01*
G01*
X190029000Y-96712000D01*
G75*
G02*
X190279000Y-96462000I250000J0D01*
G01*
G37*
G36*
G01*
X190279000Y-94387000D02*
X191229000Y-94387000D01*
G75*
G02*
X191479000Y-94637000I0J-250000D01*
G01*
X191479000Y-95312000D01*
G75*
G02*
X191229000Y-95562000I-250000J0D01*
G01*
X190279000Y-95562000D01*
G75*
G02*
X190029000Y-95312000I0J250000D01*
G01*
X190029000Y-94637000D01*
G75*
G02*
X190279000Y-94387000I250000J0D01*
G01*
G37*
%TD*%
%TO.C,L6*%
G36*
G01*
X208042500Y-86650000D02*
X208517500Y-86650000D01*
G75*
G02*
X208755000Y-86887500I0J-237500D01*
G01*
X208755000Y-87462500D01*
G75*
G02*
X208517500Y-87700000I-237500J0D01*
G01*
X208042500Y-87700000D01*
G75*
G02*
X207805000Y-87462500I0J237500D01*
G01*
X207805000Y-86887500D01*
G75*
G02*
X208042500Y-86650000I237500J0D01*
G01*
G37*
G36*
G01*
X208042500Y-84900000D02*
X208517500Y-84900000D01*
G75*
G02*
X208755000Y-85137500I0J-237500D01*
G01*
X208755000Y-85712500D01*
G75*
G02*
X208517500Y-85950000I-237500J0D01*
G01*
X208042500Y-85950000D01*
G75*
G02*
X207805000Y-85712500I0J237500D01*
G01*
X207805000Y-85137500D01*
G75*
G02*
X208042500Y-84900000I237500J0D01*
G01*
G37*
%TD*%
%TO.C,C8*%
G36*
G01*
X204232500Y-91611000D02*
X204707500Y-91611000D01*
G75*
G02*
X204945000Y-91848500I0J-237500D01*
G01*
X204945000Y-92448500D01*
G75*
G02*
X204707500Y-92686000I-237500J0D01*
G01*
X204232500Y-92686000D01*
G75*
G02*
X203995000Y-92448500I0J237500D01*
G01*
X203995000Y-91848500D01*
G75*
G02*
X204232500Y-91611000I237500J0D01*
G01*
G37*
G36*
G01*
X204232500Y-89886000D02*
X204707500Y-89886000D01*
G75*
G02*
X204945000Y-90123500I0J-237500D01*
G01*
X204945000Y-90723500D01*
G75*
G02*
X204707500Y-90961000I-237500J0D01*
G01*
X204232500Y-90961000D01*
G75*
G02*
X203995000Y-90723500I0J237500D01*
G01*
X203995000Y-90123500D01*
G75*
G02*
X204232500Y-89886000I237500J0D01*
G01*
G37*
%TD*%
%TO.C,C7*%
G36*
G01*
X205811000Y-83295500D02*
X205811000Y-82820500D01*
G75*
G02*
X206048500Y-82583000I237500J0D01*
G01*
X206648500Y-82583000D01*
G75*
G02*
X206886000Y-82820500I0J-237500D01*
G01*
X206886000Y-83295500D01*
G75*
G02*
X206648500Y-83533000I-237500J0D01*
G01*
X206048500Y-83533000D01*
G75*
G02*
X205811000Y-83295500I0J237500D01*
G01*
G37*
G36*
G01*
X204086000Y-83295500D02*
X204086000Y-82820500D01*
G75*
G02*
X204323500Y-82583000I237500J0D01*
G01*
X204923500Y-82583000D01*
G75*
G02*
X205161000Y-82820500I0J-237500D01*
G01*
X205161000Y-83295500D01*
G75*
G02*
X204923500Y-83533000I-237500J0D01*
G01*
X204323500Y-83533000D01*
G75*
G02*
X204086000Y-83295500I0J237500D01*
G01*
G37*
%TD*%
D13*
%TO.C,D8*%
X208864000Y-94324000D03*
X205664000Y-94324000D03*
X208864000Y-99224000D03*
X205664000Y-99224000D03*
%TD*%
%TO.C,R1*%
G36*
G01*
X200248000Y-83087500D02*
X200248000Y-82612500D01*
G75*
G02*
X200485500Y-82375000I237500J0D01*
G01*
X201060500Y-82375000D01*
G75*
G02*
X201298000Y-82612500I0J-237500D01*
G01*
X201298000Y-83087500D01*
G75*
G02*
X201060500Y-83325000I-237500J0D01*
G01*
X200485500Y-83325000D01*
G75*
G02*
X200248000Y-83087500I0J237500D01*
G01*
G37*
G36*
G01*
X198498000Y-83087500D02*
X198498000Y-82612500D01*
G75*
G02*
X198735500Y-82375000I237500J0D01*
G01*
X199310500Y-82375000D01*
G75*
G02*
X199548000Y-82612500I0J-237500D01*
G01*
X199548000Y-83087500D01*
G75*
G02*
X199310500Y-83325000I-237500J0D01*
G01*
X198735500Y-83325000D01*
G75*
G02*
X198498000Y-83087500I0J237500D01*
G01*
G37*
%TD*%
%TO.C,R8*%
G36*
G01*
X199244000Y-98863999D02*
X199244000Y-99764001D01*
G75*
G02*
X198994001Y-100014000I-249999J0D01*
G01*
X198293999Y-100014000D01*
G75*
G02*
X198044000Y-99764001I0J249999D01*
G01*
X198044000Y-98863999D01*
G75*
G02*
X198293999Y-98614000I249999J0D01*
G01*
X198994001Y-98614000D01*
G75*
G02*
X199244000Y-98863999I0J-249999D01*
G01*
G37*
G36*
G01*
X201244000Y-98863999D02*
X201244000Y-99764001D01*
G75*
G02*
X200994001Y-100014000I-249999J0D01*
G01*
X200293999Y-100014000D01*
G75*
G02*
X200044000Y-99764001I0J249999D01*
G01*
X200044000Y-98863999D01*
G75*
G02*
X200293999Y-98614000I249999J0D01*
G01*
X200994001Y-98614000D01*
G75*
G02*
X201244000Y-98863999I0J-249999D01*
G01*
G37*
%TD*%
%TO.C,R7*%
G36*
G01*
X199244000Y-96577999D02*
X199244000Y-97478001D01*
G75*
G02*
X198994001Y-97728000I-249999J0D01*
G01*
X198293999Y-97728000D01*
G75*
G02*
X198044000Y-97478001I0J249999D01*
G01*
X198044000Y-96577999D01*
G75*
G02*
X198293999Y-96328000I249999J0D01*
G01*
X198994001Y-96328000D01*
G75*
G02*
X199244000Y-96577999I0J-249999D01*
G01*
G37*
G36*
G01*
X201244000Y-96577999D02*
X201244000Y-97478001D01*
G75*
G02*
X200994001Y-97728000I-249999J0D01*
G01*
X200293999Y-97728000D01*
G75*
G02*
X200044000Y-97478001I0J249999D01*
G01*
X200044000Y-96577999D01*
G75*
G02*
X200293999Y-96328000I249999J0D01*
G01*
X200994001Y-96328000D01*
G75*
G02*
X201244000Y-96577999I0J-249999D01*
G01*
G37*
%TD*%
%TO.C,RX1*%
G36*
G01*
X202675500Y-97186000D02*
X202200500Y-97186000D01*
G75*
G02*
X201963000Y-96948500I0J237500D01*
G01*
X201963000Y-96373500D01*
G75*
G02*
X202200500Y-96136000I237500J0D01*
G01*
X202675500Y-96136000D01*
G75*
G02*
X202913000Y-96373500I0J-237500D01*
G01*
X202913000Y-96948500D01*
G75*
G02*
X202675500Y-97186000I-237500J0D01*
G01*
G37*
G36*
G01*
X202675500Y-98936000D02*
X202200500Y-98936000D01*
G75*
G02*
X201963000Y-98698500I0J237500D01*
G01*
X201963000Y-98123500D01*
G75*
G02*
X202200500Y-97886000I237500J0D01*
G01*
X202675500Y-97886000D01*
G75*
G02*
X202913000Y-98123500I0J-237500D01*
G01*
X202913000Y-98698500D01*
G75*
G02*
X202675500Y-98936000I-237500J0D01*
G01*
G37*
%TD*%
%TO.C,TX1*%
G36*
G01*
X198278000Y-95012500D02*
X198278000Y-95487500D01*
G75*
G02*
X198040500Y-95725000I-237500J0D01*
G01*
X197465500Y-95725000D01*
G75*
G02*
X197228000Y-95487500I0J237500D01*
G01*
X197228000Y-95012500D01*
G75*
G02*
X197465500Y-94775000I237500J0D01*
G01*
X198040500Y-94775000D01*
G75*
G02*
X198278000Y-95012500I0J-237500D01*
G01*
G37*
G36*
G01*
X200028000Y-95012500D02*
X200028000Y-95487500D01*
G75*
G02*
X199790500Y-95725000I-237500J0D01*
G01*
X199215500Y-95725000D01*
G75*
G02*
X198978000Y-95487500I0J237500D01*
G01*
X198978000Y-95012500D01*
G75*
G02*
X199215500Y-94775000I237500J0D01*
G01*
X199790500Y-94775000D01*
G75*
G02*
X200028000Y-95012500I0J-237500D01*
G01*
G37*
%TD*%
D14*
%TO.C,J1*%
X204470000Y-102208000D03*
X201930000Y-102208000D03*
X199390000Y-102208000D03*
X196850000Y-102208000D03*
X194310000Y-102208000D03*
D15*
X191770000Y-102208000D03*
%TD*%
%TO.C,R5*%
G36*
G01*
X195980000Y-99850001D02*
X195980000Y-98949999D01*
G75*
G02*
X196229999Y-98700000I249999J0D01*
G01*
X196930001Y-98700000D01*
G75*
G02*
X197180000Y-98949999I0J-249999D01*
G01*
X197180000Y-99850001D01*
G75*
G02*
X196930001Y-100100000I-249999J0D01*
G01*
X196229999Y-100100000D01*
G75*
G02*
X195980000Y-99850001I0J249999D01*
G01*
G37*
G36*
G01*
X193980000Y-99850001D02*
X193980000Y-98949999D01*
G75*
G02*
X194229999Y-98700000I249999J0D01*
G01*
X194930001Y-98700000D01*
G75*
G02*
X195180000Y-98949999I0J-249999D01*
G01*
X195180000Y-99850001D01*
G75*
G02*
X194930001Y-100100000I-249999J0D01*
G01*
X194229999Y-100100000D01*
G75*
G02*
X193980000Y-99850001I0J249999D01*
G01*
G37*
%TD*%
%TO.C,R2*%
G36*
G01*
X190608000Y-98949999D02*
X190608000Y-99850001D01*
G75*
G02*
X190358001Y-100100000I-249999J0D01*
G01*
X189657999Y-100100000D01*
G75*
G02*
X189408000Y-99850001I0J249999D01*
G01*
X189408000Y-98949999D01*
G75*
G02*
X189657999Y-98700000I249999J0D01*
G01*
X190358001Y-98700000D01*
G75*
G02*
X190608000Y-98949999I0J-249999D01*
G01*
G37*
G36*
G01*
X192608000Y-98949999D02*
X192608000Y-99850001D01*
G75*
G02*
X192358001Y-100100000I-249999J0D01*
G01*
X191657999Y-100100000D01*
G75*
G02*
X191408000Y-99850001I0J249999D01*
G01*
X191408000Y-98949999D01*
G75*
G02*
X191657999Y-98700000I249999J0D01*
G01*
X192358001Y-98700000D01*
G75*
G02*
X192608000Y-98949999I0J-249999D01*
G01*
G37*
%TD*%
%TO.C,R6*%
G36*
G01*
X186798000Y-98863999D02*
X186798000Y-99764001D01*
G75*
G02*
X186548001Y-100014000I-249999J0D01*
G01*
X185847999Y-100014000D01*
G75*
G02*
X185598000Y-99764001I0J249999D01*
G01*
X185598000Y-98863999D01*
G75*
G02*
X185847999Y-98614000I249999J0D01*
G01*
X186548001Y-98614000D01*
G75*
G02*
X186798000Y-98863999I0J-249999D01*
G01*
G37*
G36*
G01*
X188798000Y-98863999D02*
X188798000Y-99764001D01*
G75*
G02*
X188548001Y-100014000I-249999J0D01*
G01*
X187847999Y-100014000D01*
G75*
G02*
X187598000Y-99764001I0J249999D01*
G01*
X187598000Y-98863999D01*
G75*
G02*
X187847999Y-98614000I249999J0D01*
G01*
X188548001Y-98614000D01*
G75*
G02*
X188798000Y-98863999I0J-249999D01*
G01*
G37*
%TD*%
%TO.C,C11*%
G36*
G01*
X202634000Y-94455000D02*
X202634000Y-93505000D01*
G75*
G02*
X202884000Y-93255000I250000J0D01*
G01*
X203559000Y-93255000D01*
G75*
G02*
X203809000Y-93505000I0J-250000D01*
G01*
X203809000Y-94455000D01*
G75*
G02*
X203559000Y-94705000I-250000J0D01*
G01*
X202884000Y-94705000D01*
G75*
G02*
X202634000Y-94455000I0J250000D01*
G01*
G37*
G36*
G01*
X200559000Y-94455000D02*
X200559000Y-93505000D01*
G75*
G02*
X200809000Y-93255000I250000J0D01*
G01*
X201484000Y-93255000D01*
G75*
G02*
X201734000Y-93505000I0J-250000D01*
G01*
X201734000Y-94455000D01*
G75*
G02*
X201484000Y-94705000I-250000J0D01*
G01*
X200809000Y-94705000D01*
G75*
G02*
X200559000Y-94455000I0J250000D01*
G01*
G37*
%TD*%
%TO.C,C4*%
G36*
G01*
X205936000Y-85819000D02*
X205936000Y-84869000D01*
G75*
G02*
X206186000Y-84619000I250000J0D01*
G01*
X206861000Y-84619000D01*
G75*
G02*
X207111000Y-84869000I0J-250000D01*
G01*
X207111000Y-85819000D01*
G75*
G02*
X206861000Y-86069000I-250000J0D01*
G01*
X206186000Y-86069000D01*
G75*
G02*
X205936000Y-85819000I0J250000D01*
G01*
G37*
G36*
G01*
X203861000Y-85819000D02*
X203861000Y-84869000D01*
G75*
G02*
X204111000Y-84619000I250000J0D01*
G01*
X204786000Y-84619000D01*
G75*
G02*
X205036000Y-84869000I0J-250000D01*
G01*
X205036000Y-85819000D01*
G75*
G02*
X204786000Y-86069000I-250000J0D01*
G01*
X204111000Y-86069000D01*
G75*
G02*
X203861000Y-85819000I0J250000D01*
G01*
G37*
%TD*%
D16*
%TO.C,U2*%
X197866000Y-88392000D03*
G36*
G01*
X200741000Y-91504500D02*
X200741000Y-92179500D01*
G75*
G02*
X200678500Y-92242000I-62500J0D01*
G01*
X200553500Y-92242000D01*
G75*
G02*
X200491000Y-92179500I0J62500D01*
G01*
X200491000Y-91504500D01*
G75*
G02*
X200553500Y-91442000I62500J0D01*
G01*
X200678500Y-91442000D01*
G75*
G02*
X200741000Y-91504500I0J-62500D01*
G01*
G37*
G36*
G01*
X200241000Y-91504500D02*
X200241000Y-92179500D01*
G75*
G02*
X200178500Y-92242000I-62500J0D01*
G01*
X200053500Y-92242000D01*
G75*
G02*
X199991000Y-92179500I0J62500D01*
G01*
X199991000Y-91504500D01*
G75*
G02*
X200053500Y-91442000I62500J0D01*
G01*
X200178500Y-91442000D01*
G75*
G02*
X200241000Y-91504500I0J-62500D01*
G01*
G37*
G36*
G01*
X199741000Y-91504500D02*
X199741000Y-92179500D01*
G75*
G02*
X199678500Y-92242000I-62500J0D01*
G01*
X199553500Y-92242000D01*
G75*
G02*
X199491000Y-92179500I0J62500D01*
G01*
X199491000Y-91504500D01*
G75*
G02*
X199553500Y-91442000I62500J0D01*
G01*
X199678500Y-91442000D01*
G75*
G02*
X199741000Y-91504500I0J-62500D01*
G01*
G37*
G36*
G01*
X199241000Y-91504500D02*
X199241000Y-92179500D01*
G75*
G02*
X199178500Y-92242000I-62500J0D01*
G01*
X199053500Y-92242000D01*
G75*
G02*
X198991000Y-92179500I0J62500D01*
G01*
X198991000Y-91504500D01*
G75*
G02*
X199053500Y-91442000I62500J0D01*
G01*
X199178500Y-91442000D01*
G75*
G02*
X199241000Y-91504500I0J-62500D01*
G01*
G37*
G36*
G01*
X198741000Y-91504500D02*
X198741000Y-92179500D01*
G75*
G02*
X198678500Y-92242000I-62500J0D01*
G01*
X198553500Y-92242000D01*
G75*
G02*
X198491000Y-92179500I0J62500D01*
G01*
X198491000Y-91504500D01*
G75*
G02*
X198553500Y-91442000I62500J0D01*
G01*
X198678500Y-91442000D01*
G75*
G02*
X198741000Y-91504500I0J-62500D01*
G01*
G37*
G36*
G01*
X198241000Y-91504500D02*
X198241000Y-92179500D01*
G75*
G02*
X198178500Y-92242000I-62500J0D01*
G01*
X198053500Y-92242000D01*
G75*
G02*
X197991000Y-92179500I0J62500D01*
G01*
X197991000Y-91504500D01*
G75*
G02*
X198053500Y-91442000I62500J0D01*
G01*
X198178500Y-91442000D01*
G75*
G02*
X198241000Y-91504500I0J-62500D01*
G01*
G37*
G36*
G01*
X197741000Y-91504500D02*
X197741000Y-92179500D01*
G75*
G02*
X197678500Y-92242000I-62500J0D01*
G01*
X197553500Y-92242000D01*
G75*
G02*
X197491000Y-92179500I0J62500D01*
G01*
X197491000Y-91504500D01*
G75*
G02*
X197553500Y-91442000I62500J0D01*
G01*
X197678500Y-91442000D01*
G75*
G02*
X197741000Y-91504500I0J-62500D01*
G01*
G37*
G36*
G01*
X197241000Y-91504500D02*
X197241000Y-92179500D01*
G75*
G02*
X197178500Y-92242000I-62500J0D01*
G01*
X197053500Y-92242000D01*
G75*
G02*
X196991000Y-92179500I0J62500D01*
G01*
X196991000Y-91504500D01*
G75*
G02*
X197053500Y-91442000I62500J0D01*
G01*
X197178500Y-91442000D01*
G75*
G02*
X197241000Y-91504500I0J-62500D01*
G01*
G37*
G36*
G01*
X196741000Y-91504500D02*
X196741000Y-92179500D01*
G75*
G02*
X196678500Y-92242000I-62500J0D01*
G01*
X196553500Y-92242000D01*
G75*
G02*
X196491000Y-92179500I0J62500D01*
G01*
X196491000Y-91504500D01*
G75*
G02*
X196553500Y-91442000I62500J0D01*
G01*
X196678500Y-91442000D01*
G75*
G02*
X196741000Y-91504500I0J-62500D01*
G01*
G37*
G36*
G01*
X196241000Y-91504500D02*
X196241000Y-92179500D01*
G75*
G02*
X196178500Y-92242000I-62500J0D01*
G01*
X196053500Y-92242000D01*
G75*
G02*
X195991000Y-92179500I0J62500D01*
G01*
X195991000Y-91504500D01*
G75*
G02*
X196053500Y-91442000I62500J0D01*
G01*
X196178500Y-91442000D01*
G75*
G02*
X196241000Y-91504500I0J-62500D01*
G01*
G37*
G36*
G01*
X195741000Y-91504500D02*
X195741000Y-92179500D01*
G75*
G02*
X195678500Y-92242000I-62500J0D01*
G01*
X195553500Y-92242000D01*
G75*
G02*
X195491000Y-92179500I0J62500D01*
G01*
X195491000Y-91504500D01*
G75*
G02*
X195553500Y-91442000I62500J0D01*
G01*
X195678500Y-91442000D01*
G75*
G02*
X195741000Y-91504500I0J-62500D01*
G01*
G37*
G36*
G01*
X195241000Y-91504500D02*
X195241000Y-92179500D01*
G75*
G02*
X195178500Y-92242000I-62500J0D01*
G01*
X195053500Y-92242000D01*
G75*
G02*
X194991000Y-92179500I0J62500D01*
G01*
X194991000Y-91504500D01*
G75*
G02*
X195053500Y-91442000I62500J0D01*
G01*
X195178500Y-91442000D01*
G75*
G02*
X195241000Y-91504500I0J-62500D01*
G01*
G37*
G36*
G01*
X194816000Y-91079500D02*
X194816000Y-91204500D01*
G75*
G02*
X194753500Y-91267000I-62500J0D01*
G01*
X194078500Y-91267000D01*
G75*
G02*
X194016000Y-91204500I0J62500D01*
G01*
X194016000Y-91079500D01*
G75*
G02*
X194078500Y-91017000I62500J0D01*
G01*
X194753500Y-91017000D01*
G75*
G02*
X194816000Y-91079500I0J-62500D01*
G01*
G37*
G36*
G01*
X194816000Y-90579500D02*
X194816000Y-90704500D01*
G75*
G02*
X194753500Y-90767000I-62500J0D01*
G01*
X194078500Y-90767000D01*
G75*
G02*
X194016000Y-90704500I0J62500D01*
G01*
X194016000Y-90579500D01*
G75*
G02*
X194078500Y-90517000I62500J0D01*
G01*
X194753500Y-90517000D01*
G75*
G02*
X194816000Y-90579500I0J-62500D01*
G01*
G37*
G36*
G01*
X194816000Y-90079500D02*
X194816000Y-90204500D01*
G75*
G02*
X194753500Y-90267000I-62500J0D01*
G01*
X194078500Y-90267000D01*
G75*
G02*
X194016000Y-90204500I0J62500D01*
G01*
X194016000Y-90079500D01*
G75*
G02*
X194078500Y-90017000I62500J0D01*
G01*
X194753500Y-90017000D01*
G75*
G02*
X194816000Y-90079500I0J-62500D01*
G01*
G37*
G36*
G01*
X194816000Y-89579500D02*
X194816000Y-89704500D01*
G75*
G02*
X194753500Y-89767000I-62500J0D01*
G01*
X194078500Y-89767000D01*
G75*
G02*
X194016000Y-89704500I0J62500D01*
G01*
X194016000Y-89579500D01*
G75*
G02*
X194078500Y-89517000I62500J0D01*
G01*
X194753500Y-89517000D01*
G75*
G02*
X194816000Y-89579500I0J-62500D01*
G01*
G37*
G36*
G01*
X194816000Y-89079500D02*
X194816000Y-89204500D01*
G75*
G02*
X194753500Y-89267000I-62500J0D01*
G01*
X194078500Y-89267000D01*
G75*
G02*
X194016000Y-89204500I0J62500D01*
G01*
X194016000Y-89079500D01*
G75*
G02*
X194078500Y-89017000I62500J0D01*
G01*
X194753500Y-89017000D01*
G75*
G02*
X194816000Y-89079500I0J-62500D01*
G01*
G37*
G36*
G01*
X194816000Y-88579500D02*
X194816000Y-88704500D01*
G75*
G02*
X194753500Y-88767000I-62500J0D01*
G01*
X194078500Y-88767000D01*
G75*
G02*
X194016000Y-88704500I0J62500D01*
G01*
X194016000Y-88579500D01*
G75*
G02*
X194078500Y-88517000I62500J0D01*
G01*
X194753500Y-88517000D01*
G75*
G02*
X194816000Y-88579500I0J-62500D01*
G01*
G37*
G36*
G01*
X194816000Y-88079500D02*
X194816000Y-88204500D01*
G75*
G02*
X194753500Y-88267000I-62500J0D01*
G01*
X194078500Y-88267000D01*
G75*
G02*
X194016000Y-88204500I0J62500D01*
G01*
X194016000Y-88079500D01*
G75*
G02*
X194078500Y-88017000I62500J0D01*
G01*
X194753500Y-88017000D01*
G75*
G02*
X194816000Y-88079500I0J-62500D01*
G01*
G37*
G36*
G01*
X194816000Y-87579500D02*
X194816000Y-87704500D01*
G75*
G02*
X194753500Y-87767000I-62500J0D01*
G01*
X194078500Y-87767000D01*
G75*
G02*
X194016000Y-87704500I0J62500D01*
G01*
X194016000Y-87579500D01*
G75*
G02*
X194078500Y-87517000I62500J0D01*
G01*
X194753500Y-87517000D01*
G75*
G02*
X194816000Y-87579500I0J-62500D01*
G01*
G37*
G36*
G01*
X194816000Y-87079500D02*
X194816000Y-87204500D01*
G75*
G02*
X194753500Y-87267000I-62500J0D01*
G01*
X194078500Y-87267000D01*
G75*
G02*
X194016000Y-87204500I0J62500D01*
G01*
X194016000Y-87079500D01*
G75*
G02*
X194078500Y-87017000I62500J0D01*
G01*
X194753500Y-87017000D01*
G75*
G02*
X194816000Y-87079500I0J-62500D01*
G01*
G37*
G36*
G01*
X194816000Y-86579500D02*
X194816000Y-86704500D01*
G75*
G02*
X194753500Y-86767000I-62500J0D01*
G01*
X194078500Y-86767000D01*
G75*
G02*
X194016000Y-86704500I0J62500D01*
G01*
X194016000Y-86579500D01*
G75*
G02*
X194078500Y-86517000I62500J0D01*
G01*
X194753500Y-86517000D01*
G75*
G02*
X194816000Y-86579500I0J-62500D01*
G01*
G37*
G36*
G01*
X194816000Y-86079500D02*
X194816000Y-86204500D01*
G75*
G02*
X194753500Y-86267000I-62500J0D01*
G01*
X194078500Y-86267000D01*
G75*
G02*
X194016000Y-86204500I0J62500D01*
G01*
X194016000Y-86079500D01*
G75*
G02*
X194078500Y-86017000I62500J0D01*
G01*
X194753500Y-86017000D01*
G75*
G02*
X194816000Y-86079500I0J-62500D01*
G01*
G37*
G36*
G01*
X194816000Y-85579500D02*
X194816000Y-85704500D01*
G75*
G02*
X194753500Y-85767000I-62500J0D01*
G01*
X194078500Y-85767000D01*
G75*
G02*
X194016000Y-85704500I0J62500D01*
G01*
X194016000Y-85579500D01*
G75*
G02*
X194078500Y-85517000I62500J0D01*
G01*
X194753500Y-85517000D01*
G75*
G02*
X194816000Y-85579500I0J-62500D01*
G01*
G37*
G36*
G01*
X195241000Y-84604500D02*
X195241000Y-85279500D01*
G75*
G02*
X195178500Y-85342000I-62500J0D01*
G01*
X195053500Y-85342000D01*
G75*
G02*
X194991000Y-85279500I0J62500D01*
G01*
X194991000Y-84604500D01*
G75*
G02*
X195053500Y-84542000I62500J0D01*
G01*
X195178500Y-84542000D01*
G75*
G02*
X195241000Y-84604500I0J-62500D01*
G01*
G37*
G36*
G01*
X195741000Y-84604500D02*
X195741000Y-85279500D01*
G75*
G02*
X195678500Y-85342000I-62500J0D01*
G01*
X195553500Y-85342000D01*
G75*
G02*
X195491000Y-85279500I0J62500D01*
G01*
X195491000Y-84604500D01*
G75*
G02*
X195553500Y-84542000I62500J0D01*
G01*
X195678500Y-84542000D01*
G75*
G02*
X195741000Y-84604500I0J-62500D01*
G01*
G37*
G36*
G01*
X196241000Y-84604500D02*
X196241000Y-85279500D01*
G75*
G02*
X196178500Y-85342000I-62500J0D01*
G01*
X196053500Y-85342000D01*
G75*
G02*
X195991000Y-85279500I0J62500D01*
G01*
X195991000Y-84604500D01*
G75*
G02*
X196053500Y-84542000I62500J0D01*
G01*
X196178500Y-84542000D01*
G75*
G02*
X196241000Y-84604500I0J-62500D01*
G01*
G37*
G36*
G01*
X196741000Y-84604500D02*
X196741000Y-85279500D01*
G75*
G02*
X196678500Y-85342000I-62500J0D01*
G01*
X196553500Y-85342000D01*
G75*
G02*
X196491000Y-85279500I0J62500D01*
G01*
X196491000Y-84604500D01*
G75*
G02*
X196553500Y-84542000I62500J0D01*
G01*
X196678500Y-84542000D01*
G75*
G02*
X196741000Y-84604500I0J-62500D01*
G01*
G37*
G36*
G01*
X197241000Y-84604500D02*
X197241000Y-85279500D01*
G75*
G02*
X197178500Y-85342000I-62500J0D01*
G01*
X197053500Y-85342000D01*
G75*
G02*
X196991000Y-85279500I0J62500D01*
G01*
X196991000Y-84604500D01*
G75*
G02*
X197053500Y-84542000I62500J0D01*
G01*
X197178500Y-84542000D01*
G75*
G02*
X197241000Y-84604500I0J-62500D01*
G01*
G37*
G36*
G01*
X197741000Y-84604500D02*
X197741000Y-85279500D01*
G75*
G02*
X197678500Y-85342000I-62500J0D01*
G01*
X197553500Y-85342000D01*
G75*
G02*
X197491000Y-85279500I0J62500D01*
G01*
X197491000Y-84604500D01*
G75*
G02*
X197553500Y-84542000I62500J0D01*
G01*
X197678500Y-84542000D01*
G75*
G02*
X197741000Y-84604500I0J-62500D01*
G01*
G37*
G36*
G01*
X198241000Y-84604500D02*
X198241000Y-85279500D01*
G75*
G02*
X198178500Y-85342000I-62500J0D01*
G01*
X198053500Y-85342000D01*
G75*
G02*
X197991000Y-85279500I0J62500D01*
G01*
X197991000Y-84604500D01*
G75*
G02*
X198053500Y-84542000I62500J0D01*
G01*
X198178500Y-84542000D01*
G75*
G02*
X198241000Y-84604500I0J-62500D01*
G01*
G37*
G36*
G01*
X198741000Y-84604500D02*
X198741000Y-85279500D01*
G75*
G02*
X198678500Y-85342000I-62500J0D01*
G01*
X198553500Y-85342000D01*
G75*
G02*
X198491000Y-85279500I0J62500D01*
G01*
X198491000Y-84604500D01*
G75*
G02*
X198553500Y-84542000I62500J0D01*
G01*
X198678500Y-84542000D01*
G75*
G02*
X198741000Y-84604500I0J-62500D01*
G01*
G37*
G36*
G01*
X199241000Y-84604500D02*
X199241000Y-85279500D01*
G75*
G02*
X199178500Y-85342000I-62500J0D01*
G01*
X199053500Y-85342000D01*
G75*
G02*
X198991000Y-85279500I0J62500D01*
G01*
X198991000Y-84604500D01*
G75*
G02*
X199053500Y-84542000I62500J0D01*
G01*
X199178500Y-84542000D01*
G75*
G02*
X199241000Y-84604500I0J-62500D01*
G01*
G37*
G36*
G01*
X199741000Y-84604500D02*
X199741000Y-85279500D01*
G75*
G02*
X199678500Y-85342000I-62500J0D01*
G01*
X199553500Y-85342000D01*
G75*
G02*
X199491000Y-85279500I0J62500D01*
G01*
X199491000Y-84604500D01*
G75*
G02*
X199553500Y-84542000I62500J0D01*
G01*
X199678500Y-84542000D01*
G75*
G02*
X199741000Y-84604500I0J-62500D01*
G01*
G37*
G36*
G01*
X200241000Y-84604500D02*
X200241000Y-85279500D01*
G75*
G02*
X200178500Y-85342000I-62500J0D01*
G01*
X200053500Y-85342000D01*
G75*
G02*
X199991000Y-85279500I0J62500D01*
G01*
X199991000Y-84604500D01*
G75*
G02*
X200053500Y-84542000I62500J0D01*
G01*
X200178500Y-84542000D01*
G75*
G02*
X200241000Y-84604500I0J-62500D01*
G01*
G37*
G36*
G01*
X200741000Y-84604500D02*
X200741000Y-85279500D01*
G75*
G02*
X200678500Y-85342000I-62500J0D01*
G01*
X200553500Y-85342000D01*
G75*
G02*
X200491000Y-85279500I0J62500D01*
G01*
X200491000Y-84604500D01*
G75*
G02*
X200553500Y-84542000I62500J0D01*
G01*
X200678500Y-84542000D01*
G75*
G02*
X200741000Y-84604500I0J-62500D01*
G01*
G37*
G36*
G01*
X201716000Y-85579500D02*
X201716000Y-85704500D01*
G75*
G02*
X201653500Y-85767000I-62500J0D01*
G01*
X200978500Y-85767000D01*
G75*
G02*
X200916000Y-85704500I0J62500D01*
G01*
X200916000Y-85579500D01*
G75*
G02*
X200978500Y-85517000I62500J0D01*
G01*
X201653500Y-85517000D01*
G75*
G02*
X201716000Y-85579500I0J-62500D01*
G01*
G37*
G36*
G01*
X201716000Y-86079500D02*
X201716000Y-86204500D01*
G75*
G02*
X201653500Y-86267000I-62500J0D01*
G01*
X200978500Y-86267000D01*
G75*
G02*
X200916000Y-86204500I0J62500D01*
G01*
X200916000Y-86079500D01*
G75*
G02*
X200978500Y-86017000I62500J0D01*
G01*
X201653500Y-86017000D01*
G75*
G02*
X201716000Y-86079500I0J-62500D01*
G01*
G37*
G36*
G01*
X201716000Y-86579500D02*
X201716000Y-86704500D01*
G75*
G02*
X201653500Y-86767000I-62500J0D01*
G01*
X200978500Y-86767000D01*
G75*
G02*
X200916000Y-86704500I0J62500D01*
G01*
X200916000Y-86579500D01*
G75*
G02*
X200978500Y-86517000I62500J0D01*
G01*
X201653500Y-86517000D01*
G75*
G02*
X201716000Y-86579500I0J-62500D01*
G01*
G37*
G36*
G01*
X201716000Y-87079500D02*
X201716000Y-87204500D01*
G75*
G02*
X201653500Y-87267000I-62500J0D01*
G01*
X200978500Y-87267000D01*
G75*
G02*
X200916000Y-87204500I0J62500D01*
G01*
X200916000Y-87079500D01*
G75*
G02*
X200978500Y-87017000I62500J0D01*
G01*
X201653500Y-87017000D01*
G75*
G02*
X201716000Y-87079500I0J-62500D01*
G01*
G37*
G36*
G01*
X201716000Y-87579500D02*
X201716000Y-87704500D01*
G75*
G02*
X201653500Y-87767000I-62500J0D01*
G01*
X200978500Y-87767000D01*
G75*
G02*
X200916000Y-87704500I0J62500D01*
G01*
X200916000Y-87579500D01*
G75*
G02*
X200978500Y-87517000I62500J0D01*
G01*
X201653500Y-87517000D01*
G75*
G02*
X201716000Y-87579500I0J-62500D01*
G01*
G37*
G36*
G01*
X201716000Y-88079500D02*
X201716000Y-88204500D01*
G75*
G02*
X201653500Y-88267000I-62500J0D01*
G01*
X200978500Y-88267000D01*
G75*
G02*
X200916000Y-88204500I0J62500D01*
G01*
X200916000Y-88079500D01*
G75*
G02*
X200978500Y-88017000I62500J0D01*
G01*
X201653500Y-88017000D01*
G75*
G02*
X201716000Y-88079500I0J-62500D01*
G01*
G37*
G36*
G01*
X201716000Y-88579500D02*
X201716000Y-88704500D01*
G75*
G02*
X201653500Y-88767000I-62500J0D01*
G01*
X200978500Y-88767000D01*
G75*
G02*
X200916000Y-88704500I0J62500D01*
G01*
X200916000Y-88579500D01*
G75*
G02*
X200978500Y-88517000I62500J0D01*
G01*
X201653500Y-88517000D01*
G75*
G02*
X201716000Y-88579500I0J-62500D01*
G01*
G37*
G36*
G01*
X201716000Y-89079500D02*
X201716000Y-89204500D01*
G75*
G02*
X201653500Y-89267000I-62500J0D01*
G01*
X200978500Y-89267000D01*
G75*
G02*
X200916000Y-89204500I0J62500D01*
G01*
X200916000Y-89079500D01*
G75*
G02*
X200978500Y-89017000I62500J0D01*
G01*
X201653500Y-89017000D01*
G75*
G02*
X201716000Y-89079500I0J-62500D01*
G01*
G37*
G36*
G01*
X201716000Y-89579500D02*
X201716000Y-89704500D01*
G75*
G02*
X201653500Y-89767000I-62500J0D01*
G01*
X200978500Y-89767000D01*
G75*
G02*
X200916000Y-89704500I0J62500D01*
G01*
X200916000Y-89579500D01*
G75*
G02*
X200978500Y-89517000I62500J0D01*
G01*
X201653500Y-89517000D01*
G75*
G02*
X201716000Y-89579500I0J-62500D01*
G01*
G37*
G36*
G01*
X201716000Y-90079500D02*
X201716000Y-90204500D01*
G75*
G02*
X201653500Y-90267000I-62500J0D01*
G01*
X200978500Y-90267000D01*
G75*
G02*
X200916000Y-90204500I0J62500D01*
G01*
X200916000Y-90079500D01*
G75*
G02*
X200978500Y-90017000I62500J0D01*
G01*
X201653500Y-90017000D01*
G75*
G02*
X201716000Y-90079500I0J-62500D01*
G01*
G37*
G36*
G01*
X201716000Y-90579500D02*
X201716000Y-90704500D01*
G75*
G02*
X201653500Y-90767000I-62500J0D01*
G01*
X200978500Y-90767000D01*
G75*
G02*
X200916000Y-90704500I0J62500D01*
G01*
X200916000Y-90579500D01*
G75*
G02*
X200978500Y-90517000I62500J0D01*
G01*
X201653500Y-90517000D01*
G75*
G02*
X201716000Y-90579500I0J-62500D01*
G01*
G37*
G36*
G01*
X201716000Y-91079500D02*
X201716000Y-91204500D01*
G75*
G02*
X201653500Y-91267000I-62500J0D01*
G01*
X200978500Y-91267000D01*
G75*
G02*
X200916000Y-91204500I0J62500D01*
G01*
X200916000Y-91079500D01*
G75*
G02*
X200978500Y-91017000I62500J0D01*
G01*
X201653500Y-91017000D01*
G75*
G02*
X201716000Y-91079500I0J-62500D01*
G01*
G37*
%TD*%
D17*
%TO.C,U1*%
X192852000Y-94650000D03*
X194752000Y-94650000D03*
X194752000Y-97350000D03*
X193802000Y-97350000D03*
X192852000Y-97350000D03*
%TD*%
D18*
%TO.C,J3*%
X190118000Y-92964000D03*
X190118000Y-87884000D03*
X190118000Y-82804000D03*
X190118000Y-77724000D03*
X186818000Y-95504000D03*
X186818000Y-90424000D03*
X186818000Y-85344000D03*
X186818000Y-80264000D03*
%TD*%
%TO.C,D9*%
G36*
G01*
X195992000Y-82566500D02*
X195992000Y-83041500D01*
G75*
G02*
X195754500Y-83279000I-237500J0D01*
G01*
X195179500Y-83279000D01*
G75*
G02*
X194942000Y-83041500I0J237500D01*
G01*
X194942000Y-82566500D01*
G75*
G02*
X195179500Y-82329000I237500J0D01*
G01*
X195754500Y-82329000D01*
G75*
G02*
X195992000Y-82566500I0J-237500D01*
G01*
G37*
G36*
G01*
X197742000Y-82566500D02*
X197742000Y-83041500D01*
G75*
G02*
X197504500Y-83279000I-237500J0D01*
G01*
X196929500Y-83279000D01*
G75*
G02*
X196692000Y-83041500I0J237500D01*
G01*
X196692000Y-82566500D01*
G75*
G02*
X196929500Y-82329000I237500J0D01*
G01*
X197504500Y-82329000D01*
G75*
G02*
X197742000Y-82566500I0J-237500D01*
G01*
G37*
%TD*%
M02*
