%TF.GenerationSoftware,KiCad,Pcbnew,(5.1.9)-1*%
%TF.CreationDate,2021-06-07T11:13:50+02:00*%
%TF.ProjectId,esp32PicoD4,65737033-3250-4696-936f-44342e6b6963,rev?*%
%TF.SameCoordinates,Original*%
%TF.FileFunction,Copper,L1,Top*%
%TF.FilePolarity,Positive*%
%FSLAX46Y46*%
G04 Gerber Fmt 4.6, Leading zero omitted, Abs format (unit mm)*
G04 Created by KiCad (PCBNEW (5.1.9)-1) date 2021-06-07 11:13:50*
%MOMM*%
%LPD*%
G01*
G04 APERTURE LIST*
%TA.AperFunction,EtchedComponent*%
%ADD10C,0.100000*%
%TD*%
%TA.AperFunction,SMDPad,CuDef*%
%ADD11R,2.200000X1.050000*%
%TD*%
%TA.AperFunction,SMDPad,CuDef*%
%ADD12R,1.050000X1.000000*%
%TD*%
%TA.AperFunction,SMDPad,CuDef*%
%ADD13C,0.100000*%
%TD*%
%TA.AperFunction,SMDPad,CuDef*%
%ADD14R,1.000000X1.500000*%
%TD*%
%TA.AperFunction,ComponentPad*%
%ADD15O,1.700000X1.700000*%
%TD*%
%TA.AperFunction,ComponentPad*%
%ADD16R,1.700000X1.700000*%
%TD*%
%TA.AperFunction,SMDPad,CuDef*%
%ADD17R,5.300000X5.300000*%
%TD*%
%TA.AperFunction,SMDPad,CuDef*%
%ADD18R,0.650000X1.560000*%
%TD*%
%TA.AperFunction,SMDPad,CuDef*%
%ADD19R,1.900000X1.000000*%
%TD*%
%TA.AperFunction,ConnectorPad*%
%ADD20R,0.500000X0.500000*%
%TD*%
%TA.AperFunction,ComponentPad*%
%ADD21R,0.900000X0.500000*%
%TD*%
%TA.AperFunction,ViaPad*%
%ADD22C,1.300000*%
%TD*%
%TA.AperFunction,ViaPad*%
%ADD23C,0.800000*%
%TD*%
%TA.AperFunction,Conductor*%
%ADD24C,0.250000*%
%TD*%
%TA.AperFunction,Conductor*%
%ADD25C,0.350000*%
%TD*%
%TA.AperFunction,Conductor*%
%ADD26C,0.500000*%
%TD*%
%TA.AperFunction,Conductor*%
%ADD27C,0.700000*%
%TD*%
%TA.AperFunction,Conductor*%
%ADD28C,0.400000*%
%TD*%
%TA.AperFunction,Conductor*%
%ADD29C,0.254000*%
%TD*%
%TA.AperFunction,Conductor*%
%ADD30C,0.100000*%
%TD*%
G04 APERTURE END LIST*
D10*
%TO.C,A1*%
G36*
X201512000Y-79174000D02*
G01*
X199512000Y-79174000D01*
X199512000Y-76534000D01*
X196812000Y-76534000D01*
X196812000Y-79174000D01*
X194812000Y-79174000D01*
X194812000Y-76534000D01*
X192112000Y-76534000D01*
X192112000Y-80974000D01*
X192612000Y-80974000D01*
X192612000Y-77034000D01*
X194312000Y-77034000D01*
X194312000Y-79674000D01*
X197312000Y-79674000D01*
X197312000Y-77034000D01*
X199012000Y-77034000D01*
X199012000Y-79674000D01*
X202012000Y-79674000D01*
X202012000Y-77034000D01*
X203712000Y-77034000D01*
X203712000Y-81934000D01*
X204212000Y-81934000D01*
X204212000Y-77034000D01*
X205612000Y-77034000D01*
X205612000Y-81934000D01*
X206512000Y-81934000D01*
X206512000Y-81690785D01*
X206209583Y-81690785D01*
X206199742Y-81738395D01*
X206175674Y-81780797D01*
X206137731Y-81813581D01*
X206129819Y-81817935D01*
X206087156Y-81830043D01*
X206038637Y-81829300D01*
X205993122Y-81816400D01*
X205974511Y-81805787D01*
X205940868Y-81770553D01*
X205920309Y-81725368D01*
X205913778Y-81675842D01*
X205922218Y-81627583D01*
X205939112Y-81595357D01*
X205974372Y-81562687D01*
X206019682Y-81542592D01*
X206069267Y-81536018D01*
X206117353Y-81543908D01*
X206150245Y-81560814D01*
X206185185Y-81597584D01*
X206204847Y-81642378D01*
X206209583Y-81690785D01*
X206512000Y-81690785D01*
X206512000Y-76534000D01*
X201512000Y-76534000D01*
X201512000Y-79174000D01*
G37*
%TD*%
%TO.P,R3,2*%
%TO.N,/RESET2*%
%TA.AperFunction,SMDPad,CuDef*%
G36*
G01*
X205328000Y-87409500D02*
X205328000Y-86934500D01*
G75*
G02*
X205565500Y-86697000I237500J0D01*
G01*
X206140500Y-86697000D01*
G75*
G02*
X206378000Y-86934500I0J-237500D01*
G01*
X206378000Y-87409500D01*
G75*
G02*
X206140500Y-87647000I-237500J0D01*
G01*
X205565500Y-87647000D01*
G75*
G02*
X205328000Y-87409500I0J237500D01*
G01*
G37*
%TD.AperFunction*%
%TO.P,R3,1*%
%TO.N,+3V0*%
%TA.AperFunction,SMDPad,CuDef*%
G36*
G01*
X203578000Y-87409500D02*
X203578000Y-86934500D01*
G75*
G02*
X203815500Y-86697000I237500J0D01*
G01*
X204390500Y-86697000D01*
G75*
G02*
X204628000Y-86934500I0J-237500D01*
G01*
X204628000Y-87409500D01*
G75*
G02*
X204390500Y-87647000I-237500J0D01*
G01*
X203815500Y-87647000D01*
G75*
G02*
X203578000Y-87409500I0J237500D01*
G01*
G37*
%TD.AperFunction*%
%TD*%
D11*
%TO.P,AE1,2*%
%TO.N,GNDD*%
X206723000Y-89049000D03*
D12*
%TO.P,AE1,1*%
%TO.N,Net-(AE1-Pad1)*%
X205198000Y-90524000D03*
D11*
%TO.P,AE1,2*%
%TO.N,GNDD*%
X206723000Y-91999000D03*
%TD*%
%TA.AperFunction,SMDPad,CuDef*%
D13*
%TO.P,B1,2*%
%TO.N,Net-(B1-Pad2)*%
G36*
X208676000Y-101358602D02*
G01*
X208700534Y-101358602D01*
X208749365Y-101363412D01*
X208797490Y-101372984D01*
X208844445Y-101387228D01*
X208889778Y-101406005D01*
X208933051Y-101429136D01*
X208973850Y-101456396D01*
X209011779Y-101487524D01*
X209046476Y-101522221D01*
X209077604Y-101560150D01*
X209104864Y-101600949D01*
X209127995Y-101644222D01*
X209146772Y-101689555D01*
X209161016Y-101736510D01*
X209170588Y-101784635D01*
X209175398Y-101833466D01*
X209175398Y-101858000D01*
X209176000Y-101858000D01*
X209176000Y-102358000D01*
X209175398Y-102358000D01*
X209175398Y-102382534D01*
X209170588Y-102431365D01*
X209161016Y-102479490D01*
X209146772Y-102526445D01*
X209127995Y-102571778D01*
X209104864Y-102615051D01*
X209077604Y-102655850D01*
X209046476Y-102693779D01*
X209011779Y-102728476D01*
X208973850Y-102759604D01*
X208933051Y-102786864D01*
X208889778Y-102809995D01*
X208844445Y-102828772D01*
X208797490Y-102843016D01*
X208749365Y-102852588D01*
X208700534Y-102857398D01*
X208676000Y-102857398D01*
X208676000Y-102858000D01*
X208176000Y-102858000D01*
X208176000Y-101358000D01*
X208676000Y-101358000D01*
X208676000Y-101358602D01*
G37*
%TD.AperFunction*%
%TA.AperFunction,SMDPad,CuDef*%
%TO.P,B1,1*%
%TO.N,/BOOT2*%
G36*
X207876000Y-102858000D02*
G01*
X207376000Y-102858000D01*
X207376000Y-102857398D01*
X207351466Y-102857398D01*
X207302635Y-102852588D01*
X207254510Y-102843016D01*
X207207555Y-102828772D01*
X207162222Y-102809995D01*
X207118949Y-102786864D01*
X207078150Y-102759604D01*
X207040221Y-102728476D01*
X207005524Y-102693779D01*
X206974396Y-102655850D01*
X206947136Y-102615051D01*
X206924005Y-102571778D01*
X206905228Y-102526445D01*
X206890984Y-102479490D01*
X206881412Y-102431365D01*
X206876602Y-102382534D01*
X206876602Y-102358000D01*
X206876000Y-102358000D01*
X206876000Y-101858000D01*
X206876602Y-101858000D01*
X206876602Y-101833466D01*
X206881412Y-101784635D01*
X206890984Y-101736510D01*
X206905228Y-101689555D01*
X206924005Y-101644222D01*
X206947136Y-101600949D01*
X206974396Y-101560150D01*
X207005524Y-101522221D01*
X207040221Y-101487524D01*
X207078150Y-101456396D01*
X207118949Y-101429136D01*
X207162222Y-101406005D01*
X207207555Y-101387228D01*
X207254510Y-101372984D01*
X207302635Y-101363412D01*
X207351466Y-101358602D01*
X207376000Y-101358602D01*
X207376000Y-101358000D01*
X207876000Y-101358000D01*
X207876000Y-102858000D01*
G37*
%TD.AperFunction*%
%TD*%
%TO.P,C1,2*%
%TO.N,GNDD*%
%TA.AperFunction,SMDPad,CuDef*%
G36*
G01*
X190279000Y-96462000D02*
X191229000Y-96462000D01*
G75*
G02*
X191479000Y-96712000I0J-250000D01*
G01*
X191479000Y-97387000D01*
G75*
G02*
X191229000Y-97637000I-250000J0D01*
G01*
X190279000Y-97637000D01*
G75*
G02*
X190029000Y-97387000I0J250000D01*
G01*
X190029000Y-96712000D01*
G75*
G02*
X190279000Y-96462000I250000J0D01*
G01*
G37*
%TD.AperFunction*%
%TO.P,C1,1*%
%TO.N,+3V0*%
%TA.AperFunction,SMDPad,CuDef*%
G36*
G01*
X190279000Y-94387000D02*
X191229000Y-94387000D01*
G75*
G02*
X191479000Y-94637000I0J-250000D01*
G01*
X191479000Y-95312000D01*
G75*
G02*
X191229000Y-95562000I-250000J0D01*
G01*
X190279000Y-95562000D01*
G75*
G02*
X190029000Y-95312000I0J250000D01*
G01*
X190029000Y-94637000D01*
G75*
G02*
X190279000Y-94387000I250000J0D01*
G01*
G37*
%TD.AperFunction*%
%TD*%
%TO.P,L6,2*%
%TO.N,Net-(AE1-Pad1)*%
%TA.AperFunction,SMDPad,CuDef*%
G36*
G01*
X208042500Y-86650000D02*
X208517500Y-86650000D01*
G75*
G02*
X208755000Y-86887500I0J-237500D01*
G01*
X208755000Y-87462500D01*
G75*
G02*
X208517500Y-87700000I-237500J0D01*
G01*
X208042500Y-87700000D01*
G75*
G02*
X207805000Y-87462500I0J237500D01*
G01*
X207805000Y-86887500D01*
G75*
G02*
X208042500Y-86650000I237500J0D01*
G01*
G37*
%TD.AperFunction*%
%TO.P,L6,1*%
%TO.N,Net-(A1-Pad1)*%
%TA.AperFunction,SMDPad,CuDef*%
G36*
G01*
X208042500Y-84900000D02*
X208517500Y-84900000D01*
G75*
G02*
X208755000Y-85137500I0J-237500D01*
G01*
X208755000Y-85712500D01*
G75*
G02*
X208517500Y-85950000I-237500J0D01*
G01*
X208042500Y-85950000D01*
G75*
G02*
X207805000Y-85712500I0J237500D01*
G01*
X207805000Y-85137500D01*
G75*
G02*
X208042500Y-84900000I237500J0D01*
G01*
G37*
%TD.AperFunction*%
%TD*%
%TO.P,C8,2*%
%TO.N,GNDD*%
%TA.AperFunction,SMDPad,CuDef*%
G36*
G01*
X204232500Y-91611000D02*
X204707500Y-91611000D01*
G75*
G02*
X204945000Y-91848500I0J-237500D01*
G01*
X204945000Y-92448500D01*
G75*
G02*
X204707500Y-92686000I-237500J0D01*
G01*
X204232500Y-92686000D01*
G75*
G02*
X203995000Y-92448500I0J237500D01*
G01*
X203995000Y-91848500D01*
G75*
G02*
X204232500Y-91611000I237500J0D01*
G01*
G37*
%TD.AperFunction*%
%TO.P,C8,1*%
%TO.N,Net-(AE1-Pad1)*%
%TA.AperFunction,SMDPad,CuDef*%
G36*
G01*
X204232500Y-89886000D02*
X204707500Y-89886000D01*
G75*
G02*
X204945000Y-90123500I0J-237500D01*
G01*
X204945000Y-90723500D01*
G75*
G02*
X204707500Y-90961000I-237500J0D01*
G01*
X204232500Y-90961000D01*
G75*
G02*
X203995000Y-90723500I0J237500D01*
G01*
X203995000Y-90123500D01*
G75*
G02*
X204232500Y-89886000I237500J0D01*
G01*
G37*
%TD.AperFunction*%
%TD*%
%TO.P,C7,2*%
%TO.N,GNDD*%
%TA.AperFunction,SMDPad,CuDef*%
G36*
G01*
X205811000Y-83295500D02*
X205811000Y-82820500D01*
G75*
G02*
X206048500Y-82583000I237500J0D01*
G01*
X206648500Y-82583000D01*
G75*
G02*
X206886000Y-82820500I0J-237500D01*
G01*
X206886000Y-83295500D01*
G75*
G02*
X206648500Y-83533000I-237500J0D01*
G01*
X206048500Y-83533000D01*
G75*
G02*
X205811000Y-83295500I0J237500D01*
G01*
G37*
%TD.AperFunction*%
%TO.P,C7,1*%
%TO.N,Net-(A1-Pad1)*%
%TA.AperFunction,SMDPad,CuDef*%
G36*
G01*
X204086000Y-83295500D02*
X204086000Y-82820500D01*
G75*
G02*
X204323500Y-82583000I237500J0D01*
G01*
X204923500Y-82583000D01*
G75*
G02*
X205161000Y-82820500I0J-237500D01*
G01*
X205161000Y-83295500D01*
G75*
G02*
X204923500Y-83533000I-237500J0D01*
G01*
X204323500Y-83533000D01*
G75*
G02*
X204086000Y-83295500I0J237500D01*
G01*
G37*
%TD.AperFunction*%
%TD*%
D14*
%TO.P,D8,1*%
%TO.N,+BATT*%
X208864000Y-94324000D03*
%TO.P,D8,2*%
%TO.N,N/C*%
X205664000Y-94324000D03*
%TO.P,D8,4*%
%TO.N,Net-(B1-Pad2)*%
X208864000Y-99224000D03*
%TO.P,D8,3*%
%TO.N,GNDD*%
X205664000Y-99224000D03*
%TD*%
%TO.P,R1,2*%
%TO.N,/IO26*%
%TA.AperFunction,SMDPad,CuDef*%
G36*
G01*
X200248000Y-83087500D02*
X200248000Y-82612500D01*
G75*
G02*
X200485500Y-82375000I237500J0D01*
G01*
X201060500Y-82375000D01*
G75*
G02*
X201298000Y-82612500I0J-237500D01*
G01*
X201298000Y-83087500D01*
G75*
G02*
X201060500Y-83325000I-237500J0D01*
G01*
X200485500Y-83325000D01*
G75*
G02*
X200248000Y-83087500I0J237500D01*
G01*
G37*
%TD.AperFunction*%
%TO.P,R1,1*%
%TO.N,Net-(D9-Pad1)*%
%TA.AperFunction,SMDPad,CuDef*%
G36*
G01*
X198498000Y-83087500D02*
X198498000Y-82612500D01*
G75*
G02*
X198735500Y-82375000I237500J0D01*
G01*
X199310500Y-82375000D01*
G75*
G02*
X199548000Y-82612500I0J-237500D01*
G01*
X199548000Y-83087500D01*
G75*
G02*
X199310500Y-83325000I-237500J0D01*
G01*
X198735500Y-83325000D01*
G75*
G02*
X198498000Y-83087500I0J237500D01*
G01*
G37*
%TD.AperFunction*%
%TD*%
%TO.P,R8,2*%
%TO.N,/RXD3*%
%TA.AperFunction,SMDPad,CuDef*%
G36*
G01*
X199244000Y-98863999D02*
X199244000Y-99764001D01*
G75*
G02*
X198994001Y-100014000I-249999J0D01*
G01*
X198293999Y-100014000D01*
G75*
G02*
X198044000Y-99764001I0J249999D01*
G01*
X198044000Y-98863999D01*
G75*
G02*
X198293999Y-98614000I249999J0D01*
G01*
X198994001Y-98614000D01*
G75*
G02*
X199244000Y-98863999I0J-249999D01*
G01*
G37*
%TD.AperFunction*%
%TO.P,R8,1*%
%TO.N,Net-(R8-Pad1)*%
%TA.AperFunction,SMDPad,CuDef*%
G36*
G01*
X201244000Y-98863999D02*
X201244000Y-99764001D01*
G75*
G02*
X200994001Y-100014000I-249999J0D01*
G01*
X200293999Y-100014000D01*
G75*
G02*
X200044000Y-99764001I0J249999D01*
G01*
X200044000Y-98863999D01*
G75*
G02*
X200293999Y-98614000I249999J0D01*
G01*
X200994001Y-98614000D01*
G75*
G02*
X201244000Y-98863999I0J-249999D01*
G01*
G37*
%TD.AperFunction*%
%TD*%
%TO.P,R7,2*%
%TO.N,/TXD3*%
%TA.AperFunction,SMDPad,CuDef*%
G36*
G01*
X199244000Y-96577999D02*
X199244000Y-97478001D01*
G75*
G02*
X198994001Y-97728000I-249999J0D01*
G01*
X198293999Y-97728000D01*
G75*
G02*
X198044000Y-97478001I0J249999D01*
G01*
X198044000Y-96577999D01*
G75*
G02*
X198293999Y-96328000I249999J0D01*
G01*
X198994001Y-96328000D01*
G75*
G02*
X199244000Y-96577999I0J-249999D01*
G01*
G37*
%TD.AperFunction*%
%TO.P,R7,1*%
%TO.N,Net-(R7-Pad1)*%
%TA.AperFunction,SMDPad,CuDef*%
G36*
G01*
X201244000Y-96577999D02*
X201244000Y-97478001D01*
G75*
G02*
X200994001Y-97728000I-249999J0D01*
G01*
X200293999Y-97728000D01*
G75*
G02*
X200044000Y-97478001I0J249999D01*
G01*
X200044000Y-96577999D01*
G75*
G02*
X200293999Y-96328000I249999J0D01*
G01*
X200994001Y-96328000D01*
G75*
G02*
X201244000Y-96577999I0J-249999D01*
G01*
G37*
%TD.AperFunction*%
%TD*%
%TO.P,RX1,2*%
%TO.N,+3V0*%
%TA.AperFunction,SMDPad,CuDef*%
G36*
G01*
X202675500Y-97186000D02*
X202200500Y-97186000D01*
G75*
G02*
X201963000Y-96948500I0J237500D01*
G01*
X201963000Y-96373500D01*
G75*
G02*
X202200500Y-96136000I237500J0D01*
G01*
X202675500Y-96136000D01*
G75*
G02*
X202913000Y-96373500I0J-237500D01*
G01*
X202913000Y-96948500D01*
G75*
G02*
X202675500Y-97186000I-237500J0D01*
G01*
G37*
%TD.AperFunction*%
%TO.P,RX1,1*%
%TO.N,Net-(R8-Pad1)*%
%TA.AperFunction,SMDPad,CuDef*%
G36*
G01*
X202675500Y-98936000D02*
X202200500Y-98936000D01*
G75*
G02*
X201963000Y-98698500I0J237500D01*
G01*
X201963000Y-98123500D01*
G75*
G02*
X202200500Y-97886000I237500J0D01*
G01*
X202675500Y-97886000D01*
G75*
G02*
X202913000Y-98123500I0J-237500D01*
G01*
X202913000Y-98698500D01*
G75*
G02*
X202675500Y-98936000I-237500J0D01*
G01*
G37*
%TD.AperFunction*%
%TD*%
%TO.P,TX1,2*%
%TO.N,+3V0*%
%TA.AperFunction,SMDPad,CuDef*%
G36*
G01*
X198278000Y-95012500D02*
X198278000Y-95487500D01*
G75*
G02*
X198040500Y-95725000I-237500J0D01*
G01*
X197465500Y-95725000D01*
G75*
G02*
X197228000Y-95487500I0J237500D01*
G01*
X197228000Y-95012500D01*
G75*
G02*
X197465500Y-94775000I237500J0D01*
G01*
X198040500Y-94775000D01*
G75*
G02*
X198278000Y-95012500I0J-237500D01*
G01*
G37*
%TD.AperFunction*%
%TO.P,TX1,1*%
%TO.N,Net-(R7-Pad1)*%
%TA.AperFunction,SMDPad,CuDef*%
G36*
G01*
X200028000Y-95012500D02*
X200028000Y-95487500D01*
G75*
G02*
X199790500Y-95725000I-237500J0D01*
G01*
X199215500Y-95725000D01*
G75*
G02*
X198978000Y-95487500I0J237500D01*
G01*
X198978000Y-95012500D01*
G75*
G02*
X199215500Y-94775000I237500J0D01*
G01*
X199790500Y-94775000D01*
G75*
G02*
X200028000Y-95012500I0J-237500D01*
G01*
G37*
%TD.AperFunction*%
%TD*%
D15*
%TO.P,J1,6*%
%TO.N,GNDD*%
X204470000Y-102208000D03*
%TO.P,J1,5*%
%TO.N,/BOOT2*%
X201930000Y-102208000D03*
%TO.P,J1,4*%
%TO.N,/RESET2*%
X199390000Y-102208000D03*
%TO.P,J1,3*%
%TO.N,/RXD3*%
X196850000Y-102208000D03*
%TO.P,J1,2*%
%TO.N,/TXD3*%
X194310000Y-102208000D03*
D16*
%TO.P,J1,1*%
%TO.N,+BATT*%
X191770000Y-102208000D03*
%TD*%
%TO.P,R5,2*%
%TO.N,Net-(R5-Pad2)*%
%TA.AperFunction,SMDPad,CuDef*%
G36*
G01*
X195980000Y-99850001D02*
X195980000Y-98949999D01*
G75*
G02*
X196229999Y-98700000I249999J0D01*
G01*
X196930001Y-98700000D01*
G75*
G02*
X197180000Y-98949999I0J-249999D01*
G01*
X197180000Y-99850001D01*
G75*
G02*
X196930001Y-100100000I-249999J0D01*
G01*
X196229999Y-100100000D01*
G75*
G02*
X195980000Y-99850001I0J249999D01*
G01*
G37*
%TD.AperFunction*%
%TO.P,R5,1*%
%TO.N,+BATT*%
%TA.AperFunction,SMDPad,CuDef*%
G36*
G01*
X193980000Y-99850001D02*
X193980000Y-98949999D01*
G75*
G02*
X194229999Y-98700000I249999J0D01*
G01*
X194930001Y-98700000D01*
G75*
G02*
X195180000Y-98949999I0J-249999D01*
G01*
X195180000Y-99850001D01*
G75*
G02*
X194930001Y-100100000I-249999J0D01*
G01*
X194229999Y-100100000D01*
G75*
G02*
X193980000Y-99850001I0J249999D01*
G01*
G37*
%TD.AperFunction*%
%TD*%
%TO.P,R2,2*%
%TO.N,Net-(J3-Pad8)*%
%TA.AperFunction,SMDPad,CuDef*%
G36*
G01*
X190608000Y-98949999D02*
X190608000Y-99850001D01*
G75*
G02*
X190358001Y-100100000I-249999J0D01*
G01*
X189657999Y-100100000D01*
G75*
G02*
X189408000Y-99850001I0J249999D01*
G01*
X189408000Y-98949999D01*
G75*
G02*
X189657999Y-98700000I249999J0D01*
G01*
X190358001Y-98700000D01*
G75*
G02*
X190608000Y-98949999I0J-249999D01*
G01*
G37*
%TD.AperFunction*%
%TO.P,R2,1*%
%TO.N,+3V0*%
%TA.AperFunction,SMDPad,CuDef*%
G36*
G01*
X192608000Y-98949999D02*
X192608000Y-99850001D01*
G75*
G02*
X192358001Y-100100000I-249999J0D01*
G01*
X191657999Y-100100000D01*
G75*
G02*
X191408000Y-99850001I0J249999D01*
G01*
X191408000Y-98949999D01*
G75*
G02*
X191657999Y-98700000I249999J0D01*
G01*
X192358001Y-98700000D01*
G75*
G02*
X192608000Y-98949999I0J-249999D01*
G01*
G37*
%TD.AperFunction*%
%TD*%
%TO.P,R6,2*%
%TO.N,/LORA_RESET*%
%TA.AperFunction,SMDPad,CuDef*%
G36*
G01*
X186798000Y-98863999D02*
X186798000Y-99764001D01*
G75*
G02*
X186548001Y-100014000I-249999J0D01*
G01*
X185847999Y-100014000D01*
G75*
G02*
X185598000Y-99764001I0J249999D01*
G01*
X185598000Y-98863999D01*
G75*
G02*
X185847999Y-98614000I249999J0D01*
G01*
X186548001Y-98614000D01*
G75*
G02*
X186798000Y-98863999I0J-249999D01*
G01*
G37*
%TD.AperFunction*%
%TO.P,R6,1*%
%TO.N,+BATT*%
%TA.AperFunction,SMDPad,CuDef*%
G36*
G01*
X188798000Y-98863999D02*
X188798000Y-99764001D01*
G75*
G02*
X188548001Y-100014000I-249999J0D01*
G01*
X187847999Y-100014000D01*
G75*
G02*
X187598000Y-99764001I0J249999D01*
G01*
X187598000Y-98863999D01*
G75*
G02*
X187847999Y-98614000I249999J0D01*
G01*
X188548001Y-98614000D01*
G75*
G02*
X188798000Y-98863999I0J-249999D01*
G01*
G37*
%TD.AperFunction*%
%TD*%
%TO.P,C11,2*%
%TO.N,GNDD*%
%TA.AperFunction,SMDPad,CuDef*%
G36*
G01*
X202634000Y-94455000D02*
X202634000Y-93505000D01*
G75*
G02*
X202884000Y-93255000I250000J0D01*
G01*
X203559000Y-93255000D01*
G75*
G02*
X203809000Y-93505000I0J-250000D01*
G01*
X203809000Y-94455000D01*
G75*
G02*
X203559000Y-94705000I-250000J0D01*
G01*
X202884000Y-94705000D01*
G75*
G02*
X202634000Y-94455000I0J250000D01*
G01*
G37*
%TD.AperFunction*%
%TO.P,C11,1*%
%TO.N,+3V0*%
%TA.AperFunction,SMDPad,CuDef*%
G36*
G01*
X200559000Y-94455000D02*
X200559000Y-93505000D01*
G75*
G02*
X200809000Y-93255000I250000J0D01*
G01*
X201484000Y-93255000D01*
G75*
G02*
X201734000Y-93505000I0J-250000D01*
G01*
X201734000Y-94455000D01*
G75*
G02*
X201484000Y-94705000I-250000J0D01*
G01*
X200809000Y-94705000D01*
G75*
G02*
X200559000Y-94455000I0J250000D01*
G01*
G37*
%TD.AperFunction*%
%TD*%
%TO.P,C4,2*%
%TO.N,GNDD*%
%TA.AperFunction,SMDPad,CuDef*%
G36*
G01*
X205936000Y-85819000D02*
X205936000Y-84869000D01*
G75*
G02*
X206186000Y-84619000I250000J0D01*
G01*
X206861000Y-84619000D01*
G75*
G02*
X207111000Y-84869000I0J-250000D01*
G01*
X207111000Y-85819000D01*
G75*
G02*
X206861000Y-86069000I-250000J0D01*
G01*
X206186000Y-86069000D01*
G75*
G02*
X205936000Y-85819000I0J250000D01*
G01*
G37*
%TD.AperFunction*%
%TO.P,C4,1*%
%TO.N,/RESET2*%
%TA.AperFunction,SMDPad,CuDef*%
G36*
G01*
X203861000Y-85819000D02*
X203861000Y-84869000D01*
G75*
G02*
X204111000Y-84619000I250000J0D01*
G01*
X204786000Y-84619000D01*
G75*
G02*
X205036000Y-84869000I0J-250000D01*
G01*
X205036000Y-85819000D01*
G75*
G02*
X204786000Y-86069000I-250000J0D01*
G01*
X204111000Y-86069000D01*
G75*
G02*
X203861000Y-85819000I0J250000D01*
G01*
G37*
%TD.AperFunction*%
%TD*%
D17*
%TO.P,U2,49*%
%TO.N,GNDD*%
X197866000Y-88392000D03*
%TO.P,U2,48*%
%TO.N,N/C*%
%TA.AperFunction,SMDPad,CuDef*%
G36*
G01*
X200741000Y-91504500D02*
X200741000Y-92179500D01*
G75*
G02*
X200678500Y-92242000I-62500J0D01*
G01*
X200553500Y-92242000D01*
G75*
G02*
X200491000Y-92179500I0J62500D01*
G01*
X200491000Y-91504500D01*
G75*
G02*
X200553500Y-91442000I62500J0D01*
G01*
X200678500Y-91442000D01*
G75*
G02*
X200741000Y-91504500I0J-62500D01*
G01*
G37*
%TD.AperFunction*%
%TO.P,U2,47*%
%TA.AperFunction,SMDPad,CuDef*%
G36*
G01*
X200241000Y-91504500D02*
X200241000Y-92179500D01*
G75*
G02*
X200178500Y-92242000I-62500J0D01*
G01*
X200053500Y-92242000D01*
G75*
G02*
X199991000Y-92179500I0J62500D01*
G01*
X199991000Y-91504500D01*
G75*
G02*
X200053500Y-91442000I62500J0D01*
G01*
X200178500Y-91442000D01*
G75*
G02*
X200241000Y-91504500I0J-62500D01*
G01*
G37*
%TD.AperFunction*%
%TO.P,U2,46*%
%TO.N,+3V0*%
%TA.AperFunction,SMDPad,CuDef*%
G36*
G01*
X199741000Y-91504500D02*
X199741000Y-92179500D01*
G75*
G02*
X199678500Y-92242000I-62500J0D01*
G01*
X199553500Y-92242000D01*
G75*
G02*
X199491000Y-92179500I0J62500D01*
G01*
X199491000Y-91504500D01*
G75*
G02*
X199553500Y-91442000I62500J0D01*
G01*
X199678500Y-91442000D01*
G75*
G02*
X199741000Y-91504500I0J-62500D01*
G01*
G37*
%TD.AperFunction*%
%TO.P,U2,45*%
%TO.N,N/C*%
%TA.AperFunction,SMDPad,CuDef*%
G36*
G01*
X199241000Y-91504500D02*
X199241000Y-92179500D01*
G75*
G02*
X199178500Y-92242000I-62500J0D01*
G01*
X199053500Y-92242000D01*
G75*
G02*
X198991000Y-92179500I0J62500D01*
G01*
X198991000Y-91504500D01*
G75*
G02*
X199053500Y-91442000I62500J0D01*
G01*
X199178500Y-91442000D01*
G75*
G02*
X199241000Y-91504500I0J-62500D01*
G01*
G37*
%TD.AperFunction*%
%TO.P,U2,44*%
%TA.AperFunction,SMDPad,CuDef*%
G36*
G01*
X198741000Y-91504500D02*
X198741000Y-92179500D01*
G75*
G02*
X198678500Y-92242000I-62500J0D01*
G01*
X198553500Y-92242000D01*
G75*
G02*
X198491000Y-92179500I0J62500D01*
G01*
X198491000Y-91504500D01*
G75*
G02*
X198553500Y-91442000I62500J0D01*
G01*
X198678500Y-91442000D01*
G75*
G02*
X198741000Y-91504500I0J-62500D01*
G01*
G37*
%TD.AperFunction*%
%TO.P,U2,43*%
%TO.N,+3V0*%
%TA.AperFunction,SMDPad,CuDef*%
G36*
G01*
X198241000Y-91504500D02*
X198241000Y-92179500D01*
G75*
G02*
X198178500Y-92242000I-62500J0D01*
G01*
X198053500Y-92242000D01*
G75*
G02*
X197991000Y-92179500I0J62500D01*
G01*
X197991000Y-91504500D01*
G75*
G02*
X198053500Y-91442000I62500J0D01*
G01*
X198178500Y-91442000D01*
G75*
G02*
X198241000Y-91504500I0J-62500D01*
G01*
G37*
%TD.AperFunction*%
%TO.P,U2,42*%
%TO.N,/SCL*%
%TA.AperFunction,SMDPad,CuDef*%
G36*
G01*
X197741000Y-91504500D02*
X197741000Y-92179500D01*
G75*
G02*
X197678500Y-92242000I-62500J0D01*
G01*
X197553500Y-92242000D01*
G75*
G02*
X197491000Y-92179500I0J62500D01*
G01*
X197491000Y-91504500D01*
G75*
G02*
X197553500Y-91442000I62500J0D01*
G01*
X197678500Y-91442000D01*
G75*
G02*
X197741000Y-91504500I0J-62500D01*
G01*
G37*
%TD.AperFunction*%
%TO.P,U2,41*%
%TO.N,/RXD3*%
%TA.AperFunction,SMDPad,CuDef*%
G36*
G01*
X197241000Y-91504500D02*
X197241000Y-92179500D01*
G75*
G02*
X197178500Y-92242000I-62500J0D01*
G01*
X197053500Y-92242000D01*
G75*
G02*
X196991000Y-92179500I0J62500D01*
G01*
X196991000Y-91504500D01*
G75*
G02*
X197053500Y-91442000I62500J0D01*
G01*
X197178500Y-91442000D01*
G75*
G02*
X197241000Y-91504500I0J-62500D01*
G01*
G37*
%TD.AperFunction*%
%TO.P,U2,40*%
%TO.N,/TXD3*%
%TA.AperFunction,SMDPad,CuDef*%
G36*
G01*
X196741000Y-91504500D02*
X196741000Y-92179500D01*
G75*
G02*
X196678500Y-92242000I-62500J0D01*
G01*
X196553500Y-92242000D01*
G75*
G02*
X196491000Y-92179500I0J62500D01*
G01*
X196491000Y-91504500D01*
G75*
G02*
X196553500Y-91442000I62500J0D01*
G01*
X196678500Y-91442000D01*
G75*
G02*
X196741000Y-91504500I0J-62500D01*
G01*
G37*
%TD.AperFunction*%
%TO.P,U2,39*%
%TO.N,/SDA*%
%TA.AperFunction,SMDPad,CuDef*%
G36*
G01*
X196241000Y-91504500D02*
X196241000Y-92179500D01*
G75*
G02*
X196178500Y-92242000I-62500J0D01*
G01*
X196053500Y-92242000D01*
G75*
G02*
X195991000Y-92179500I0J62500D01*
G01*
X195991000Y-91504500D01*
G75*
G02*
X196053500Y-91442000I62500J0D01*
G01*
X196178500Y-91442000D01*
G75*
G02*
X196241000Y-91504500I0J-62500D01*
G01*
G37*
%TD.AperFunction*%
%TO.P,U2,38*%
%TO.N,/MISO_3*%
%TA.AperFunction,SMDPad,CuDef*%
G36*
G01*
X195741000Y-91504500D02*
X195741000Y-92179500D01*
G75*
G02*
X195678500Y-92242000I-62500J0D01*
G01*
X195553500Y-92242000D01*
G75*
G02*
X195491000Y-92179500I0J62500D01*
G01*
X195491000Y-91504500D01*
G75*
G02*
X195553500Y-91442000I62500J0D01*
G01*
X195678500Y-91442000D01*
G75*
G02*
X195741000Y-91504500I0J-62500D01*
G01*
G37*
%TD.AperFunction*%
%TO.P,U2,37*%
%TO.N,+3V0*%
%TA.AperFunction,SMDPad,CuDef*%
G36*
G01*
X195241000Y-91504500D02*
X195241000Y-92179500D01*
G75*
G02*
X195178500Y-92242000I-62500J0D01*
G01*
X195053500Y-92242000D01*
G75*
G02*
X194991000Y-92179500I0J62500D01*
G01*
X194991000Y-91504500D01*
G75*
G02*
X195053500Y-91442000I62500J0D01*
G01*
X195178500Y-91442000D01*
G75*
G02*
X195241000Y-91504500I0J-62500D01*
G01*
G37*
%TD.AperFunction*%
%TO.P,U2,36*%
%TO.N,/MOSI_3*%
%TA.AperFunction,SMDPad,CuDef*%
G36*
G01*
X194816000Y-91079500D02*
X194816000Y-91204500D01*
G75*
G02*
X194753500Y-91267000I-62500J0D01*
G01*
X194078500Y-91267000D01*
G75*
G02*
X194016000Y-91204500I0J62500D01*
G01*
X194016000Y-91079500D01*
G75*
G02*
X194078500Y-91017000I62500J0D01*
G01*
X194753500Y-91017000D01*
G75*
G02*
X194816000Y-91079500I0J-62500D01*
G01*
G37*
%TD.AperFunction*%
%TO.P,U2,35*%
%TO.N,/SCK_3*%
%TA.AperFunction,SMDPad,CuDef*%
G36*
G01*
X194816000Y-90579500D02*
X194816000Y-90704500D01*
G75*
G02*
X194753500Y-90767000I-62500J0D01*
G01*
X194078500Y-90767000D01*
G75*
G02*
X194016000Y-90704500I0J62500D01*
G01*
X194016000Y-90579500D01*
G75*
G02*
X194078500Y-90517000I62500J0D01*
G01*
X194753500Y-90517000D01*
G75*
G02*
X194816000Y-90579500I0J-62500D01*
G01*
G37*
%TD.AperFunction*%
%TO.P,U2,34*%
%TO.N,/CS_3*%
%TA.AperFunction,SMDPad,CuDef*%
G36*
G01*
X194816000Y-90079500D02*
X194816000Y-90204500D01*
G75*
G02*
X194753500Y-90267000I-62500J0D01*
G01*
X194078500Y-90267000D01*
G75*
G02*
X194016000Y-90204500I0J62500D01*
G01*
X194016000Y-90079500D01*
G75*
G02*
X194078500Y-90017000I62500J0D01*
G01*
X194753500Y-90017000D01*
G75*
G02*
X194816000Y-90079500I0J-62500D01*
G01*
G37*
%TD.AperFunction*%
%TO.P,U2,33*%
%TO.N,N/C*%
%TA.AperFunction,SMDPad,CuDef*%
G36*
G01*
X194816000Y-89579500D02*
X194816000Y-89704500D01*
G75*
G02*
X194753500Y-89767000I-62500J0D01*
G01*
X194078500Y-89767000D01*
G75*
G02*
X194016000Y-89704500I0J62500D01*
G01*
X194016000Y-89579500D01*
G75*
G02*
X194078500Y-89517000I62500J0D01*
G01*
X194753500Y-89517000D01*
G75*
G02*
X194816000Y-89579500I0J-62500D01*
G01*
G37*
%TD.AperFunction*%
%TO.P,U2,32*%
%TA.AperFunction,SMDPad,CuDef*%
G36*
G01*
X194816000Y-89079500D02*
X194816000Y-89204500D01*
G75*
G02*
X194753500Y-89267000I-62500J0D01*
G01*
X194078500Y-89267000D01*
G75*
G02*
X194016000Y-89204500I0J62500D01*
G01*
X194016000Y-89079500D01*
G75*
G02*
X194078500Y-89017000I62500J0D01*
G01*
X194753500Y-89017000D01*
G75*
G02*
X194816000Y-89079500I0J-62500D01*
G01*
G37*
%TD.AperFunction*%
%TO.P,U2,31*%
%TA.AperFunction,SMDPad,CuDef*%
G36*
G01*
X194816000Y-88579500D02*
X194816000Y-88704500D01*
G75*
G02*
X194753500Y-88767000I-62500J0D01*
G01*
X194078500Y-88767000D01*
G75*
G02*
X194016000Y-88704500I0J62500D01*
G01*
X194016000Y-88579500D01*
G75*
G02*
X194078500Y-88517000I62500J0D01*
G01*
X194753500Y-88517000D01*
G75*
G02*
X194816000Y-88579500I0J-62500D01*
G01*
G37*
%TD.AperFunction*%
%TO.P,U2,30*%
%TA.AperFunction,SMDPad,CuDef*%
G36*
G01*
X194816000Y-88079500D02*
X194816000Y-88204500D01*
G75*
G02*
X194753500Y-88267000I-62500J0D01*
G01*
X194078500Y-88267000D01*
G75*
G02*
X194016000Y-88204500I0J62500D01*
G01*
X194016000Y-88079500D01*
G75*
G02*
X194078500Y-88017000I62500J0D01*
G01*
X194753500Y-88017000D01*
G75*
G02*
X194816000Y-88079500I0J-62500D01*
G01*
G37*
%TD.AperFunction*%
%TO.P,U2,29*%
%TO.N,/IO10*%
%TA.AperFunction,SMDPad,CuDef*%
G36*
G01*
X194816000Y-87579500D02*
X194816000Y-87704500D01*
G75*
G02*
X194753500Y-87767000I-62500J0D01*
G01*
X194078500Y-87767000D01*
G75*
G02*
X194016000Y-87704500I0J62500D01*
G01*
X194016000Y-87579500D01*
G75*
G02*
X194078500Y-87517000I62500J0D01*
G01*
X194753500Y-87517000D01*
G75*
G02*
X194816000Y-87579500I0J-62500D01*
G01*
G37*
%TD.AperFunction*%
%TO.P,U2,28*%
%TO.N,/IO9*%
%TA.AperFunction,SMDPad,CuDef*%
G36*
G01*
X194816000Y-87079500D02*
X194816000Y-87204500D01*
G75*
G02*
X194753500Y-87267000I-62500J0D01*
G01*
X194078500Y-87267000D01*
G75*
G02*
X194016000Y-87204500I0J62500D01*
G01*
X194016000Y-87079500D01*
G75*
G02*
X194078500Y-87017000I62500J0D01*
G01*
X194753500Y-87017000D01*
G75*
G02*
X194816000Y-87079500I0J-62500D01*
G01*
G37*
%TD.AperFunction*%
%TO.P,U2,27*%
%TO.N,N/C*%
%TA.AperFunction,SMDPad,CuDef*%
G36*
G01*
X194816000Y-86579500D02*
X194816000Y-86704500D01*
G75*
G02*
X194753500Y-86767000I-62500J0D01*
G01*
X194078500Y-86767000D01*
G75*
G02*
X194016000Y-86704500I0J62500D01*
G01*
X194016000Y-86579500D01*
G75*
G02*
X194078500Y-86517000I62500J0D01*
G01*
X194753500Y-86517000D01*
G75*
G02*
X194816000Y-86579500I0J-62500D01*
G01*
G37*
%TD.AperFunction*%
%TO.P,U2,26*%
%TA.AperFunction,SMDPad,CuDef*%
G36*
G01*
X194816000Y-86079500D02*
X194816000Y-86204500D01*
G75*
G02*
X194753500Y-86267000I-62500J0D01*
G01*
X194078500Y-86267000D01*
G75*
G02*
X194016000Y-86204500I0J62500D01*
G01*
X194016000Y-86079500D01*
G75*
G02*
X194078500Y-86017000I62500J0D01*
G01*
X194753500Y-86017000D01*
G75*
G02*
X194816000Y-86079500I0J-62500D01*
G01*
G37*
%TD.AperFunction*%
%TO.P,U2,25*%
%TA.AperFunction,SMDPad,CuDef*%
G36*
G01*
X194816000Y-85579500D02*
X194816000Y-85704500D01*
G75*
G02*
X194753500Y-85767000I-62500J0D01*
G01*
X194078500Y-85767000D01*
G75*
G02*
X194016000Y-85704500I0J62500D01*
G01*
X194016000Y-85579500D01*
G75*
G02*
X194078500Y-85517000I62500J0D01*
G01*
X194753500Y-85517000D01*
G75*
G02*
X194816000Y-85579500I0J-62500D01*
G01*
G37*
%TD.AperFunction*%
%TO.P,U2,24*%
%TO.N,/IO4*%
%TA.AperFunction,SMDPad,CuDef*%
G36*
G01*
X195241000Y-84604500D02*
X195241000Y-85279500D01*
G75*
G02*
X195178500Y-85342000I-62500J0D01*
G01*
X195053500Y-85342000D01*
G75*
G02*
X194991000Y-85279500I0J62500D01*
G01*
X194991000Y-84604500D01*
G75*
G02*
X195053500Y-84542000I62500J0D01*
G01*
X195178500Y-84542000D01*
G75*
G02*
X195241000Y-84604500I0J-62500D01*
G01*
G37*
%TD.AperFunction*%
%TO.P,U2,23*%
%TO.N,/BOOT2*%
%TA.AperFunction,SMDPad,CuDef*%
G36*
G01*
X195741000Y-84604500D02*
X195741000Y-85279500D01*
G75*
G02*
X195678500Y-85342000I-62500J0D01*
G01*
X195553500Y-85342000D01*
G75*
G02*
X195491000Y-85279500I0J62500D01*
G01*
X195491000Y-84604500D01*
G75*
G02*
X195553500Y-84542000I62500J0D01*
G01*
X195678500Y-84542000D01*
G75*
G02*
X195741000Y-84604500I0J-62500D01*
G01*
G37*
%TD.AperFunction*%
%TO.P,U2,22*%
%TO.N,/IO2*%
%TA.AperFunction,SMDPad,CuDef*%
G36*
G01*
X196241000Y-84604500D02*
X196241000Y-85279500D01*
G75*
G02*
X196178500Y-85342000I-62500J0D01*
G01*
X196053500Y-85342000D01*
G75*
G02*
X195991000Y-85279500I0J62500D01*
G01*
X195991000Y-84604500D01*
G75*
G02*
X196053500Y-84542000I62500J0D01*
G01*
X196178500Y-84542000D01*
G75*
G02*
X196241000Y-84604500I0J-62500D01*
G01*
G37*
%TD.AperFunction*%
%TO.P,U2,21*%
%TO.N,N/C*%
%TA.AperFunction,SMDPad,CuDef*%
G36*
G01*
X196741000Y-84604500D02*
X196741000Y-85279500D01*
G75*
G02*
X196678500Y-85342000I-62500J0D01*
G01*
X196553500Y-85342000D01*
G75*
G02*
X196491000Y-85279500I0J62500D01*
G01*
X196491000Y-84604500D01*
G75*
G02*
X196553500Y-84542000I62500J0D01*
G01*
X196678500Y-84542000D01*
G75*
G02*
X196741000Y-84604500I0J-62500D01*
G01*
G37*
%TD.AperFunction*%
%TO.P,U2,20*%
%TA.AperFunction,SMDPad,CuDef*%
G36*
G01*
X197241000Y-84604500D02*
X197241000Y-85279500D01*
G75*
G02*
X197178500Y-85342000I-62500J0D01*
G01*
X197053500Y-85342000D01*
G75*
G02*
X196991000Y-85279500I0J62500D01*
G01*
X196991000Y-84604500D01*
G75*
G02*
X197053500Y-84542000I62500J0D01*
G01*
X197178500Y-84542000D01*
G75*
G02*
X197241000Y-84604500I0J-62500D01*
G01*
G37*
%TD.AperFunction*%
%TO.P,U2,19*%
%TO.N,+3V0*%
%TA.AperFunction,SMDPad,CuDef*%
G36*
G01*
X197741000Y-84604500D02*
X197741000Y-85279500D01*
G75*
G02*
X197678500Y-85342000I-62500J0D01*
G01*
X197553500Y-85342000D01*
G75*
G02*
X197491000Y-85279500I0J62500D01*
G01*
X197491000Y-84604500D01*
G75*
G02*
X197553500Y-84542000I62500J0D01*
G01*
X197678500Y-84542000D01*
G75*
G02*
X197741000Y-84604500I0J-62500D01*
G01*
G37*
%TD.AperFunction*%
%TO.P,U2,18*%
%TO.N,N/C*%
%TA.AperFunction,SMDPad,CuDef*%
G36*
G01*
X198241000Y-84604500D02*
X198241000Y-85279500D01*
G75*
G02*
X198178500Y-85342000I-62500J0D01*
G01*
X198053500Y-85342000D01*
G75*
G02*
X197991000Y-85279500I0J62500D01*
G01*
X197991000Y-84604500D01*
G75*
G02*
X198053500Y-84542000I62500J0D01*
G01*
X198178500Y-84542000D01*
G75*
G02*
X198241000Y-84604500I0J-62500D01*
G01*
G37*
%TD.AperFunction*%
%TO.P,U2,17*%
%TO.N,/LORA_RESET*%
%TA.AperFunction,SMDPad,CuDef*%
G36*
G01*
X198741000Y-84604500D02*
X198741000Y-85279500D01*
G75*
G02*
X198678500Y-85342000I-62500J0D01*
G01*
X198553500Y-85342000D01*
G75*
G02*
X198491000Y-85279500I0J62500D01*
G01*
X198491000Y-84604500D01*
G75*
G02*
X198553500Y-84542000I62500J0D01*
G01*
X198678500Y-84542000D01*
G75*
G02*
X198741000Y-84604500I0J-62500D01*
G01*
G37*
%TD.AperFunction*%
%TO.P,U2,16*%
%TO.N,/DIO_LORA*%
%TA.AperFunction,SMDPad,CuDef*%
G36*
G01*
X199241000Y-84604500D02*
X199241000Y-85279500D01*
G75*
G02*
X199178500Y-85342000I-62500J0D01*
G01*
X199053500Y-85342000D01*
G75*
G02*
X198991000Y-85279500I0J62500D01*
G01*
X198991000Y-84604500D01*
G75*
G02*
X199053500Y-84542000I62500J0D01*
G01*
X199178500Y-84542000D01*
G75*
G02*
X199241000Y-84604500I0J-62500D01*
G01*
G37*
%TD.AperFunction*%
%TO.P,U2,15*%
%TO.N,/IO26*%
%TA.AperFunction,SMDPad,CuDef*%
G36*
G01*
X199741000Y-84604500D02*
X199741000Y-85279500D01*
G75*
G02*
X199678500Y-85342000I-62500J0D01*
G01*
X199553500Y-85342000D01*
G75*
G02*
X199491000Y-85279500I0J62500D01*
G01*
X199491000Y-84604500D01*
G75*
G02*
X199553500Y-84542000I62500J0D01*
G01*
X199678500Y-84542000D01*
G75*
G02*
X199741000Y-84604500I0J-62500D01*
G01*
G37*
%TD.AperFunction*%
%TO.P,U2,14*%
%TO.N,/IO25*%
%TA.AperFunction,SMDPad,CuDef*%
G36*
G01*
X200241000Y-84604500D02*
X200241000Y-85279500D01*
G75*
G02*
X200178500Y-85342000I-62500J0D01*
G01*
X200053500Y-85342000D01*
G75*
G02*
X199991000Y-85279500I0J62500D01*
G01*
X199991000Y-84604500D01*
G75*
G02*
X200053500Y-84542000I62500J0D01*
G01*
X200178500Y-84542000D01*
G75*
G02*
X200241000Y-84604500I0J-62500D01*
G01*
G37*
%TD.AperFunction*%
%TO.P,U2,13*%
%TO.N,/IO33*%
%TA.AperFunction,SMDPad,CuDef*%
G36*
G01*
X200741000Y-84604500D02*
X200741000Y-85279500D01*
G75*
G02*
X200678500Y-85342000I-62500J0D01*
G01*
X200553500Y-85342000D01*
G75*
G02*
X200491000Y-85279500I0J62500D01*
G01*
X200491000Y-84604500D01*
G75*
G02*
X200553500Y-84542000I62500J0D01*
G01*
X200678500Y-84542000D01*
G75*
G02*
X200741000Y-84604500I0J-62500D01*
G01*
G37*
%TD.AperFunction*%
%TO.P,U2,12*%
%TO.N,/WS2812*%
%TA.AperFunction,SMDPad,CuDef*%
G36*
G01*
X201716000Y-85579500D02*
X201716000Y-85704500D01*
G75*
G02*
X201653500Y-85767000I-62500J0D01*
G01*
X200978500Y-85767000D01*
G75*
G02*
X200916000Y-85704500I0J62500D01*
G01*
X200916000Y-85579500D01*
G75*
G02*
X200978500Y-85517000I62500J0D01*
G01*
X201653500Y-85517000D01*
G75*
G02*
X201716000Y-85579500I0J-62500D01*
G01*
G37*
%TD.AperFunction*%
%TO.P,U2,11*%
%TO.N,N/C*%
%TA.AperFunction,SMDPad,CuDef*%
G36*
G01*
X201716000Y-86079500D02*
X201716000Y-86204500D01*
G75*
G02*
X201653500Y-86267000I-62500J0D01*
G01*
X200978500Y-86267000D01*
G75*
G02*
X200916000Y-86204500I0J62500D01*
G01*
X200916000Y-86079500D01*
G75*
G02*
X200978500Y-86017000I62500J0D01*
G01*
X201653500Y-86017000D01*
G75*
G02*
X201716000Y-86079500I0J-62500D01*
G01*
G37*
%TD.AperFunction*%
%TO.P,U2,10*%
%TA.AperFunction,SMDPad,CuDef*%
G36*
G01*
X201716000Y-86579500D02*
X201716000Y-86704500D01*
G75*
G02*
X201653500Y-86767000I-62500J0D01*
G01*
X200978500Y-86767000D01*
G75*
G02*
X200916000Y-86704500I0J62500D01*
G01*
X200916000Y-86579500D01*
G75*
G02*
X200978500Y-86517000I62500J0D01*
G01*
X201653500Y-86517000D01*
G75*
G02*
X201716000Y-86579500I0J-62500D01*
G01*
G37*
%TD.AperFunction*%
%TO.P,U2,9*%
%TO.N,/RESET2*%
%TA.AperFunction,SMDPad,CuDef*%
G36*
G01*
X201716000Y-87079500D02*
X201716000Y-87204500D01*
G75*
G02*
X201653500Y-87267000I-62500J0D01*
G01*
X200978500Y-87267000D01*
G75*
G02*
X200916000Y-87204500I0J62500D01*
G01*
X200916000Y-87079500D01*
G75*
G02*
X200978500Y-87017000I62500J0D01*
G01*
X201653500Y-87017000D01*
G75*
G02*
X201716000Y-87079500I0J-62500D01*
G01*
G37*
%TD.AperFunction*%
%TO.P,U2,8*%
%TO.N,N/C*%
%TA.AperFunction,SMDPad,CuDef*%
G36*
G01*
X201716000Y-87579500D02*
X201716000Y-87704500D01*
G75*
G02*
X201653500Y-87767000I-62500J0D01*
G01*
X200978500Y-87767000D01*
G75*
G02*
X200916000Y-87704500I0J62500D01*
G01*
X200916000Y-87579500D01*
G75*
G02*
X200978500Y-87517000I62500J0D01*
G01*
X201653500Y-87517000D01*
G75*
G02*
X201716000Y-87579500I0J-62500D01*
G01*
G37*
%TD.AperFunction*%
%TO.P,U2,7*%
%TA.AperFunction,SMDPad,CuDef*%
G36*
G01*
X201716000Y-88079500D02*
X201716000Y-88204500D01*
G75*
G02*
X201653500Y-88267000I-62500J0D01*
G01*
X200978500Y-88267000D01*
G75*
G02*
X200916000Y-88204500I0J62500D01*
G01*
X200916000Y-88079500D01*
G75*
G02*
X200978500Y-88017000I62500J0D01*
G01*
X201653500Y-88017000D01*
G75*
G02*
X201716000Y-88079500I0J-62500D01*
G01*
G37*
%TD.AperFunction*%
%TO.P,U2,6*%
%TA.AperFunction,SMDPad,CuDef*%
G36*
G01*
X201716000Y-88579500D02*
X201716000Y-88704500D01*
G75*
G02*
X201653500Y-88767000I-62500J0D01*
G01*
X200978500Y-88767000D01*
G75*
G02*
X200916000Y-88704500I0J62500D01*
G01*
X200916000Y-88579500D01*
G75*
G02*
X200978500Y-88517000I62500J0D01*
G01*
X201653500Y-88517000D01*
G75*
G02*
X201716000Y-88579500I0J-62500D01*
G01*
G37*
%TD.AperFunction*%
%TO.P,U2,5*%
%TA.AperFunction,SMDPad,CuDef*%
G36*
G01*
X201716000Y-89079500D02*
X201716000Y-89204500D01*
G75*
G02*
X201653500Y-89267000I-62500J0D01*
G01*
X200978500Y-89267000D01*
G75*
G02*
X200916000Y-89204500I0J62500D01*
G01*
X200916000Y-89079500D01*
G75*
G02*
X200978500Y-89017000I62500J0D01*
G01*
X201653500Y-89017000D01*
G75*
G02*
X201716000Y-89079500I0J-62500D01*
G01*
G37*
%TD.AperFunction*%
%TO.P,U2,4*%
%TO.N,+3V0*%
%TA.AperFunction,SMDPad,CuDef*%
G36*
G01*
X201716000Y-89579500D02*
X201716000Y-89704500D01*
G75*
G02*
X201653500Y-89767000I-62500J0D01*
G01*
X200978500Y-89767000D01*
G75*
G02*
X200916000Y-89704500I0J62500D01*
G01*
X200916000Y-89579500D01*
G75*
G02*
X200978500Y-89517000I62500J0D01*
G01*
X201653500Y-89517000D01*
G75*
G02*
X201716000Y-89579500I0J-62500D01*
G01*
G37*
%TD.AperFunction*%
%TO.P,U2,3*%
%TA.AperFunction,SMDPad,CuDef*%
G36*
G01*
X201716000Y-90079500D02*
X201716000Y-90204500D01*
G75*
G02*
X201653500Y-90267000I-62500J0D01*
G01*
X200978500Y-90267000D01*
G75*
G02*
X200916000Y-90204500I0J62500D01*
G01*
X200916000Y-90079500D01*
G75*
G02*
X200978500Y-90017000I62500J0D01*
G01*
X201653500Y-90017000D01*
G75*
G02*
X201716000Y-90079500I0J-62500D01*
G01*
G37*
%TD.AperFunction*%
%TO.P,U2,2*%
%TO.N,Net-(AE1-Pad1)*%
%TA.AperFunction,SMDPad,CuDef*%
G36*
G01*
X201716000Y-90579500D02*
X201716000Y-90704500D01*
G75*
G02*
X201653500Y-90767000I-62500J0D01*
G01*
X200978500Y-90767000D01*
G75*
G02*
X200916000Y-90704500I0J62500D01*
G01*
X200916000Y-90579500D01*
G75*
G02*
X200978500Y-90517000I62500J0D01*
G01*
X201653500Y-90517000D01*
G75*
G02*
X201716000Y-90579500I0J-62500D01*
G01*
G37*
%TD.AperFunction*%
%TO.P,U2,1*%
%TO.N,+3V0*%
%TA.AperFunction,SMDPad,CuDef*%
G36*
G01*
X201716000Y-91079500D02*
X201716000Y-91204500D01*
G75*
G02*
X201653500Y-91267000I-62500J0D01*
G01*
X200978500Y-91267000D01*
G75*
G02*
X200916000Y-91204500I0J62500D01*
G01*
X200916000Y-91079500D01*
G75*
G02*
X200978500Y-91017000I62500J0D01*
G01*
X201653500Y-91017000D01*
G75*
G02*
X201716000Y-91079500I0J-62500D01*
G01*
G37*
%TD.AperFunction*%
%TD*%
D18*
%TO.P,U1,5*%
%TO.N,+3V0*%
X192852000Y-94650000D03*
%TO.P,U1,4*%
%TO.N,N/C*%
X194752000Y-94650000D03*
%TO.P,U1,3*%
%TO.N,Net-(R5-Pad2)*%
X194752000Y-97350000D03*
%TO.P,U1,2*%
%TO.N,GNDD*%
X193802000Y-97350000D03*
%TO.P,U1,1*%
%TO.N,+BATT*%
X192852000Y-97350000D03*
%TD*%
D19*
%TO.P,J3,7*%
%TO.N,Net-(J3-Pad7)*%
X190118000Y-92964000D03*
%TO.P,J3,5*%
%TO.N,/SDA*%
X190118000Y-87884000D03*
%TO.P,J3,3*%
%TO.N,/IO9*%
X190118000Y-82804000D03*
%TO.P,J3,1*%
%TO.N,/IO2*%
X190118000Y-77724000D03*
%TO.P,J3,8*%
%TO.N,Net-(J3-Pad8)*%
X186818000Y-95504000D03*
%TO.P,J3,6*%
%TO.N,/SCL*%
X186818000Y-90424000D03*
%TO.P,J3,4*%
%TO.N,/IO10*%
X186818000Y-85344000D03*
%TO.P,J3,2*%
%TO.N,/IO4*%
X186818000Y-80264000D03*
%TD*%
%TO.P,D9,2*%
%TO.N,+3V0*%
%TA.AperFunction,SMDPad,CuDef*%
G36*
G01*
X195992000Y-82566500D02*
X195992000Y-83041500D01*
G75*
G02*
X195754500Y-83279000I-237500J0D01*
G01*
X195179500Y-83279000D01*
G75*
G02*
X194942000Y-83041500I0J237500D01*
G01*
X194942000Y-82566500D01*
G75*
G02*
X195179500Y-82329000I237500J0D01*
G01*
X195754500Y-82329000D01*
G75*
G02*
X195992000Y-82566500I0J-237500D01*
G01*
G37*
%TD.AperFunction*%
%TO.P,D9,1*%
%TO.N,Net-(D9-Pad1)*%
%TA.AperFunction,SMDPad,CuDef*%
G36*
G01*
X197742000Y-82566500D02*
X197742000Y-83041500D01*
G75*
G02*
X197504500Y-83279000I-237500J0D01*
G01*
X196929500Y-83279000D01*
G75*
G02*
X196692000Y-83041500I0J237500D01*
G01*
X196692000Y-82566500D01*
G75*
G02*
X196929500Y-82329000I237500J0D01*
G01*
X197504500Y-82329000D01*
G75*
G02*
X197742000Y-82566500I0J-237500D01*
G01*
G37*
%TD.AperFunction*%
%TD*%
D20*
%TO.P,A1,1*%
%TO.N,Net-(A1-Pad1)*%
X203962000Y-81684000D03*
D21*
%TO.P,A1,2*%
%TO.N,GNDD*%
X206062000Y-81684000D03*
%TD*%
D22*
%TO.N,+BATT*%
X207772000Y-79502000D03*
D23*
%TO.N,GNDD*%
X187452000Y-83058000D03*
X206248000Y-82804000D03*
X197866000Y-88392000D03*
X207018002Y-85344000D03*
X193802000Y-96520000D03*
X189230000Y-102616000D03*
X208280000Y-83820000D03*
X187233248Y-97262752D03*
X191174000Y-98044000D03*
X203962000Y-99314000D03*
%TO.N,+BATT*%
X209280726Y-94522915D03*
%TO.N,+3V0*%
X203326000Y-91367000D03*
X191770000Y-90424000D03*
X194470154Y-82643846D03*
X204817888Y-88326420D03*
X198882000Y-93958500D03*
X192024000Y-94488000D03*
%TO.N,/CS_3*%
X191770000Y-87376000D03*
%TO.N,/SCK_3*%
X191770000Y-88392000D03*
%TO.N,/MOSI_3*%
X191770000Y-89408000D03*
%TO.N,/MISO_3*%
X191770000Y-91440000D03*
%TO.N,/TXD3*%
X195932366Y-93617031D03*
%TO.N,/RXD3*%
X196920107Y-93460920D03*
%TO.N,/BOOT2*%
X193294000Y-83566000D03*
%TO.N,/WS2812*%
X201725998Y-84836000D03*
%TO.N,/LORA_RESET*%
X185675000Y-97790000D03*
X196164278Y-81491794D03*
%TO.N,/IO33*%
X201680653Y-81275347D03*
%TO.N,/IO25*%
X200660000Y-81280000D03*
%TO.N,/DIO_LORA*%
X199505890Y-81355462D03*
%TO.N,Net-(J3-Pad7)*%
X190246000Y-92964000D03*
%TD*%
D24*
%TO.N,GNDD*%
X207010000Y-85589000D02*
X207010000Y-85322500D01*
X193802000Y-96320000D02*
X193877001Y-96244999D01*
X193802000Y-97350000D02*
X193802000Y-96520000D01*
X193802000Y-96520000D02*
X193802000Y-96320000D01*
X203294999Y-103383001D02*
X204470000Y-102208000D01*
X189997001Y-103383001D02*
X203294999Y-103383001D01*
X189230000Y-102616000D02*
X189997001Y-103383001D01*
D25*
X186451750Y-97262752D02*
X187233248Y-97262752D01*
X185492999Y-96304001D02*
X186451750Y-97262752D01*
X185492999Y-84451316D02*
X185492999Y-96304001D01*
X186886315Y-83058000D02*
X185492999Y-84451316D01*
X187452000Y-83058000D02*
X186886315Y-83058000D01*
D24*
X190754000Y-97624000D02*
X191174000Y-98044000D01*
X190754000Y-97049500D02*
X190754000Y-97624000D01*
D26*
%TO.N,+BATT*%
X192852000Y-96854000D02*
X192852000Y-97819002D01*
X191786000Y-101854000D02*
X194580000Y-99060000D01*
X191770000Y-101854000D02*
X191786000Y-101854000D01*
X192852000Y-98315002D02*
X192852000Y-97350000D01*
X193936998Y-99400000D02*
X192852000Y-98315002D01*
X194580000Y-99400000D02*
X193936998Y-99400000D01*
D27*
X190392000Y-102208000D02*
X191770000Y-102208000D01*
X188198000Y-100014000D02*
X190392000Y-102208000D01*
X188198000Y-99314000D02*
X188198000Y-100014000D01*
D24*
X208864000Y-92906036D02*
X208864000Y-94324000D01*
X209559018Y-92211018D02*
X208864000Y-92906036D01*
X209559018Y-81543018D02*
X207518000Y-79502000D01*
X209559018Y-82794982D02*
X209559018Y-81543018D01*
X209559018Y-82794982D02*
X209559018Y-92211018D01*
%TO.N,+3V0*%
X196267010Y-83858010D02*
X195467000Y-83058000D01*
X197616000Y-84942000D02*
X197616000Y-84493978D01*
X203101000Y-91142000D02*
X203326000Y-91367000D01*
X201316000Y-91142000D02*
X203101000Y-91142000D01*
X203724000Y-87682022D02*
X203724000Y-87376000D01*
X201764022Y-89642000D02*
X203724000Y-87682022D01*
X201316000Y-89642000D02*
X201764022Y-89642000D01*
X201316000Y-90142000D02*
X202974000Y-90142000D01*
X202974000Y-90142000D02*
X203724000Y-89392000D01*
X191827002Y-90424000D02*
X191770000Y-90424000D01*
X193245002Y-91842000D02*
X191827002Y-90424000D01*
X195116000Y-91842000D02*
X193245002Y-91842000D01*
X194630308Y-82804000D02*
X194470154Y-82643846D01*
X195467000Y-82804000D02*
X194630308Y-82804000D01*
X199616000Y-93224500D02*
X198882000Y-93958500D01*
X199616000Y-91842000D02*
X199616000Y-93224500D01*
X198116000Y-93192500D02*
X198882000Y-93958500D01*
X198116000Y-91842000D02*
X198116000Y-93192500D01*
D27*
X200734500Y-93958500D02*
X198882000Y-93958500D01*
X203326000Y-91367000D02*
X200734500Y-93958500D01*
D26*
X192198000Y-94662000D02*
X192024000Y-94488000D01*
X192852000Y-94662000D02*
X192198000Y-94662000D01*
D24*
X203978000Y-87376000D02*
X203978000Y-87486532D01*
D26*
X192186000Y-94650000D02*
X192024000Y-94488000D01*
X192852000Y-94650000D02*
X192186000Y-94650000D01*
X192024000Y-99384000D02*
X192008000Y-99400000D01*
X192024000Y-94488000D02*
X192024000Y-99384000D01*
D24*
X197753000Y-95087500D02*
X198882000Y-93958500D01*
X197753000Y-95250000D02*
X197753000Y-95087500D01*
X201146500Y-95369500D02*
X202438000Y-96661000D01*
X201146500Y-93980000D02*
X201146500Y-95369500D01*
X196267010Y-83872168D02*
X196596000Y-84201158D01*
X196267010Y-83858010D02*
X196267010Y-83872168D01*
X196992990Y-84216990D02*
X197339012Y-84216990D01*
X196977158Y-84201158D02*
X196992990Y-84216990D01*
X197339012Y-84216990D02*
X197616000Y-84493978D01*
X196596000Y-84201158D02*
X196977158Y-84201158D01*
X191537500Y-94974500D02*
X192024000Y-94488000D01*
X190754000Y-94974500D02*
X191537500Y-94974500D01*
X204817888Y-87886888D02*
X204103000Y-87172000D01*
X204817888Y-88326420D02*
X204817888Y-87886888D01*
X203752308Y-89392000D02*
X204817888Y-88326420D01*
X203724000Y-89392000D02*
X203752308Y-89392000D01*
%TO.N,/RESET2*%
X202344810Y-87142000D02*
X204142810Y-85344000D01*
X201316000Y-87142000D02*
X202344810Y-87142000D01*
D26*
X205978000Y-86873500D02*
X204448500Y-85344000D01*
X205978000Y-87376000D02*
X205978000Y-86873500D01*
D24*
X208038999Y-97269001D02*
X208038999Y-97694001D01*
X200661011Y-100582989D02*
X206503011Y-100582989D01*
X199390000Y-101854000D02*
X200661011Y-100582989D01*
X206503011Y-100582989D02*
X208038999Y-99047001D01*
X208038999Y-97269001D02*
X208038999Y-99047001D01*
X208038999Y-93313999D02*
X208038999Y-93484999D01*
X208038999Y-93484999D02*
X208038999Y-97269001D01*
X208038999Y-92849001D02*
X208038999Y-93484999D01*
X209080010Y-91807990D02*
X208038999Y-92849001D01*
X208750500Y-86324990D02*
X209080010Y-86654500D01*
X207809500Y-86324990D02*
X208750500Y-86324990D01*
X209080010Y-86654500D02*
X209080010Y-91807990D01*
X207495500Y-86638990D02*
X207809500Y-86324990D01*
X207809500Y-86324990D02*
X207807010Y-86324990D01*
X206960000Y-87172000D02*
X205853000Y-87172000D01*
X207807010Y-86324990D02*
X206960000Y-87172000D01*
%TO.N,/CS_3*%
X191827002Y-87376000D02*
X191770000Y-87376000D01*
X193301578Y-88850576D02*
X191827002Y-87376000D01*
X193301578Y-89475600D02*
X193301578Y-88850576D01*
X193967978Y-90142000D02*
X193301578Y-89475600D01*
X194416000Y-90142000D02*
X193967978Y-90142000D01*
%TO.N,/SCK_3*%
X194416000Y-90642000D02*
X193831568Y-90642000D01*
X193831568Y-90642000D02*
X192851568Y-89662000D01*
X191827002Y-88392000D02*
X191770000Y-88392000D01*
X192851568Y-89416566D02*
X191827002Y-88392000D01*
X192851568Y-89662000D02*
X192851568Y-89416566D01*
%TO.N,/MOSI_3*%
X194372000Y-91186000D02*
X194416000Y-91142000D01*
X191961158Y-89408000D02*
X191770000Y-89408000D01*
X193695158Y-91142000D02*
X191961158Y-89408000D01*
X194416000Y-91142000D02*
X193695158Y-91142000D01*
%TO.N,/MISO_3*%
X192897010Y-92567010D02*
X191770000Y-91440000D01*
X195339012Y-92567010D02*
X192897010Y-92567010D01*
X195616000Y-92290022D02*
X195339012Y-92567010D01*
X195616000Y-91842000D02*
X195616000Y-92290022D01*
%TO.N,/TXD3*%
X195932366Y-93375659D02*
X195932366Y-93617031D01*
X196616000Y-92692025D02*
X195932366Y-93375659D01*
X196616000Y-91842000D02*
X196616000Y-92692025D01*
X195485001Y-101032999D02*
X194310000Y-102208000D01*
X196560191Y-101032999D02*
X195485001Y-101032999D01*
X197505010Y-100088180D02*
X196560191Y-101032999D01*
X197505010Y-98166990D02*
X197505010Y-100088180D01*
X198644000Y-97028000D02*
X197505010Y-98166990D01*
%TO.N,/RXD3*%
X197116000Y-93265027D02*
X197116000Y-91842000D01*
X196920107Y-93460920D02*
X197116000Y-93265027D01*
X198644000Y-100414000D02*
X198644000Y-99314000D01*
X196850000Y-102208000D02*
X198644000Y-100414000D01*
%TO.N,/BOOT2*%
X195616000Y-84493978D02*
X195196022Y-84074000D01*
X195616000Y-84942000D02*
X195616000Y-84493978D01*
X195196022Y-84074000D02*
X194564000Y-84074000D01*
X193802000Y-84074000D02*
X193294000Y-83566000D01*
X194564000Y-84074000D02*
X193802000Y-84074000D01*
X201930000Y-102208000D02*
X203105001Y-101032999D01*
X206300999Y-101032999D02*
X207376000Y-102108000D01*
X203105001Y-101032999D02*
X206300999Y-101032999D01*
%TO.N,Net-(R5-Pad2)*%
X194752000Y-97232000D02*
X196580000Y-99060000D01*
X194752000Y-96854000D02*
X194752000Y-97232000D01*
%TO.N,/WS2812*%
X201316000Y-85245998D02*
X201725998Y-84836000D01*
X201316000Y-85642000D02*
X201316000Y-85245998D01*
D26*
%TO.N,Net-(A1-Pad1)*%
X203962000Y-82571500D02*
X204448500Y-83058000D01*
X203962000Y-81534000D02*
X203962000Y-82571500D01*
D28*
X205609490Y-84218990D02*
X204448500Y-83058000D01*
X207163990Y-84218990D02*
X205609490Y-84218990D01*
X208534000Y-85589000D02*
X207163990Y-84218990D01*
D27*
%TO.N,/LORA_RESET*%
X186198000Y-98313000D02*
X185675000Y-97790000D01*
X186198000Y-99314000D02*
X186198000Y-98313000D01*
D24*
X196317010Y-81644526D02*
X196164278Y-81491794D01*
X196317010Y-83224520D02*
X196317010Y-81644526D01*
X196696500Y-83604010D02*
X196317010Y-83224520D01*
X197737500Y-83604010D02*
X196696500Y-83604010D01*
X198616000Y-84482510D02*
X197737500Y-83604010D01*
X198616000Y-84942000D02*
X198616000Y-84482510D01*
%TO.N,/IO33*%
X202073020Y-81667714D02*
X201680653Y-81275347D01*
X202073020Y-83506900D02*
X202073020Y-81667714D01*
X201479901Y-84100019D02*
X202073020Y-83506900D01*
X201270390Y-84100020D02*
X201479901Y-84100019D01*
X200616000Y-84754410D02*
X201270390Y-84100020D01*
X200616000Y-84942000D02*
X200616000Y-84754410D01*
%TO.N,/IO25*%
X200116000Y-84493978D02*
X200535978Y-84074000D01*
X200116000Y-84942000D02*
X200116000Y-84493978D01*
X201623010Y-82243010D02*
X200660000Y-81280000D01*
X201623010Y-83320500D02*
X201623010Y-82243010D01*
X200535978Y-84072432D02*
X200914000Y-83694410D01*
X200535978Y-84074000D02*
X200535978Y-84072432D01*
X201293500Y-83650010D02*
X201623010Y-83320500D01*
X201083990Y-83650010D02*
X201293500Y-83650010D01*
X201039590Y-83694410D02*
X201083990Y-83650010D01*
X200914000Y-83694410D02*
X201039590Y-83694410D01*
%TO.N,/IO9*%
X190118000Y-83554000D02*
X190118000Y-82804000D01*
X193706000Y-87142000D02*
X190118000Y-83554000D01*
X194416000Y-87142000D02*
X193706000Y-87142000D01*
%TO.N,/IO2*%
X196116000Y-84942000D02*
X196116000Y-84493978D01*
X194405012Y-83604010D02*
X195362442Y-83604010D01*
X195362442Y-83604010D02*
X196116000Y-84357568D01*
X193642001Y-82840999D02*
X194405012Y-83604010D01*
X193330999Y-82840999D02*
X193642001Y-82840999D01*
X190118000Y-79628000D02*
X193330999Y-82840999D01*
X196116000Y-84357568D02*
X196116000Y-84942000D01*
X190118000Y-77724000D02*
X190118000Y-79628000D01*
%TO.N,/IO10*%
X190811002Y-85344000D02*
X189230000Y-85344000D01*
X193109002Y-87642000D02*
X190811002Y-85344000D01*
X194416000Y-87642000D02*
X193109002Y-87642000D01*
X189230000Y-85344000D02*
X186818000Y-85344000D01*
X189613002Y-85344000D02*
X189230000Y-85344000D01*
%TO.N,/IO4*%
X195116000Y-84942000D02*
X193146000Y-84942000D01*
X193146000Y-84942000D02*
X191516000Y-83312000D01*
X191516000Y-82166998D02*
X191137002Y-81788000D01*
X191516000Y-83312000D02*
X191516000Y-82166998D01*
X188342000Y-81788000D02*
X186818000Y-80264000D01*
X191137002Y-81788000D02*
X188342000Y-81788000D01*
%TO.N,/DIO_LORA*%
X199116000Y-84942000D02*
X199116000Y-84357568D01*
X199922990Y-81772562D02*
X199505890Y-81355462D01*
X199922990Y-83412600D02*
X199922990Y-81772562D01*
X199116000Y-84219590D02*
X199922990Y-83412600D01*
X199116000Y-84942000D02*
X199116000Y-84219590D01*
%TO.N,/IO26*%
X199616000Y-84942000D02*
X199616000Y-84493978D01*
X200064000Y-83909568D02*
X199665990Y-84307578D01*
X200062432Y-83909568D02*
X200064000Y-83909568D01*
X199616000Y-84356000D02*
X200062432Y-83909568D01*
X199616000Y-84942000D02*
X199616000Y-84356000D01*
X200372999Y-83250001D02*
X200773000Y-82850000D01*
X200372999Y-83599001D02*
X200372999Y-83250001D01*
X200062432Y-83909568D02*
X200372999Y-83599001D01*
%TO.N,/SDA*%
X193040000Y-93017019D02*
X192710609Y-93017019D01*
X195525413Y-93017019D02*
X192274017Y-93017019D01*
X196116000Y-92426432D02*
X195525413Y-93017019D01*
X196116000Y-91842000D02*
X196116000Y-92426432D01*
X190118000Y-90861002D02*
X190118000Y-87884000D01*
X192274017Y-93017019D02*
X190118000Y-90861002D01*
%TO.N,/SCL*%
X197616000Y-92290022D02*
X197616000Y-91842000D01*
X197645108Y-91871108D02*
X197645108Y-93889918D01*
X197616000Y-91842000D02*
X197645108Y-91871108D01*
X196567513Y-94967513D02*
X197645108Y-93889918D01*
X196276025Y-95259001D02*
X196567513Y-94967513D01*
X191645002Y-93472000D02*
X191328001Y-93789001D01*
X193352002Y-93472000D02*
X191645002Y-93472000D01*
X193502001Y-93621999D02*
X193352002Y-93472000D01*
X193502001Y-95102003D02*
X193502001Y-93621999D01*
X194166999Y-95767001D02*
X193502001Y-95102003D01*
X195768025Y-95767001D02*
X194166999Y-95767001D01*
X196276025Y-95259001D02*
X195768025Y-95767001D01*
X191328001Y-93789001D02*
X190246000Y-93789001D01*
X188907999Y-93789001D02*
X189547001Y-93789001D01*
X186818000Y-91699002D02*
X188907999Y-93789001D01*
X186818000Y-90424000D02*
X186818000Y-91699002D01*
X190563001Y-93789001D02*
X189547001Y-93789001D01*
%TO.N,Net-(J3-Pad7)*%
X190118000Y-92964000D02*
X190246000Y-92964000D01*
D28*
%TO.N,Net-(J3-Pad8)*%
X187198000Y-95884000D02*
X186818000Y-95504000D01*
X190262000Y-99060000D02*
X189669990Y-99652010D01*
D27*
X190008000Y-98694000D02*
X186818000Y-95504000D01*
X190008000Y-99400000D02*
X190008000Y-98694000D01*
D24*
%TO.N,Net-(D9-Pad1)*%
X197217000Y-83058000D02*
X198898000Y-83058000D01*
%TO.N,Net-(R7-Pad1)*%
X200644000Y-96391000D02*
X199503000Y-95250000D01*
X200644000Y-97028000D02*
X200644000Y-96391000D01*
%TO.N,Net-(R8-Pad1)*%
X201535000Y-99314000D02*
X202438000Y-98411000D01*
X200644000Y-99314000D02*
X201535000Y-99314000D01*
D26*
%TO.N,Net-(B1-Pad2)*%
X208864000Y-101920000D02*
X208676000Y-102108000D01*
X208864000Y-98716000D02*
X208864000Y-101920000D01*
D24*
%TO.N,Net-(AE1-Pad1)*%
X204405500Y-90642000D02*
X204724000Y-90323500D01*
X201316000Y-90642000D02*
X204405500Y-90642000D01*
X204997500Y-90323500D02*
X205198000Y-90524000D01*
X204470000Y-90323500D02*
X204997500Y-90323500D01*
D28*
X208280000Y-89837002D02*
X208280000Y-87175000D01*
X207593002Y-90524000D02*
X208280000Y-89837002D01*
X205198000Y-90524000D02*
X207593002Y-90524000D01*
%TD*%
D29*
%TO.N,GNDD*%
X187220038Y-100391962D02*
X187332464Y-100484228D01*
X187375041Y-100563884D01*
X187498131Y-100713870D01*
X187535711Y-100744711D01*
X189661289Y-102870290D01*
X189692130Y-102907870D01*
X189729709Y-102938710D01*
X189842116Y-103030960D01*
X189952572Y-103090000D01*
X185710000Y-103090000D01*
X185710000Y-100638480D01*
X185847999Y-100652072D01*
X186548001Y-100652072D01*
X186721255Y-100635008D01*
X186887851Y-100584472D01*
X187041387Y-100502405D01*
X187175962Y-100391962D01*
X187198000Y-100365109D01*
X187220038Y-100391962D01*
%TA.AperFunction,Conductor*%
D30*
G36*
X187220038Y-100391962D02*
G01*
X187332464Y-100484228D01*
X187375041Y-100563884D01*
X187498131Y-100713870D01*
X187535711Y-100744711D01*
X189661289Y-102870290D01*
X189692130Y-102907870D01*
X189729709Y-102938710D01*
X189842116Y-103030960D01*
X189952572Y-103090000D01*
X185710000Y-103090000D01*
X185710000Y-100638480D01*
X185847999Y-100652072D01*
X186548001Y-100652072D01*
X186721255Y-100635008D01*
X186887851Y-100584472D01*
X187041387Y-100502405D01*
X187175962Y-100391962D01*
X187198000Y-100365109D01*
X187220038Y-100391962D01*
G37*
%TD.AperFunction*%
D29*
X206237928Y-102044729D02*
X206237928Y-102358000D01*
X206240336Y-102382450D01*
X206240336Y-102407009D01*
X206252596Y-102531490D01*
X206271718Y-102627623D01*
X206308027Y-102747319D01*
X206345536Y-102837875D01*
X206404502Y-102948192D01*
X206458958Y-103029691D01*
X206508452Y-103090000D01*
X205664597Y-103090000D01*
X205665178Y-103089355D01*
X205814157Y-102839252D01*
X205911481Y-102564891D01*
X205790814Y-102335000D01*
X204597000Y-102335000D01*
X204597000Y-102355000D01*
X204343000Y-102355000D01*
X204343000Y-102335000D01*
X204323000Y-102335000D01*
X204323000Y-102081000D01*
X204343000Y-102081000D01*
X204343000Y-102061000D01*
X204597000Y-102061000D01*
X204597000Y-102081000D01*
X205790814Y-102081000D01*
X205911481Y-101851109D01*
X205890868Y-101792999D01*
X205986198Y-101792999D01*
X206237928Y-102044729D01*
%TA.AperFunction,Conductor*%
D30*
G36*
X206237928Y-102044729D02*
G01*
X206237928Y-102358000D01*
X206240336Y-102382450D01*
X206240336Y-102407009D01*
X206252596Y-102531490D01*
X206271718Y-102627623D01*
X206308027Y-102747319D01*
X206345536Y-102837875D01*
X206404502Y-102948192D01*
X206458958Y-103029691D01*
X206508452Y-103090000D01*
X205664597Y-103090000D01*
X205665178Y-103089355D01*
X205814157Y-102839252D01*
X205911481Y-102564891D01*
X205790814Y-102335000D01*
X204597000Y-102335000D01*
X204597000Y-102355000D01*
X204343000Y-102355000D01*
X204343000Y-102335000D01*
X204323000Y-102335000D01*
X204323000Y-102081000D01*
X204343000Y-102081000D01*
X204343000Y-102061000D01*
X204597000Y-102061000D01*
X204597000Y-102081000D01*
X205790814Y-102081000D01*
X205911481Y-101851109D01*
X205890868Y-101792999D01*
X205986198Y-101792999D01*
X206237928Y-102044729D01*
G37*
%TD.AperFunction*%
D29*
X206850000Y-91872000D02*
X206870000Y-91872000D01*
X206870000Y-92126000D01*
X206850000Y-92126000D01*
X206850000Y-93000250D01*
X207008750Y-93159000D01*
X207278999Y-93160020D01*
X207278999Y-93447667D01*
X207279000Y-97231659D01*
X207278999Y-97231669D01*
X207279000Y-98732198D01*
X206799000Y-99212198D01*
X206799000Y-99096998D01*
X206640252Y-99096998D01*
X206799000Y-98938250D01*
X206802072Y-98474000D01*
X206789812Y-98349518D01*
X206753502Y-98229820D01*
X206694537Y-98119506D01*
X206615185Y-98022815D01*
X206518494Y-97943463D01*
X206408180Y-97884498D01*
X206288482Y-97848188D01*
X206164000Y-97835928D01*
X205949750Y-97839000D01*
X205791000Y-97997750D01*
X205791000Y-99097000D01*
X205811000Y-99097000D01*
X205811000Y-99351000D01*
X205791000Y-99351000D01*
X205791000Y-99371000D01*
X205537000Y-99371000D01*
X205537000Y-99351000D01*
X204687750Y-99351000D01*
X204529000Y-99509750D01*
X204526927Y-99822989D01*
X202100812Y-99822989D01*
X202349729Y-99574072D01*
X202675500Y-99574072D01*
X202846316Y-99557248D01*
X203010567Y-99507423D01*
X203161942Y-99426512D01*
X203294623Y-99317623D01*
X203403512Y-99184942D01*
X203484423Y-99033567D01*
X203534248Y-98869316D01*
X203551072Y-98698500D01*
X203551072Y-98474000D01*
X204525928Y-98474000D01*
X204529000Y-98938250D01*
X204687750Y-99097000D01*
X205537000Y-99097000D01*
X205537000Y-97997750D01*
X205378250Y-97839000D01*
X205164000Y-97835928D01*
X205039518Y-97848188D01*
X204919820Y-97884498D01*
X204809506Y-97943463D01*
X204712815Y-98022815D01*
X204633463Y-98119506D01*
X204574498Y-98229820D01*
X204538188Y-98349518D01*
X204525928Y-98474000D01*
X203551072Y-98474000D01*
X203551072Y-98123500D01*
X203534248Y-97952684D01*
X203484423Y-97788433D01*
X203403512Y-97637058D01*
X203320575Y-97536000D01*
X203403512Y-97434942D01*
X203484423Y-97283567D01*
X203534248Y-97119316D01*
X203551072Y-96948500D01*
X203551072Y-96373500D01*
X203534248Y-96202684D01*
X203484423Y-96038433D01*
X203403512Y-95887058D01*
X203294623Y-95754377D01*
X203161942Y-95645488D01*
X203010567Y-95564577D01*
X202846316Y-95514752D01*
X202675500Y-95497928D01*
X202349730Y-95497928D01*
X202014636Y-95162835D01*
X202111962Y-95082962D01*
X202117342Y-95076406D01*
X202182815Y-95156185D01*
X202279506Y-95235537D01*
X202389820Y-95294502D01*
X202509518Y-95330812D01*
X202634000Y-95343072D01*
X202935750Y-95340000D01*
X203094500Y-95181250D01*
X203094500Y-94107000D01*
X203348500Y-94107000D01*
X203348500Y-95181250D01*
X203507250Y-95340000D01*
X203809000Y-95343072D01*
X203933482Y-95330812D01*
X204053180Y-95294502D01*
X204163494Y-95235537D01*
X204260185Y-95156185D01*
X204339537Y-95059494D01*
X204398502Y-94949180D01*
X204434812Y-94829482D01*
X204447072Y-94705000D01*
X204444000Y-94265750D01*
X204285250Y-94107000D01*
X203348500Y-94107000D01*
X203094500Y-94107000D01*
X203074500Y-94107000D01*
X203074500Y-93853000D01*
X203094500Y-93853000D01*
X203094500Y-93833000D01*
X203348500Y-93833000D01*
X203348500Y-93853000D01*
X204285250Y-93853000D01*
X204444000Y-93694250D01*
X204447072Y-93255000D01*
X204434812Y-93130518D01*
X204398502Y-93010820D01*
X204343000Y-92906985D01*
X204343000Y-92275500D01*
X204323000Y-92275500D01*
X204323000Y-92021500D01*
X204343000Y-92021500D01*
X204343000Y-92001500D01*
X204597000Y-92001500D01*
X204597000Y-92021500D01*
X204617000Y-92021500D01*
X204617000Y-92275500D01*
X204597000Y-92275500D01*
X204597000Y-93162250D01*
X204642836Y-93208086D01*
X204633463Y-93219506D01*
X204574498Y-93329820D01*
X204538188Y-93449518D01*
X204525928Y-93574000D01*
X204525928Y-95074000D01*
X204538188Y-95198482D01*
X204574498Y-95318180D01*
X204633463Y-95428494D01*
X204712815Y-95525185D01*
X204809506Y-95604537D01*
X204919820Y-95663502D01*
X205039518Y-95699812D01*
X205164000Y-95712072D01*
X206164000Y-95712072D01*
X206288482Y-95699812D01*
X206408180Y-95663502D01*
X206518494Y-95604537D01*
X206615185Y-95525185D01*
X206694537Y-95428494D01*
X206753502Y-95318180D01*
X206789812Y-95198482D01*
X206802072Y-95074000D01*
X206802072Y-93574000D01*
X206789812Y-93449518D01*
X206753502Y-93329820D01*
X206694537Y-93219506D01*
X206615185Y-93122815D01*
X206537329Y-93058921D01*
X206596000Y-93000250D01*
X206596000Y-92126000D01*
X206576000Y-92126000D01*
X206576000Y-91872000D01*
X206596000Y-91872000D01*
X206596000Y-91852000D01*
X206850000Y-91852000D01*
X206850000Y-91872000D01*
%TA.AperFunction,Conductor*%
D30*
G36*
X206850000Y-91872000D02*
G01*
X206870000Y-91872000D01*
X206870000Y-92126000D01*
X206850000Y-92126000D01*
X206850000Y-93000250D01*
X207008750Y-93159000D01*
X207278999Y-93160020D01*
X207278999Y-93447667D01*
X207279000Y-97231659D01*
X207278999Y-97231669D01*
X207279000Y-98732198D01*
X206799000Y-99212198D01*
X206799000Y-99096998D01*
X206640252Y-99096998D01*
X206799000Y-98938250D01*
X206802072Y-98474000D01*
X206789812Y-98349518D01*
X206753502Y-98229820D01*
X206694537Y-98119506D01*
X206615185Y-98022815D01*
X206518494Y-97943463D01*
X206408180Y-97884498D01*
X206288482Y-97848188D01*
X206164000Y-97835928D01*
X205949750Y-97839000D01*
X205791000Y-97997750D01*
X205791000Y-99097000D01*
X205811000Y-99097000D01*
X205811000Y-99351000D01*
X205791000Y-99351000D01*
X205791000Y-99371000D01*
X205537000Y-99371000D01*
X205537000Y-99351000D01*
X204687750Y-99351000D01*
X204529000Y-99509750D01*
X204526927Y-99822989D01*
X202100812Y-99822989D01*
X202349729Y-99574072D01*
X202675500Y-99574072D01*
X202846316Y-99557248D01*
X203010567Y-99507423D01*
X203161942Y-99426512D01*
X203294623Y-99317623D01*
X203403512Y-99184942D01*
X203484423Y-99033567D01*
X203534248Y-98869316D01*
X203551072Y-98698500D01*
X203551072Y-98474000D01*
X204525928Y-98474000D01*
X204529000Y-98938250D01*
X204687750Y-99097000D01*
X205537000Y-99097000D01*
X205537000Y-97997750D01*
X205378250Y-97839000D01*
X205164000Y-97835928D01*
X205039518Y-97848188D01*
X204919820Y-97884498D01*
X204809506Y-97943463D01*
X204712815Y-98022815D01*
X204633463Y-98119506D01*
X204574498Y-98229820D01*
X204538188Y-98349518D01*
X204525928Y-98474000D01*
X203551072Y-98474000D01*
X203551072Y-98123500D01*
X203534248Y-97952684D01*
X203484423Y-97788433D01*
X203403512Y-97637058D01*
X203320575Y-97536000D01*
X203403512Y-97434942D01*
X203484423Y-97283567D01*
X203534248Y-97119316D01*
X203551072Y-96948500D01*
X203551072Y-96373500D01*
X203534248Y-96202684D01*
X203484423Y-96038433D01*
X203403512Y-95887058D01*
X203294623Y-95754377D01*
X203161942Y-95645488D01*
X203010567Y-95564577D01*
X202846316Y-95514752D01*
X202675500Y-95497928D01*
X202349730Y-95497928D01*
X202014636Y-95162835D01*
X202111962Y-95082962D01*
X202117342Y-95076406D01*
X202182815Y-95156185D01*
X202279506Y-95235537D01*
X202389820Y-95294502D01*
X202509518Y-95330812D01*
X202634000Y-95343072D01*
X202935750Y-95340000D01*
X203094500Y-95181250D01*
X203094500Y-94107000D01*
X203348500Y-94107000D01*
X203348500Y-95181250D01*
X203507250Y-95340000D01*
X203809000Y-95343072D01*
X203933482Y-95330812D01*
X204053180Y-95294502D01*
X204163494Y-95235537D01*
X204260185Y-95156185D01*
X204339537Y-95059494D01*
X204398502Y-94949180D01*
X204434812Y-94829482D01*
X204447072Y-94705000D01*
X204444000Y-94265750D01*
X204285250Y-94107000D01*
X203348500Y-94107000D01*
X203094500Y-94107000D01*
X203074500Y-94107000D01*
X203074500Y-93853000D01*
X203094500Y-93853000D01*
X203094500Y-93833000D01*
X203348500Y-93833000D01*
X203348500Y-93853000D01*
X204285250Y-93853000D01*
X204444000Y-93694250D01*
X204447072Y-93255000D01*
X204434812Y-93130518D01*
X204398502Y-93010820D01*
X204343000Y-92906985D01*
X204343000Y-92275500D01*
X204323000Y-92275500D01*
X204323000Y-92021500D01*
X204343000Y-92021500D01*
X204343000Y-92001500D01*
X204597000Y-92001500D01*
X204597000Y-92021500D01*
X204617000Y-92021500D01*
X204617000Y-92275500D01*
X204597000Y-92275500D01*
X204597000Y-93162250D01*
X204642836Y-93208086D01*
X204633463Y-93219506D01*
X204574498Y-93329820D01*
X204538188Y-93449518D01*
X204525928Y-93574000D01*
X204525928Y-95074000D01*
X204538188Y-95198482D01*
X204574498Y-95318180D01*
X204633463Y-95428494D01*
X204712815Y-95525185D01*
X204809506Y-95604537D01*
X204919820Y-95663502D01*
X205039518Y-95699812D01*
X205164000Y-95712072D01*
X206164000Y-95712072D01*
X206288482Y-95699812D01*
X206408180Y-95663502D01*
X206518494Y-95604537D01*
X206615185Y-95525185D01*
X206694537Y-95428494D01*
X206753502Y-95318180D01*
X206789812Y-95198482D01*
X206802072Y-95074000D01*
X206802072Y-93574000D01*
X206789812Y-93449518D01*
X206753502Y-93329820D01*
X206694537Y-93219506D01*
X206615185Y-93122815D01*
X206537329Y-93058921D01*
X206596000Y-93000250D01*
X206596000Y-92126000D01*
X206576000Y-92126000D01*
X206576000Y-91872000D01*
X206596000Y-91872000D01*
X206596000Y-91852000D01*
X206850000Y-91852000D01*
X206850000Y-91872000D01*
G37*
%TD.AperFunction*%
D29*
X185743518Y-96629812D02*
X185868000Y-96642072D01*
X186563072Y-96642072D01*
X187896928Y-97975928D01*
X187847999Y-97975928D01*
X187674745Y-97992992D01*
X187508149Y-98043528D01*
X187354613Y-98125595D01*
X187220038Y-98236038D01*
X187198000Y-98262891D01*
X187180761Y-98241885D01*
X187168747Y-98119906D01*
X187112424Y-97934233D01*
X187085840Y-97884498D01*
X187020960Y-97763116D01*
X186897870Y-97613130D01*
X186860284Y-97582284D01*
X186602431Y-97324431D01*
X186592205Y-97299744D01*
X186478937Y-97130226D01*
X186334774Y-96986063D01*
X186165256Y-96872795D01*
X185976898Y-96794774D01*
X185776939Y-96755000D01*
X185710000Y-96755000D01*
X185710000Y-96619644D01*
X185743518Y-96629812D01*
%TA.AperFunction,Conductor*%
D30*
G36*
X185743518Y-96629812D02*
G01*
X185868000Y-96642072D01*
X186563072Y-96642072D01*
X187896928Y-97975928D01*
X187847999Y-97975928D01*
X187674745Y-97992992D01*
X187508149Y-98043528D01*
X187354613Y-98125595D01*
X187220038Y-98236038D01*
X187198000Y-98262891D01*
X187180761Y-98241885D01*
X187168747Y-98119906D01*
X187112424Y-97934233D01*
X187085840Y-97884498D01*
X187020960Y-97763116D01*
X186897870Y-97613130D01*
X186860284Y-97582284D01*
X186602431Y-97324431D01*
X186592205Y-97299744D01*
X186478937Y-97130226D01*
X186334774Y-96986063D01*
X186165256Y-96872795D01*
X185976898Y-96794774D01*
X185776939Y-96755000D01*
X185710000Y-96755000D01*
X185710000Y-96619644D01*
X185743518Y-96629812D01*
G37*
%TD.AperFunction*%
D29*
X190881000Y-96922500D02*
X190901000Y-96922500D01*
X190901000Y-97176500D01*
X190881000Y-97176500D01*
X190881000Y-97196500D01*
X190627000Y-97196500D01*
X190627000Y-97176500D01*
X190607000Y-97176500D01*
X190607000Y-96922500D01*
X190627000Y-96922500D01*
X190627000Y-96902500D01*
X190881000Y-96902500D01*
X190881000Y-96922500D01*
%TA.AperFunction,Conductor*%
D30*
G36*
X190881000Y-96922500D02*
G01*
X190901000Y-96922500D01*
X190901000Y-97176500D01*
X190881000Y-97176500D01*
X190881000Y-97196500D01*
X190627000Y-97196500D01*
X190627000Y-97176500D01*
X190607000Y-97176500D01*
X190607000Y-96922500D01*
X190627000Y-96922500D01*
X190627000Y-96902500D01*
X190881000Y-96902500D01*
X190881000Y-96922500D01*
G37*
%TD.AperFunction*%
D29*
X206850000Y-88922000D02*
X206870000Y-88922000D01*
X206870000Y-89176000D01*
X206850000Y-89176000D01*
X206850000Y-89196000D01*
X206596000Y-89196000D01*
X206596000Y-89176000D01*
X206576000Y-89176000D01*
X206576000Y-88922000D01*
X206596000Y-88922000D01*
X206596000Y-88902000D01*
X206850000Y-88902000D01*
X206850000Y-88922000D01*
%TA.AperFunction,Conductor*%
D30*
G36*
X206850000Y-88922000D02*
G01*
X206870000Y-88922000D01*
X206870000Y-89176000D01*
X206850000Y-89176000D01*
X206850000Y-89196000D01*
X206596000Y-89196000D01*
X206596000Y-89176000D01*
X206576000Y-89176000D01*
X206576000Y-88922000D01*
X206596000Y-88922000D01*
X206596000Y-88902000D01*
X206850000Y-88902000D01*
X206850000Y-88922000D01*
G37*
%TD.AperFunction*%
D29*
X197993000Y-88265000D02*
X198013000Y-88265000D01*
X198013000Y-88519000D01*
X197993000Y-88519000D01*
X197993000Y-88539000D01*
X197739000Y-88539000D01*
X197739000Y-88519000D01*
X197719000Y-88519000D01*
X197719000Y-88265000D01*
X197739000Y-88265000D01*
X197739000Y-88245000D01*
X197993000Y-88245000D01*
X197993000Y-88265000D01*
%TA.AperFunction,Conductor*%
D30*
G36*
X197993000Y-88265000D02*
G01*
X198013000Y-88265000D01*
X198013000Y-88519000D01*
X197993000Y-88519000D01*
X197993000Y-88539000D01*
X197739000Y-88539000D01*
X197739000Y-88519000D01*
X197719000Y-88519000D01*
X197719000Y-88265000D01*
X197739000Y-88265000D01*
X197739000Y-88245000D01*
X197993000Y-88245000D01*
X197993000Y-88265000D01*
G37*
%TD.AperFunction*%
D29*
X206650500Y-85217000D02*
X206670500Y-85217000D01*
X206670500Y-85471000D01*
X206650500Y-85471000D01*
X206650500Y-85491000D01*
X206396500Y-85491000D01*
X206396500Y-85471000D01*
X206376500Y-85471000D01*
X206376500Y-85217000D01*
X206396500Y-85217000D01*
X206396500Y-85197000D01*
X206650500Y-85197000D01*
X206650500Y-85217000D01*
%TA.AperFunction,Conductor*%
D30*
G36*
X206650500Y-85217000D02*
G01*
X206670500Y-85217000D01*
X206670500Y-85471000D01*
X206650500Y-85471000D01*
X206650500Y-85491000D01*
X206396500Y-85491000D01*
X206396500Y-85471000D01*
X206376500Y-85471000D01*
X206376500Y-85217000D01*
X206396500Y-85217000D01*
X206396500Y-85197000D01*
X206650500Y-85197000D01*
X206650500Y-85217000D01*
G37*
%TD.AperFunction*%
D29*
X187778205Y-82299008D02*
X187801999Y-82328001D01*
X187830992Y-82351795D01*
X187830996Y-82351799D01*
X187899724Y-82408202D01*
X187917724Y-82422974D01*
X188049753Y-82493546D01*
X188193014Y-82537003D01*
X188304667Y-82548000D01*
X188304676Y-82548000D01*
X188341999Y-82551676D01*
X188379322Y-82548000D01*
X188529928Y-82548000D01*
X188529928Y-83304000D01*
X188542188Y-83428482D01*
X188578498Y-83548180D01*
X188637463Y-83658494D01*
X188716815Y-83755185D01*
X188813506Y-83834537D01*
X188923820Y-83893502D01*
X189043518Y-83929812D01*
X189168000Y-83942072D01*
X189463674Y-83942072D01*
X189483026Y-83978276D01*
X189519957Y-84023276D01*
X189577999Y-84094001D01*
X189607003Y-84117804D01*
X190073199Y-84584000D01*
X188349046Y-84584000D01*
X188298537Y-84489506D01*
X188219185Y-84392815D01*
X188122494Y-84313463D01*
X188012180Y-84254498D01*
X187892482Y-84218188D01*
X187768000Y-84205928D01*
X185868000Y-84205928D01*
X185743518Y-84218188D01*
X185710000Y-84228356D01*
X185710000Y-82169000D01*
X187648197Y-82169000D01*
X187778205Y-82299008D01*
%TA.AperFunction,Conductor*%
D30*
G36*
X187778205Y-82299008D02*
G01*
X187801999Y-82328001D01*
X187830992Y-82351795D01*
X187830996Y-82351799D01*
X187899724Y-82408202D01*
X187917724Y-82422974D01*
X188049753Y-82493546D01*
X188193014Y-82537003D01*
X188304667Y-82548000D01*
X188304676Y-82548000D01*
X188341999Y-82551676D01*
X188379322Y-82548000D01*
X188529928Y-82548000D01*
X188529928Y-83304000D01*
X188542188Y-83428482D01*
X188578498Y-83548180D01*
X188637463Y-83658494D01*
X188716815Y-83755185D01*
X188813506Y-83834537D01*
X188923820Y-83893502D01*
X189043518Y-83929812D01*
X189168000Y-83942072D01*
X189463674Y-83942072D01*
X189483026Y-83978276D01*
X189519957Y-84023276D01*
X189577999Y-84094001D01*
X189607003Y-84117804D01*
X190073199Y-84584000D01*
X188349046Y-84584000D01*
X188298537Y-84489506D01*
X188219185Y-84392815D01*
X188122494Y-84313463D01*
X188012180Y-84254498D01*
X187892482Y-84218188D01*
X187768000Y-84205928D01*
X185868000Y-84205928D01*
X185743518Y-84218188D01*
X185710000Y-84228356D01*
X185710000Y-82169000D01*
X187648197Y-82169000D01*
X187778205Y-82299008D01*
G37*
%TD.AperFunction*%
D29*
X208799018Y-82757649D02*
X208799018Y-84312333D01*
X208688316Y-84278752D01*
X208517500Y-84261928D01*
X208387796Y-84261928D01*
X207783436Y-83657568D01*
X207757281Y-83625699D01*
X207630136Y-83521354D01*
X207522953Y-83464063D01*
X207521000Y-83343750D01*
X207362250Y-83185000D01*
X206475500Y-83185000D01*
X206475500Y-83205000D01*
X206221500Y-83205000D01*
X206221500Y-83185000D01*
X206201500Y-83185000D01*
X206201500Y-82931000D01*
X206221500Y-82931000D01*
X206221500Y-82911000D01*
X206475500Y-82911000D01*
X206475500Y-82931000D01*
X207362250Y-82931000D01*
X207521000Y-82772250D01*
X207524072Y-82583000D01*
X207511812Y-82458518D01*
X207475502Y-82338820D01*
X207416537Y-82228506D01*
X207367702Y-82169000D01*
X208799019Y-82169000D01*
X208799018Y-82757649D01*
%TA.AperFunction,Conductor*%
D30*
G36*
X208799018Y-82757649D02*
G01*
X208799018Y-84312333D01*
X208688316Y-84278752D01*
X208517500Y-84261928D01*
X208387796Y-84261928D01*
X207783436Y-83657568D01*
X207757281Y-83625699D01*
X207630136Y-83521354D01*
X207522953Y-83464063D01*
X207521000Y-83343750D01*
X207362250Y-83185000D01*
X206475500Y-83185000D01*
X206475500Y-83205000D01*
X206221500Y-83205000D01*
X206221500Y-83185000D01*
X206201500Y-83185000D01*
X206201500Y-82931000D01*
X206221500Y-82931000D01*
X206221500Y-82911000D01*
X206475500Y-82911000D01*
X206475500Y-82931000D01*
X207362250Y-82931000D01*
X207521000Y-82772250D01*
X207524072Y-82583000D01*
X207511812Y-82458518D01*
X207475502Y-82338820D01*
X207416537Y-82228506D01*
X207367702Y-82169000D01*
X208799019Y-82169000D01*
X208799018Y-82757649D01*
G37*
%TD.AperFunction*%
%TD*%
M02*
